<?xml version="1.0" standalone="no"?>
<!DOCTYPE svg PUBLIC "-//W3C//DTD SVG 1.1//EN" "http://www.w3.org/Graphics/SVG/1.1/DTD/svg11.dtd" >
<svg xmlns="http://www.w3.org/2000/svg" xmlns:xlink="http://www.w3.org/1999/xlink" version="1.1">
<metadata>
Created by FontForge 20161003 at Mon Sep  3 03:40:14 2018
 By www-data
(c) 2005 Microsoft Corporation. All Rights Reserved.
</metadata>
<defs>
<font id="Constantia" horiz-adv-x="1130" >
  <font-face 
    font-family="Constantia"
    font-weight="700"
    font-style="italic"
    font-stretch="normal"
    units-per-em="2048"
    panose-1="2 3 7 2 6 3 6 10 3 3"
    ascent="1538"
    descent="-510"
    x-height="922"
    cap-height="1401"
    bbox="-706 -509 2565 2114"
    underline-thickness="102"
    underline-position="-307"
    slope="-11"
    unicode-range="U+000D-FB04"
  />
<missing-glyph horiz-adv-x="995" 
d="M995 1396v-1396h-995v1396h995zM898 98v1201h-800v-1201h800zM437 455l-2 33q0 133 41 187t73 84q61 62 78.5 94t17.5 73q0 75 -44.5 118.5t-102.5 43.5q-62 0 -105.5 -42.5t-55.5 -141.5l-96 15q15 136 87 201.5t175 65.5q104 0 173 -66t69 -185q0 -66 -24 -115
t-97 -120q-73 -65 -85.5 -106t-12.5 -134zM416 291q0 29 20 49.5t49 20.5t49.5 -20.5t20.5 -49.5q0 -30 -20.5 -49.5t-49.5 -19.5t-49 19.5t-20 49.5z" />
    <glyph glyph-name="uniFB00" unicode="ff" horiz-adv-x="1399" 
d="M1547 1507q102 0 199 -29q-41 -137 -72 -287l-56 -9l-53 225q-20 5 -52 5q-91 0 -158 -85.5t-116 -337.5l-16 -83h262l-20 -103h-261l-150 -718q-62 -293 -177 -427t-317 -134q-78 0 -181 21q23 110 50 210l14 4q114 -131 169 -131q56 0 94 80q19 40 36.5 110t36.5 176
l144 809h-389l-154 -738q-62 -293 -177 -427t-317 -134q-78 0 -181 21q23 110 50 210l14 4q114 -131 169 -131q56 0 94 80q19 40 36.5 110t36.5 176l149 836l-148 39l3 43l162 15q58 270 220.5 425t381.5 155q97 0 192 -29q-39 -127 -72 -287l-54 -9l-53 225q-20 5 -47 5
q-91 0 -158 -85.5t-116 -337.5l-12 -63h388q62 291 224.5 446t381.5 155z" />
    <glyph glyph-name="uniFB01" unicode="fi" horiz-adv-x="1330" 
d="M981 1507q117 0 233 -29q-38 -137 -67 -287l-56 -9l-58 225q-31 5 -74 5q-164 0 -254 -106.5t-130 -298.5l-22 -101h326q122 0 190 36q67 0 104.5 -23.5t37.5 -73.5q0 -21 -4 -41l-131 -630q-5 -26 -5 -38q0 -40 33 -52.5t122 -12.5l-6 -47q-171 -42 -276 -42
q-74 0 -115.5 29t-41.5 88q0 28 8 70l132 634h-393l-154 -738q-62 -293 -177 -427t-317 -134q-78 0 -181 21q23 110 50 210l14 4q114 -131 169 -131q56 0 94 80q19 40 36.5 110t36.5 176l149 836l-148 39l3 43l163 15q71 295 257.5 447.5t451.5 152.5z" />
    <glyph glyph-name="uniFB02" unicode="fl" horiz-adv-x="1344" 
d="M887 1413q-132 0 -202.5 -99.5t-109.5 -296.5l-22 -109h252l-20 -105h-251l-154 -738q-62 -293 -177 -427t-317 -134q-78 0 -181 21q23 110 50 210l14 4q114 -131 169 -131q56 0 94 80q19 40 36.5 110t36.5 176l149 836l-148 39l3 43l162 15q62 290 224.5 445t396.5 155
q143 0 260 -42q96 18 194 41l12 -12q-9 -38 -20 -86.5t-23.5 -106t-26 -122.5t-28.5 -134l-179 -873q-4 -19 -4 -39q0 -32 26.5 -46.5t130.5 -15.5l-6 -47q-173 -42 -276 -42q-81 0 -120.5 30t-39.5 90q0 18 10 67l247 1204q-73 40 -162 40z" />
    <glyph glyph-name="uniFB03" unicode="ffi" horiz-adv-x="2000" 
d="M1651 1507q117 0 233 -29q-38 -137 -67 -287l-56 -9l-58 225q-31 5 -74 5q-164 0 -254 -106.5t-130 -298.5l-22 -101h326q122 0 190 36q67 0 104.5 -23.5t37.5 -73.5q0 -21 -4 -41l-131 -630q-5 -26 -5 -38q0 -40 33 -52.5t122 -12.5l-6 -47q-171 -42 -276 -42
q-74 0 -115.5 29t-41.5 88q0 28 8 70l132 634h-393l-150 -718q-62 -293 -177 -427t-317 -134q-78 0 -181 21q23 110 50 210l14 4q114 -131 169 -131q56 0 94 80q19 40 36.5 110t36.5 176l144 809h-389l-154 -738q-62 -293 -177 -427t-317 -134q-78 0 -181 21q23 110 50 210
l14 4q114 -131 169 -131q56 0 94 80q19 40 36.5 110t36.5 176l149 836l-148 39l3 43l162 15q58 270 220.5 425t381.5 155q97 0 192 -29q-39 -127 -72 -287l-54 -9l-53 225q-20 5 -47 5q-91 0 -158 -85.5t-116 -337.5l-12 -63h389q71 296 257.5 448.5t451.5 152.5z" />
    <glyph glyph-name="uniFB04" unicode="ffl" horiz-adv-x="2014" 
d="M873 1487q97 0 192 -29q-39 -127 -72 -287l-54 -9l-53 225q-20 5 -47 5q-91 0 -158 -85.5t-116 -337.5l-12 -63h388q62 291 224.5 446t396.5 155q144 0 261 -42q104 20 193 41l12 -12q-9 -38 -20 -86.5t-23.5 -106t-26 -122.5t-28.5 -134l-179 -873q-4 -19 -4 -39
q0 -32 26.5 -46.5t130.5 -15.5l-6 -47q-173 -42 -276 -42q-81 0 -120.5 30t-39.5 90q0 18 10 67l249 1204q-74 40 -164 40q-132 0 -202.5 -99.5t-109.5 -296.5l-22 -111h252l-20 -103h-251l-150 -718q-62 -293 -177 -427t-317 -134q-78 0 -181 21q23 110 50 210l14 4
q114 -131 169 -131q56 0 94 80q19 40 36.5 110t36.5 176l144 809h-389l-154 -738q-62 -293 -177 -427t-317 -134q-78 0 -181 21q23 110 50 210l14 4q114 -131 169 -131q56 0 94 80q19 40 36.5 110t36.5 176l149 836l-148 39l3 43l162 15q58 270 220.5 425t381.5 155z" />
    <glyph glyph-name="f_b.liga" unicode="fb" horiz-adv-x="1868" 
d="M254 810l-148 39l3 43l162 15q62 290 224.5 445t396.5 155q144 0 261 -42q104 20 193 41l12 -12q-9 -38 -20 -86.5t-23.5 -106t-26 -122.5t-28.5 -134l-44 -212q217 109 286 109q124 0 204.5 -102t80.5 -241q0 -284 -180 -455t-467 -171q-176 0 -366 65q30 116 77 348
l200 987q-74 40 -164 40q-132 0 -202.5 -99.5t-109.5 -296.5l-22 -109h252l-20 -105h-251l-154 -738q-62 -293 -177 -427t-317 -134q-78 0 -181 21q23 110 50 210l14 4q114 -131 169 -131q56 0 94 80q19 40 36.5 110t36.5 176zM1062 82q48 -12 91 -12q154 0 248.5 144
t94.5 334q0 107 -29.5 176.5t-92.5 69.5q-74 0 -178 -57z" />
    <glyph glyph-name="f_f_b.liga" unicode="ffb" horiz-adv-x="2538" 
d="M941 906q62 291 224.5 446t396.5 155q144 0 261 -42q104 20 193 41l12 -12q-9 -38 -20 -86.5t-23.5 -106t-26 -122.5t-28.5 -134l-44 -212q217 109 286 109q124 0 204.5 -102t80.5 -241q0 -284 -180 -455t-467 -171q-176 0 -366 65q30 116 77 348l200 987q-74 40 -164 40
q-132 0 -202.5 -99.5t-109.5 -296.5l-22 -111h252l-20 -103h-251l-150 -718q-62 -293 -177 -427t-317 -134q-78 0 -181 21q23 110 50 210l14 4q114 -131 169 -131q56 0 94 80q19 40 36.5 110t36.5 176l144 809h-389l-154 -738q-62 -293 -177 -427t-317 -134q-78 0 -181 21
q23 110 50 210l14 4q114 -131 169 -131q56 0 94 80q19 40 36.5 110t36.5 176l149 836l-148 39l3 43l162 15q58 270 220.5 425t381.5 155q97 0 192 -29q-39 -127 -72 -287l-54 -9l-53 225q-20 5 -47 5q-91 0 -158 -85.5t-116 -337.5l-12 -63h388zM1732 82q48 -12 91 -12
q154 0 248.5 144t94.5 334q0 107 -29.5 176.5t-92.5 69.5q-74 0 -178 -57z" />
    <glyph glyph-name="f_h.liga" unicode="fh" horiz-adv-x="1939" 
d="M768 -5l282 1378q-74 40 -163 40q-132 0 -202.5 -99.5t-109.5 -296.5l-22 -109h252l-20 -105h-251l-154 -738q-62 -293 -177 -427t-317 -134q-78 0 -181 21q23 110 50 210l14 4q114 -131 169 -131q56 0 94 80q19 40 36.5 110t36.5 176l149 836l-148 39l3 43l162 15
q62 290 224.5 445t396.5 155q143 0 260 -42q96 18 194 41l12 -12q-9 -38 -20 -86.5t-23.5 -106t-26 -122.5t-28.5 -134l-45 -219q196 117 358 117q109 0 169.5 -57.5t60.5 -155.5q0 -43 -11 -92l-100 -474q-2 -8 -3 -15.5t-1 -14.5q0 -21 10 -33t29.5 -17.5t48.5 -7t66 -1.5
l-4 -46q-150 -47 -275 -47q-78 0 -117.5 29t-39.5 95q0 31 8 72l90 418q11 52 11 87q0 60 -27 88.5t-78 28.5q-78 0 -214 -64l-150 -731z" />
    <glyph glyph-name="f_f_h.liga" unicode="ffh" horiz-adv-x="2609" 
d="M873 1487q97 0 192 -29q-39 -127 -72 -287l-54 -9l-53 225q-20 5 -47 5q-91 0 -158 -85.5t-116 -337.5l-12 -63h388q62 291 224.5 446t396.5 155q144 0 261 -42q104 20 193 41l12 -12q-9 -38 -20 -86.5t-23.5 -106t-26 -122.5t-28.5 -134l-45 -219q196 117 358 117
q109 0 169.5 -57.5t60.5 -155.5q0 -43 -11 -92l-100 -474q-2 -8 -3 -15.5t-1 -14.5q0 -21 10 -33t29.5 -17.5t48.5 -7t66 -1.5l-4 -46q-150 -47 -275 -47q-78 0 -117.5 29t-39.5 95q0 31 8 72l90 418q11 52 11 87q0 60 -27 88.5t-78 28.5q-78 0 -214 -64l-150 -731l-278 -10
l283 1378q-74 40 -164 40q-132 0 -202.5 -99.5t-109.5 -296.5l-22 -111h252l-20 -103h-251l-150 -718q-62 -293 -177 -427t-317 -134q-78 0 -181 21q23 110 50 210l14 4q114 -131 169 -131q56 0 94 80q19 40 36.5 110t36.5 176l144 809h-389l-154 -738q-62 -293 -177 -427
t-317 -134q-78 0 -181 21q23 110 50 210l14 4q114 -131 169 -131q56 0 94 80q19 40 36.5 110t36.5 176l149 836l-148 39l3 43l162 15q58 270 220.5 425t381.5 155z" />
    <glyph glyph-name="f_j.liga" unicode="fj" horiz-adv-x="1305" 
d="M981 1507q117 0 233 -29q-38 -137 -67 -287l-56 -9l-58 225q-31 5 -74 5q-164 0 -254 -106.5t-130 -298.5l-22 -101h326q122 0 190 36q67 0 104.5 -23.5t37.5 -73.5q0 -21 -4 -41l-141 -681q-38 -187 -153.5 -324t-408.5 -308l-47 55q209 194 252.5 301t73.5 253l143 703
h-392l-154 -738q-62 -293 -177 -427t-317 -134q-78 0 -181 21q23 110 50 210l14 4q114 -131 169 -131q56 0 94 80q19 40 36.5 110t36.5 176l149 836l-148 39l3 43l163 15q71 295 257.5 447.5t451.5 152.5z" />
    <glyph glyph-name="f_f_j.liga" unicode="ffj" horiz-adv-x="1975" 
d="M1549 906q122 0 190 36q67 0 104.5 -23.5t37.5 -73.5q0 -21 -4 -41l-141 -681q-38 -187 -153.5 -324t-408.5 -308l-47 55q209 194 252.5 301t73.5 253l143 703h-392l-150 -718q-62 -293 -177 -427t-317 -134q-78 0 -181 21q23 110 50 210l14 4q114 -131 169 -131
q56 0 94 80q19 40 36.5 110t36.5 176l144 809h-389l-154 -738q-62 -293 -177 -427t-317 -134q-78 0 -181 21q23 110 50 210l14 4q114 -131 169 -131q56 0 94 80q19 40 36.5 110t36.5 176l149 836l-148 39l3 43l162 15q58 270 220.5 425t381.5 155q97 0 192 -29
q-39 -127 -72 -287l-54 -9l-53 225q-20 5 -47 5q-91 0 -158 -85.5t-116 -337.5l-12 -63h389q71 296 257.5 448.5t451.5 152.5q117 0 233 -29q-38 -137 -67 -287l-56 -9l-58 225q-31 5 -74 5q-164 0 -254 -106.5t-130 -298.5l-22 -101h326z" />
    <glyph glyph-name="f_k.liga" unicode="fk" horiz-adv-x="1864" 
d="M1346 1506l12 -12q-18 -75 -43 -192.5t-55 -256.5l-214 -1040l-279 -10l283 1378q-74 40 -163 40q-132 0 -202.5 -99.5t-109.5 -296.5l-22 -109h252l-20 -105h-251l-154 -738q-62 -293 -177 -427t-317 -134q-78 0 -181 21q23 110 50 210l14 4q114 -131 169 -131
q56 0 94 80q19 40 36.5 110t36.5 176l149 836l-148 39l3 43l162 15q62 290 224.5 445t396.5 155q143 0 260 -42q96 18 194 41zM1797 -3q-131 3 -254 3q-76 0 -137 -2q-37 106 -96 226.5t-144 266.5q172 152 272 256.5t138 171.5q31 -1 82 -1q115 0 232 3l-5 -50
q-49 -8 -89 -18.5t-74.5 -24.5t-65.5 -34.5t-64 -50.5l-173 -160l220 -409q20 -38 34.5 -59t31 -33.5t39.5 -19.5t62 -16z" />
    <glyph glyph-name="f_f_k.liga" unicode="ffk" horiz-adv-x="2539" 
d="M873 1487q97 0 192 -29q-39 -127 -72 -287l-54 -9l-53 225q-20 5 -47 5q-91 0 -158 -85.5t-116 -337.5l-12 -63h388q62 291 224.5 446t396.5 155q144 0 261 -42q104 20 193 41l12 -12q-18 -75 -43 -192.5t-55 -256.5l-214 -1040l-279 -10l284 1378q-74 40 -164 40
q-132 0 -202.5 -99.5t-109.5 -296.5l-22 -111h252l-20 -103h-251l-150 -718q-62 -293 -177 -427t-317 -134q-78 0 -181 21q23 110 50 210l14 4q114 -131 169 -131q56 0 94 80q19 40 36.5 110t36.5 176l144 809h-389l-154 -738q-62 -293 -177 -427t-317 -134q-78 0 -181 21
q23 110 50 210l14 4q114 -131 169 -131q56 0 94 80q19 40 36.5 110t36.5 176l149 836l-148 39l3 43l162 15q58 270 220.5 425t381.5 155zM2472 -3q-131 3 -254 3q-76 0 -137 -2q-37 106 -96 226.5t-144 266.5q172 152 272 256.5t138 171.5q31 -1 82 -1q115 0 232 3l-5 -50
q-49 -8 -89 -18.5t-74.5 -24.5t-65.5 -34.5t-64 -50.5l-173 -160l220 -409q20 -38 34.5 -59t31 -33.5t39.5 -19.5t62 -16z" />
    <glyph glyph-name=".notdef" horiz-adv-x="995" 
d="M995 1396v-1396h-995v1396h995zM898 98v1201h-800v-1201h800zM437 455l-2 33q0 133 41 187t73 84q61 62 78.5 94t17.5 73q0 75 -44.5 118.5t-102.5 43.5q-62 0 -105.5 -42.5t-55.5 -141.5l-96 15q15 136 87 201.5t175 65.5q104 0 173 -66t69 -185q0 -66 -24 -115
t-97 -120q-73 -65 -85.5 -106t-12.5 -134zM416 291q0 29 20 49.5t49 20.5t49.5 -20.5t20.5 -49.5q0 -30 -20.5 -49.5t-49.5 -19.5t-49 19.5t-20 49.5z" />
    <glyph glyph-name="glyph1" horiz-adv-x="0" 
 />
    <glyph glyph-name="glyph1" horiz-adv-x="0" 
 />
    <glyph glyph-name="uni000D" unicode="&#xd;" horiz-adv-x="0" 
 />
    <glyph glyph-name="space" unicode=" " horiz-adv-x="470" 
 />
    <glyph glyph-name="space" unicode="&#xa0;" horiz-adv-x="470" 
 />
    <glyph glyph-name="exclam" unicode="!" horiz-adv-x="624" 
d="M269 416l79 940l314 12l8 -8l-322 -940zM275 276q64 0 106 -41.5t42 -109.5q0 -67 -44 -109.5t-108 -42.5q-67 0 -108 42.5t-41 109.5q0 68 43 109.5t110 41.5z" />
    <glyph glyph-name="quotedbl" unicode="&#x22;" horiz-adv-x="742" 
d="M253 1487h222l-188 -485h-74zM583 1487h222l-188 -485h-74z" />
    <glyph glyph-name="numbersign" unicode="#" 
d="M980 1294l-85 -382h201l-10 -145h-223l-55 -251h199l-10 -145h-221l-84 -381h-124l84 381h-275l-84 -381h-124l84 381h-199l10 145h221l56 251h-198l10 145h220l85 382h124l-85 -382h275l85 382h123zM409 516h275l56 251h-275z" />
    <glyph glyph-name="dollar" unicode="$" horiz-adv-x="901" 
d="M-26 23l-4 8l85 286l60 10l29 -236q80 -25 156 -28l78 359l-26 12q-45 21 -89 45t-79 57t-57 79.5t-22 112.5q0 133 117.5 224.5t305.5 109.5l24 112l91 8l-25 -117q160 -3 285 -42l4 -9l-85 -248l-54 -9l-33 199q-67 21 -136 23l-71 -331l42 -20q46 -22 91 -47.5t81 -60
t58 -81.5t22 -111q0 -155 -126.5 -250t-325.5 -105l-27 -124l-92 -8l29 132q-143 6 -306 50zM460 386l-70 -320q101 10 148 51t47 102q0 59 -33.5 97t-91.5 70zM509 975q-78 -11 -124.5 -48t-46.5 -94q0 -51 26.5 -83.5t81.5 -63.5z" />
    <glyph glyph-name="percent" unicode="%" horiz-adv-x="1682" 
d="M485 1419q-94 0 -155.5 -192.5t-61.5 -371.5q0 -67 22 -108t64 -41q92 0 156 196t64 368q0 73 -22 111t-67 38zM493 1486q131 0 197 -75t66 -225q0 -215 -112 -381t-296 -166q-129 0 -195.5 74.5t-66.5 226.5q0 214 112.5 380t294.5 166zM335 8l946 1477l91 -63
l-947 -1477zM1414 761q-94 0 -155.5 -192.5t-61.5 -371.5q0 -67 22 -108t64 -41q92 0 156 196t64 368q0 73 -22 111t-67 38zM1422 828q131 0 197 -75t66 -225q0 -215 -112 -381t-296 -166q-129 0 -195.5 74.5t-66.5 226.5q0 214 112.5 380t294.5 166z" />
    <glyph glyph-name="ampersand" unicode="&#x26;" horiz-adv-x="1559" 
d="M777 724q-54 9 -104 9q-149 0 -225.5 -82.5t-76.5 -213.5q0 -150 102 -240.5t266 -90.5q167 0 283 96.5t116 257.5q0 76 -40.5 131t-105.5 55q-46 0 -74 -29t-28 -73q0 -56 58 -91l-2 -8q-92 -37 -179 -68q-31 46 -31 95q0 126 124 224t281 98q56 0 104.5 -8t90.5 -17
q35 -8 63.5 -13.5t53.5 -5.5q71 0 170 97l33 -22q-102 -286 -255 -286q-65 0 -178 41l-2 -4q53 -85 53 -177q0 -175 -172 -304t-422 -129q-268 0 -440.5 113t-172.5 308q0 149 107.5 256t294.5 133v6q-80 36 -124 98t-44 139q0 172 140 268t370 96q142 0 286 -37l6 -7
l-101 -294l-40 -7l-22 228q-65 22 -122 22q-110 0 -173.5 -77t-63.5 -204q0 -88 48 -137.5t165 -70.5z" />
    <glyph glyph-name="quotesingle" unicode="'" horiz-adv-x="412" 
d="M245 1487h222l-188 -485h-74z" />
    <glyph glyph-name="parenleft" unicode="(" horiz-adv-x="787" 
d="M456 -379q-331 326 -331 768q0 707 731 1184l38 -40q-556 -503 -556 -1198q1 -412 172 -674z" />
    <glyph glyph-name="parenright" unicode=")" horiz-adv-x="791" 
d="M380 1573q331 -326 331 -768q0 -707 -731 -1184l-38 40q556 503 556 1198q-1 412 -172 674z" />
    <glyph glyph-name="asterisk" unicode="*" horiz-adv-x="902" 
d="M959 1038l-319 31l166 -263l-151 -69l-69 310l-197 -239l-116 121l277 162l-289 114l79 148l239 -213l20 310l165 -31l-128 -293l301 77z" />
    <glyph glyph-name="plus" unicode="+" 
d="M73 532h412v412h141v-412h411v-141h-411v-411h-141v411h-412v141z" />
    <glyph glyph-name="comma" unicode="," horiz-adv-x="586" 
d="M-68 -270q203 141 203 288q0 103 -111 163q5 69 52 110.5t109 41.5q69 0 110.5 -47t41.5 -128q0 -258 -361 -487z" />
    <glyph glyph-name="hyphen" unicode="-" horiz-adv-x="681" 
d="M93 570h516l-29 -146h-516z" />
    <glyph glyph-name="hyphen" unicode="&#x2010;" horiz-adv-x="681" 
d="M93 570h516l-29 -146h-516z" />
    <glyph glyph-name="hyphen" unicode="&#xad;" horiz-adv-x="681" 
d="M93 570h516l-29 -146h-516z" />
    <glyph glyph-name="period" unicode="." horiz-adv-x="586" 
d="M232 285q66 0 109 -42.5t43 -112.5q0 -69 -43 -113t-109 -44q-69 0 -111.5 44t-42.5 113q0 70 42.5 112.5t111.5 42.5z" />
    <glyph glyph-name="slash" unicode="/" horiz-adv-x="825" 
d="M60 -226l605 1652h136l-601 -1652h-140z" />
    <glyph glyph-name="zero" unicode="0" horiz-adv-x="1182" 
d="M621 859q-125 0 -193.5 -161t-68.5 -387q0 -123 44.5 -184t132.5 -61q124 0 193 153.5t69 395.5q0 123 -45 183.5t-132 60.5zM632 950q207 0 331 -104.5t124 -295.5q0 -272 -151.5 -423.5t-410.5 -151.5q-205 0 -330 104t-125 296q0 268 149 421.5t413 153.5z" />
    <glyph glyph-name="one" unicode="1" horiz-adv-x="748" 
d="M106 834l5 50q123 15 249.5 31.5t255.5 34.5l8 -8q-45 -179 -81 -361l-47 -246q-13 -66 -22 -118.5t-17 -94.5q-5 -29 21 -36l158 -41l-6 -48q-91 2 -176 2.5t-155 0.5q-72 0 -146 -0.5t-165 -2.5l5 48l157 41q28 7 33 32q16 81 36 180l31 160q20 102 35 190t28 166z" />
    <glyph glyph-name="two" unicode="2" horiz-adv-x="993" 
d="M854 347l59 8l-86 -351l-8 -7q-183 3 -429 3q-304 0 -412 -3l16 122q76 45 150 87.5t140.5 84t122.5 82t96.5 82.5t63.5 86t23 92q0 83 -53.5 128t-142.5 45q-98 0 -219 -63l-34 79q195 128 395 128q154 0 245.5 -74.5t91.5 -183.5q0 -89 -40.5 -152.5t-117.5 -118
t-188 -107t-251 -117.5v-5h477z" />
    <glyph glyph-name="three" unicode="3" horiz-adv-x="935" 
d="M141 333q191 20 300 91.5t109 202.5q0 85 -56 136.5t-147 51.5q-112 0 -240 -75l-30 79q191 131 415 131q159 0 256.5 -75t97.5 -192q0 -124 -104 -207.5t-300 -132.5v-5q17 2 23 2q159 0 255.5 -77.5t96.5 -204.5q0 -85 -33.5 -156.5t-95.5 -128.5t-149.5 -100.5
t-195 -73t-232.5 -44t-261 -15.5l9 88q171 10 294.5 43t204 85t119 121t38.5 151q0 106 -72 167.5t-183 61.5q-61 0 -131 -13z" />
    <glyph glyph-name="four" unicode="4" horiz-adv-x="1072" 
d="M519 144l65 349l275 15l-69 -364h214l-26 -152q-108 3 -217 3l-20 -112q-11 -60 -24 -130.5t-25 -152.5q-142 -10 -274 -26l-8 8q33 156 57 285l23 128h-228q-195 0 -316 -3l17 118q376 434 776 833l204 7l4 -12q-381 -329 -799 -794h371z" />
    <glyph glyph-name="five" unicode="5" horiz-adv-x="957" 
d="M-90 -458l10 86q145 5 260.5 37t196 83.5t123 119.5t42.5 146q0 287 -450 302l-5 7l169 605q126 -4 352 -4q177 0 320 4l3 -8l-76 -234l-547 14l-48 -163q292 -21 440.5 -136t148.5 -301q0 -88 -33 -163.5t-93.5 -137.5t-145.5 -110t-189.5 -81t-225 -49.5t-252.5 -16.5z
" />
    <glyph glyph-name="six" unicode="6" horiz-adv-x="1123" 
d="M763 471q-2 118 -50 183t-135 65q-109 0 -179.5 -103.5t-70.5 -266.5q0 -129 46.5 -204.5t131.5 -75.5q111 0 184 111.5t73 290.5zM1051 504q0 -238 -155 -384t-386 -146q-216 0 -334 116t-118 328q0 393 285 671.5t766 303.5l5 -91q-532 -63 -715 -578l4 -1
q123 131 305 131q147 0 245 -92t98 -258z" />
    <glyph glyph-name="seven" unicode="7" horiz-adv-x="967" 
d="M13 -403l778 1068h-591l-100 -204l-65 -7l72 466l8 8q170 -4 440 -4h55q279 0 411 4l-25 -153q-433 -589 -717 -1175l-262 -10z" />
    <glyph glyph-name="eight" unicode="8" horiz-adv-x="1095" 
d="M376 685q-153 123 -153 296q0 162 131.5 276.5t339.5 114.5q181 0 288.5 -80t107.5 -205q0 -102 -76.5 -182t-225.5 -143q126 -85 185 -168t59 -184q0 -184 -160 -310t-387 -126q-213 0 -335.5 93.5t-122.5 247.5q0 122 86 209.5t263 160.5zM451 628q-158 -83 -158 -297
q0 -123 60.5 -192t161.5 -69q97 0 162 58.5t65 156.5q0 91 -62.5 164.5t-228.5 178.5zM704 818q137 76 137 256q0 98 -48 152t-131 54t-134.5 -50.5t-51.5 -134.5q0 -72 54 -136t174 -141z" />
    <glyph glyph-name="nine" unicode="9" horiz-adv-x="1119" 
d="M349 452q0 -118 49 -183t133 -65q103 0 178 96.5t75 273.5q0 129 -46.5 204.5t-131.5 75.5q-111 0 -184 -112.5t-73 -289.5zM61 422q0 233 155.5 380t385.5 147q216 0 334 -115.5t118 -328.5q0 -382 -278 -665t-773 -310l-5 91q530 62 715 578l-4 1q-122 -131 -305 -131
q-144 0 -243.5 91.5t-99.5 261.5z" />
    <glyph glyph-name="colon" unicode=":" horiz-adv-x="586" 
d="M252 285q66 0 109 -42.5t43 -112.5q0 -69 -43 -113t-109 -44q-69 0 -111.5 44t-42.5 113q0 70 42.5 112.5t111.5 42.5zM377 938q66 0 109 -42.5t43 -112.5q0 -69 -43 -113t-109 -44q-69 0 -111.5 44t-42.5 113q0 70 42.5 112.5t111.5 42.5z" />
    <glyph glyph-name="semicolon" unicode=";" horiz-adv-x="524" 
d="M377 938q66 0 109 -42.5t43 -112.5q0 -69 -43 -113t-109 -44q-69 0 -111.5 44t-42.5 113q0 70 42.5 112.5t111.5 42.5zM17 -270q203 141 203 288q0 103 -111 163q5 69 52 110.5t109 41.5q69 0 110.5 -47t41.5 -128q0 -258 -361 -487z" />
    <glyph glyph-name="less" unicode="&#x3c;" 
d="M73 532l964 400v-147l-794 -324l794 -323v-147l-964 400v141z" />
    <glyph glyph-name="equal" unicode="=" 
d="M73 712h964v-141h-964v141zM73 352h964v-141h-964v141z" />
    <glyph glyph-name="greater" unicode="&#x3e;" 
d="M1037 391l-964 -400v147l796 323l-796 324v147l964 -400v-141z" />
    <glyph glyph-name="question" unicode="?" horiz-adv-x="930" 
d="M284 1332q199 59 343 59q158 0 254.5 -72.5t96.5 -192.5q0 -65 -23 -118.5t-63 -99t-91 -87t-107 -83.5q-52 -39 -92 -69.5t-67.5 -58t-42 -53.5t-14.5 -55q0 -38 25 -80l-51 -32q-61 51 -109.5 125t-48.5 125q0 34 14.5 63.5t41.5 59.5t66.5 61t90.5 68q48 35 90.5 64.5
t74.5 60.5t49.5 66.5t17.5 83.5q0 59 -42 94.5t-106 35.5q-76 0 -149 -27l-102 -229l-50 -7l-14 290zM375 276q64 0 106 -41.5t42 -109.5q0 -67 -44 -109.5t-108 -42.5q-67 0 -108 42.5t-41 109.5q0 68 43 109.5t110 41.5z" />
    <glyph glyph-name="at" unicode="@" horiz-adv-x="1805" 
d="M1131 39q-75 0 -124.5 34.5t-61.5 104.5q-159 -135 -241 -135q-55 0 -99 22.5t-75 61.5t-48 93t-17 117q0 112 38.5 210.5t106 171.5t159 115t198.5 42q78 0 189 -32q76 6 162 28l12 -7q-15 -50 -32 -123t-37 -171l-63 -306q-6 -29 -6 -47q0 -70 57 -70q39 0 85 35.5
t86 100.5t66.5 156t26.5 202q0 108 -36.5 197t-101 152.5t-153.5 98t-194 34.5q-107 0 -200.5 -29.5t-171.5 -83t-139 -126.5t-103.5 -160.5t-65 -185t-22.5 -199.5q0 -129 42 -235.5t118.5 -182t183.5 -117t237 -41.5q104 0 193.5 18.5t165 50.5t138 74.5t113.5 91.5
l45 -57q-80 -74 -158.5 -129.5t-166 -93t-188 -56.5t-223.5 -19q-161 0 -294 47t-228.5 134t-148.5 209t-53 272q0 118 30 231t87 214t139 186t186.5 146.5t229.5 96t268 34.5q94 0 180 -20.5t159.5 -58t134 -90t103 -116.5t65.5 -137t23 -152q0 -133 -49 -243.5t-130 -190
t-184.5 -123.5t-212.5 -44zM1049 759q-46 31 -94 31q-104 0 -165 -133q-62 -135 -62 -274q0 -97 20 -150.5t65 -53.5q48 0 134 82z" />
    <glyph glyph-name="A" unicode="A" horiz-adv-x="1367" 
d="M324 50l-9 -53q-136 3 -248 3t-213 -3l6 51l111 31q48 17 74.5 48t46.5 64l718 1213l110 17l209 -1215q6 -34 12.5 -57.5t14.5 -36.5q16 -26 51 -36l106 -28l-7 -51q-163 3 -308 3q-141 0 -315 -3l5 51l97 28q21 7 34.5 18t13.5 43q0 31 -15 120l-30 186h-415l-105 -183
q-32 -57 -52 -96t-20 -56q0 -20 34 -31zM431 546h340l-59 368l-13 106l-57 -105z" />
    <glyph glyph-name="B" unicode="B" horiz-adv-x="1300" 
d="M259 1400q171 -4 309 -4q42 0 128.5 5t121.5 5q224 0 338.5 -77t114.5 -209q0 -293 -355 -363q298 -82 298 -311q0 -217 -175.5 -334.5t-465.5 -117.5q-52 0 -117.5 3t-161.5 3q-128 0 -290 -3l5 51l135 37q27 8 34 31q8 40 18 89.5t22 109.5l152 795q10 51 17 92t12 74
q5 25 -17 34l-131 39zM586 695l-114 -596q44 -14 117 -14q146 0 226 87.5t80 255.5q0 131 -58 201t-168 70q-47 0 -83 -4zM604 787q34 -2 75 -2q142 0 214.5 76.5t72.5 231.5q0 105 -50.5 161.5t-149.5 56.5q-31 0 -64 -5z" />
    <glyph glyph-name="C" unicode="C" horiz-adv-x="1356" 
d="M1285 1022l-56 -9l-32 287q-68 24 -161 24q-258 0 -429.5 -217t-171.5 -522q0 -227 126 -356.5t344 -129.5q138 0 285 60l21 -59q-215 -130 -469 -130q-285 0 -455.5 161.5t-170.5 430.5q0 378 266.5 619.5t668.5 241.5q174 0 352 -41l4 -10z" />
    <glyph glyph-name="D" unicode="D" horiz-adv-x="1627" 
d="M295 0q-149 0 -291 -3l6 51l135 37q30 8 34 31q8 40 18 89.5t22 109.5l151 795q10 51 17 92t12 74q5 25 -17 34l-131 39l8 51q153 -4 304 -4q64 0 159 5t168 5q321 0 500 -136t179 -403q0 -384 -263 -628.5t-685 -244.5q-77 0 -141 3t-185 3zM474 99q75 -12 143 -12
q296 0 466.5 213t170.5 568q0 226 -92.5 333.5t-283.5 107.5q-75 0 -175 -8z" />
    <glyph glyph-name="E" unicode="E" horiz-adv-x="1223" 
d="M567 1396h196q239 0 508 4l5 -8l-115 -333l-56 -8l-28 244h-375l-101 -533h43q72 0 200 1q28 1 39 27l62 137l62 2q-50 -218 -83 -426l-62 -4l-11 138q-2 26 -25 27q-88 2 -203 2h-42l-65 -342q-21 -111 -40 -221h408l168 266l63 9l-86 -374l-8 -7q-268 3 -503 3h-223
q-150 0 -292 -3l6 51l135 37q27 7 34 31q8 40 18 89.5t22 109.5l152 795q10 51 17 92t12 74q5 26 -17 34l-132 39l8 51q152 -4 309 -4z" />
    <glyph glyph-name="F" unicode="F" horiz-adv-x="1141" 
d="M514 315q-12 -60 -21 -109t-15 -89q-3 -25 28 -34l132 -35l-8 -51q-180 3 -326 3q-159 0 -301 -3l6 51l135 37q27 7 34 31q8 40 18 89.5t22 109.5l152 795q10 51 17 92t12 74q5 26 -17 34l-132 39l8 51q152 -4 309 -4h198q239 0 508 4l5 -8l-115 -333l-56 -8l-28 244
h-377l-105 -555h50q72 0 200 1q28 1 39 27l62 137l62 2q-50 -218 -83 -426l-62 -4l-11 138q-2 26 -25 27q-88 2 -203 2h-49z" />
    <glyph glyph-name="G" unicode="G" horiz-adv-x="1489" 
d="M1316 1031l-58 -8l-28 275q-82 28 -197 28q-265 0 -433 -217.5t-168 -519.5q0 -227 111 -375t292 -148q42 0 85 7l50 267q11 51 18 91.5t13 74.5q4 27 -18 34l-121 39l7 43q82 -2 157.5 -3t145.5 -1q74 0 143.5 1t135.5 3l-4 -43l-110 -33q-29 -8 -33 -30
q-9 -40 -17 -81.5t-18 -90.5l-61 -317l-8 -7q-213 -50 -404 -50q-320 0 -501 154t-181 431q0 385 267.5 626.5t691.5 241.5q158 0 356 -41l5 -9z" />
    <glyph glyph-name="H" unicode="H" horiz-adv-x="1695" 
d="M585 686l-71 -371q-22 -118 -34 -198q-4 -27 20 -34l117 -35l-9 -51q-160 3 -291 3q-148 0 -313 -3l6 51l135 37q29 8 34 31q18 80 40 198l151 795q19 100 29 167q5 26 -17 34l-131 39l9 51q175 -4 318 -4q136 0 292 4l-6 -52l-130 -35q-26 -6 -32 -31q-16 -72 -35 -169
l-61 -321h602l61 322q19 97 31 169q4 25 -20 31l-117 35l9 51q163 -4 297 -4q146 0 316 4l-6 -51l-150 -39q-24 -8 -30 -34q-15 -66 -34 -166l-151 -795q-21 -118 -35 -199q-3 -23 20 -31l129 -37l-9 -51q-178 3 -321 3q-137 0 -286 -3l6 51l127 35q27 7 33 34q18 80 40 198
l70 371h-603z" />
    <glyph glyph-name="I" unicode="I" horiz-adv-x="796" 
d="M514 315q-12 -60 -21 -109t-15 -89q-3 -25 28 -34l122 -35l-8 -51q-170 3 -308 3q-148 0 -307 -3l4 51l135 37q28 8 34 31q9 39 18.5 89t21.5 110l153 795q10 51 17 92t12 74q5 27 -17 34l-131 39l9 51q85 -2 163 -3t150 -1t147 1t156 3l-7 -51l-137 -37q-25 -6 -31 -31
q-9 -35 -17 -76.5t-18 -90.5z" />
    <glyph glyph-name="J" unicode="J" horiz-adv-x="741" 
d="M245 1400q85 -2 161 -3t143 -1q76 0 153 1t158 3l-6 -51l-137 -37q-25 -6 -32 -31q-8 -35 -16.5 -76.5t-17.5 -90.5l-165 -873q-55 -291 -188.5 -446.5t-504.5 -229.5l-14 64q205 91 281 209.5t117 333.5l178 938q9 51 16.5 92t12.5 74q5 26 -18 34l-131 39z" />
    <glyph glyph-name="K" unicode="K" horiz-adv-x="1522" 
d="M608 701l484 448q67 62 99 98.5t32 55.5q0 15 -21 21l-79 22l8 54q104 -4 228 -4q127 0 233 4l-6 -51l-103 -32q-42 -13 -80.5 -37.5t-99.5 -81.5l-427 -401l338 -606q31 -55 56.5 -81.5t71.5 -39.5l78 -22l-7 -51q-118 3 -243 3q-93 0 -189 -2q-11 36 -44 103t-89 168z
M514 315q-12 -60 -21 -109t-15 -89q-3 -25 28 -34l112 -35l-8 -51q-161 3 -298 3q-148 0 -307 -3l4 51l135 37q28 7 34 31q9 39 18.5 89t21.5 110l153 795q10 51 17 92t12 74q4 27 -17 34l-131 39l9 51q161 -4 313 -4t293 4l-7 -51l-127 -37q-25 -6 -31 -31
q-9 -35 -17 -76.5t-18 -90.5z" />
    <glyph glyph-name="L" unicode="L" horiz-adv-x="1176" 
d="M666 1114l-150 -791q-21 -111 -40 -220h401l183 287l63 9l-91 -395l-7 -7q-227 3 -458 3h-253q-149 0 -310 -3l6 51l135 37q28 7 34 31q8 40 18 89.5t22 109.5l151 795q10 51 17 92t12 74q5 26 -17 34l-131 39l9 51q171 -4 315 -4q141 0 301 4l-7 -51l-137 -37
q-25 -6 -31 -31q-9 -35 -22 -102t-13 -65z" />
    <glyph glyph-name="M" unicode="M" horiz-adv-x="1906" 
d="M1511 1400q115 -4 210 -4q98 0 269 4l-6 -51l-143 -39q-25 -8 -31 -34q-15 -66 -34 -166l-151 -795q-22 -118 -36 -199q-3 -23 21 -31l125 -37l-9 -51q-170 3 -314 3t-283 -3l6 51l120 35q26 7 33 35q17 79 39 197l158 805l-676 -1120l-94 -8l-242 1120l-151 -797
q-22 -118 -35 -197q-5 -28 19 -35l115 -35l-8 -51q-134 3 -217 3q-75 0 -221 -3l6 51l139 37q29 8 34 31q18 81 40 199l151 795q19 100 29 166q5 26 -17 34l-127 39l8 51q173 -4 267 -4q102 0 199 4l189 -873q12 -60 22 -116q31 54 62 106z" />
    <glyph glyph-name="N" unicode="N" horiz-adv-x="1474" 
d="M230 1349l7 51q70 -2 123 -3t90 -1q25 0 49 1t49 3l520 -851q28 -53 60 -111l27 147l100 530q10 49 17.5 90.5t12.5 76.5q3 22 -20 30l-122 35l8 53q69 -2 124.5 -3t98.5 -1q45 0 100 1t124 3l-5 -51l-144 -39q-24 -8 -30 -33q-8 -33 -16.5 -74t-18.5 -92l-211 -1111
l-108 -11l-553 904q-26 46 -60 111q-7 -39 -13 -74t-12 -66l-101 -550q-11 -60 -19.5 -108.5t-15.5 -86.5q-5 -29 19 -35l121 -35l-7 -52q-134 3 -219 3q-87 0 -226 -3l4 50l142 37q27 8 32 31q9 41 19 90t21 109l148 797q9 51 16.5 92t12.5 74q4 25 -18 33z" />
    <glyph glyph-name="O" unicode="O" horiz-adv-x="1679" 
d="M764 -35q-293 0 -470.5 156t-177.5 432q0 368 248.5 621.5t615.5 253.5q294 0 472 -155t178 -433q0 -371 -248.5 -623t-617.5 -252zM1307 873q0 216 -96 338t-259 122q-237 0 -375.5 -231.5t-138.5 -580.5q0 -214 95 -337.5t260 -123.5q237 0 375.5 230t138.5 583z" />
    <glyph glyph-name="P" unicode="P" horiz-adv-x="1262" 
d="M585 682q36 -12 92 -12q147 0 233.5 96t86.5 273q0 126 -62 197t-162 71q-36 0 -70 -8zM10 48l135 37q29 8 34 31q8 40 18 89.5t22 109.5l151 795q10 51 17 92t12 74q4 25 -17 34l-131 39l9 51q75 -2 150 -3t151 -1q60 0 130 4t112 4q239 0 373.5 -90.5t134.5 -267.5
q0 -216 -172 -343t-428 -127q-75 0 -144 12l-52 -273q-11 -60 -19.5 -109t-15.5 -87q-3 -23 20 -31l144 -40l-9 -51q-188 3 -329 3q-143 0 -302 -3z" />
    <glyph glyph-name="Q" unicode="Q" horiz-adv-x="1680" 
d="M1475 -182l15 -58q-248 -215 -381 -215q-358 0 -436 424q-240 20 -398.5 170t-158.5 414q0 368 248.5 621.5t615.5 253.5q294 0 472 -155t178 -433q0 -364 -234.5 -608t-562.5 -264q61 -196 383 -206q139 0 259 56zM1307 873q0 216 -96 338t-259 122
q-237 0 -375.5 -231.5t-138.5 -580.5q0 -214 95 -337.5t260 -123.5q237 0 375.5 230t138.5 583z" />
    <glyph glyph-name="R" unicode="R" horiz-adv-x="1407" 
d="M259 1400q81 -2 162.5 -3t146.5 -1q31 0 116.5 4.5t124.5 4.5q240 0 361.5 -79t121.5 -236q0 -287 -366 -402q14 -26 28.5 -58t25.5 -58q11 -27 22.5 -54.5t22.5 -55.5q21 -54 42.5 -104.5t44.5 -104.5q19 -45 38.5 -80.5t45 -61.5t61.5 -43t90 -24l-6 -51
q-88 -9 -167 -9q-72 0 -125.5 7t-93 27.5t-69 57.5t-54.5 96q-19 45 -37 91t-35 97q-20 55 -42.5 118t-47.5 124q-6 17 -15.5 30t-32.5 15l-44 3l-64 -335q-11 -60 -20 -108t-15 -87q-4 -31 19 -39l114 -33l-7 -51q-75 2 -149 2.5t-145 0.5q-74 0 -153 -0.5t-154 -2.5l5 51
l135 37q26 7 34 31q8 40 18.5 89.5t21.5 109.5l153 795q10 51 17 91.5t12 74.5q4 27 -17 34l-131 39zM595 738q20 -4 42 -4q336 0 336 334q0 118 -55 179.5t-158 61.5q-30 0 -57 -5z" />
    <glyph glyph-name="S" unicode="S" horiz-adv-x="1118" 
d="M941 1306q-66 21 -142 21q-141 0 -235 -66.5t-92 -181.5q1 -53 24.5 -92.5t60 -71t82 -57.5t92.5 -53q59 -34 114 -70.5t97 -82.5t67.5 -104.5t25.5 -136.5q0 -210 -183 -327t-452 -117q-173 0 -359 54l-4 9l106 363l64 10l27 -309q79 -28 168 -28q148 0 247 69t99 185
q0 55 -23 96t-60 73t-83 57.5t-92 51.5q-51 28 -104.5 61.5t-97 79.5t-71 106.5t-27.5 143.5q0 205 166.5 319.5t444.5 114.5q172 0 337 -45l4 -9l-112 -324l-57 -9z" />
    <glyph glyph-name="T" unicode="T" horiz-adv-x="1266" 
d="M352 1294l-143 -268l-57 -9l41 375l9 8q125 -2 240.5 -3t226.5 -1h276q115 0 234.5 1t245.5 3l4 -8l-131 -366l-57 -9l-13 277h-292l-186 -975q-11 -60 -20.5 -109t-15.5 -89q-3 -25 28 -34l136 -39l-8 -51q-185 3 -323 3q-148 0 -322 -3l4 51l151 41q28 7 34 31
q9 39 19 89t21 110l187 975h-289z" />
    <glyph glyph-name="U" unicode="U" horiz-adv-x="1503" 
d="M221 1400q85 -2 158.5 -3t142.5 -1q72 0 145.5 1t151.5 3l-6 -51l-124 -37q-23 -6 -29 -31q-7 -35 -14.5 -76.5t-16.5 -90.5l-97 -517q-23 -124 -23 -208q0 -147 69 -225.5t204 -78.5q91 0 155 35t108 95t71.5 141.5t46.5 174.5l110 583q9 49 16 90.5t13 76.5
q3 25 -20 31l-124 34l8 54q72 -2 128.5 -3t101.5 -1q46 0 102 1t125 3l-6 -51l-139 -39q-25 -7 -31 -34q-7 -33 -15 -74t-18 -92l-97 -505q-30 -152 -73.5 -271t-113 -200.5t-172 -124t-250.5 -42.5q-236 0 -365.5 111.5t-129.5 327.5q0 81 18 173l101 531q10 51 17 92
t13 74q5 26 -18 34l-131 39z" />
    <glyph glyph-name="V" unicode="V" horiz-adv-x="1358" 
d="M749 396l422 740q32 57 52 96t20 56q0 20 -34 31l-94 27l9 53q136 -3 248 -3t213 3l-6 -51l-111 -31q-48 -17 -74.5 -48t-46.5 -64l-715 -1209l-106 -8l-209 1202q-6 34 -12.5 57.5t-14.5 36.5q-16 26 -51 36l-106 28l7 51q163 -3 308 -3q140 0 314 3l-5 -51l-97 -28
q-21 -7 -34.5 -18t-13.5 -43q0 -31 15 -120z" />
    <glyph glyph-name="W" unicode="W" horiz-adv-x="1975" 
d="M1729 1399q69 -2 127 -2.5t115 -0.5t113.5 0.5t107.5 2.5l-6 -51l-111 -31q-25 -7 -43 -19t-31.5 -27t-24 -32t-19.5 -34l-636 -1206l-122 -11l-108 813l-12 117l-60 -117l-432 -802l-117 -11l-159 1202q-4 28 -7.5 49.5t-11 37.5t-21 26.5t-37.5 16.5l-106 28l7 51
q82 -2 161 -2.5t152 -0.5q138 0 312 3l-5 -51l-97 -28q-21 -7 -34.5 -18t-13.5 -43q0 -16 3 -46t8 -74l70 -568l12 -127l65 127l444 830l102 9l104 -838l13 -128l62 128l288 563q30 59 48.5 97.5t18.5 55.5q0 21 -34 31l-94 27z" />
    <glyph glyph-name="X" unicode="X" horiz-adv-x="1371" 
d="M-87 48l107 31q41 12 72.5 39t66.5 68l433 497l-252 541q-9 20 -17.5 36t-19 28t-23.5 20.5t-31 13.5l-94 27l8 51q68 -2 144 -3t163 -1q78 0 155 1t161 3l-5 -51l-86 -25q-49 -13 -49 -52q0 -33 36 -109l132 -282l258 302q21 25 34 42t20 29t9 20t2 16q0 23 -33 32
l-83 24l7 54q58 -2 117.5 -3t122.5 -1q61 0 117 1t107 3l-5 -51l-108 -32q-47 -14 -79.5 -45t-69.5 -74l-367 -421l274 -588q12 -26 21.5 -45t19.5 -32.5t23.5 -22t33.5 -14.5l95 -27l-8 -51q-134 3 -285 3q-156 0 -339 -3l6 51l90 25q43 12 43 55q0 29 -36 106l-161 346
l-314 -368q-20 -23 -32 -39t-19.5 -28t-10 -20.5t-2.5 -16.5q0 -24 38 -35l77 -23l-8 -53q-116 3 -240 3q-110 0 -221 -3z" />
    <glyph glyph-name="Y" unicode="Y" horiz-adv-x="1261" 
d="M1055 1141q35 48 60.5 86.5t25.5 59.5q0 25 -37 35l-88 24l7 54q121 -4 239 -4q113 0 227 4l-5 -51l-118 -32q-39 -11 -62.5 -35t-50.5 -59l-428 -583l-63 -325q-12 -60 -20.5 -109t-15.5 -89q-3 -25 28 -34l122 -35l-9 -51q-170 3 -312 3q-143 0 -302 -3l5 51l135 37
q27 7 34 31q8 40 18 89.5t22 109.5l59 313l-222 567q-26 61 -44 88t-55 38l-101 28l5 51q123 -4 306 -4q146 0 320 4l-2 -51l-100 -26q-23 -5 -35 -17t-12 -33q0 -27 33 -110l157 -410z" />
    <glyph glyph-name="Z" unicode="Z" horiz-adv-x="1228" 
d="M-22 -3l4 50l949 1248h-501l-109 -243l-57 -8l6 348l8 8q254 -4 476 -4h253q163 0 308 4l-5 -51l-948 -1246h534l187 292l60 9l-94 -400l-7 -7q-303 3 -523 3h-278q-140 0 -263 -3z" />
    <glyph glyph-name="bracketleft" unicode="[" horiz-adv-x="728" 
d="M239 -248l235 -57l-9 -51h-427l391 1905h425l-8 -51l-261 -57z" />
    <glyph glyph-name="backslash" unicode="\" horiz-adv-x="825" 
d="M597 -226l-390 1652h140l390 -1652h-140z" />
    <glyph glyph-name="bracketright" unicode="]" horiz-adv-x="728" 
d="M537 1441l-235 57l8 51h427l-391 -1905h-425l9 51l261 57z" />
    <glyph glyph-name="asciicircum" unicode="^" 
d="M666 1396l390 -834h-149l-314 678l-313 -678h-145l390 834h141z" />
    <glyph glyph-name="underscore" unicode="_" horiz-adv-x="1024" 
d="M944 -268h-1024v90h1024v-90z" />
    <glyph glyph-name="grave" unicode="`" horiz-adv-x="840" 
d="M577 1044h-84l-198 378h232zM0 944z" />
    <glyph glyph-name="a" unicode="a" horiz-adv-x="1185" 
d="M1093 931q-37 -122 -75 -312l-90 -445q-5 -23 -5 -38q0 -21 8.5 -33.5t27 -20t48 -9.5t72.5 -2l-7 -47q-175 -42 -264 -42q-75 0 -117.5 33.5t-42.5 96.5v20q-181 -159 -261 -159q-136 0 -226 104.5t-90 265.5q0 253 172.5 427t435.5 174q116 0 250 -37q74 13 147 35z
M784 827q-54 25 -123 25q-131 0 -216 -150t-85 -322q0 -101 31.5 -177.5t72.5 -76.5q56 0 198 107z" />
    <glyph glyph-name="b" unicode="b" horiz-adv-x="1178" 
d="M656 1506l12 -12q-9 -38 -20 -86.5t-23.5 -106t-26 -122.5t-28.5 -134l-44 -212q217 109 286 109q124 0 204.5 -102t80.5 -241q0 -284 -180 -455t-467 -171q-176 0 -366 65q30 116 77 348l97 476l101 490l-166 24l1 43q263 41 462 87zM372 82q48 -12 91 -12
q154 0 248.5 144t94.5 334q0 107 -29.5 176.5t-92.5 69.5q-74 0 -178 -57z" />
    <glyph glyph-name="c" unicode="c" horiz-adv-x="1002" 
d="M817 200l34 -50q-172 -177 -390 -177q-168 0 -277.5 104.5t-109.5 284.5q0 247 182 414t433 167q141 0 267 -46q-37 -145 -65 -295l-50 -8l-77 242q-27 8 -61 8q-151 0 -244 -130.5t-93 -320.5q0 -133 58.5 -206.5t158.5 -73.5q109 0 234 87z" />
    <glyph glyph-name="d" unicode="d" horiz-adv-x="1190" 
d="M732 1376l1 43q266 41 465 87l12 -12q-9 -38 -20 -86.5t-23.5 -106t-26 -122.5t-28.5 -134l-116 -559l-63 -312q-5 -23 -5 -38q0 -21 8.5 -33.5t27 -20t48 -9.5t72.5 -2l-7 -47q-175 -42 -264 -42q-75 0 -117 33.5t-42 96.5v20q-185 -159 -267 -159q-136 0 -226 104.5
t-90 265.5q0 253 171.5 427t433.5 174q64 0 136 -11l86 419zM790 827q-59 25 -132 25q-130 0 -214 -150t-84 -322q0 -101 31.5 -177.5t72.5 -76.5q58 0 204 107z" />
    <glyph glyph-name="e" unicode="e" horiz-adv-x="1053" 
d="M867 192l34 -50q-191 -167 -424 -167q-182 0 -294 99t-112 271q0 255 182 427t441 172q144 0 222 -52.5t78 -152.5q0 -125 -160 -208.5t-472 -98.5q-2 -24 -2 -45q0 -135 55 -205.5t165 -70.5q142 0 287 81zM370 512q346 32 346 223q0 53 -24.5 79.5t-62.5 26.5
q-82 0 -156 -91.5t-103 -237.5z" />
    <glyph glyph-name="f" unicode="f" horiz-adv-x="729" 
d="M254 810l-148 39l3 43l162 15q62 290 224.5 445t381.5 155q102 0 199 -29q-41 -137 -72 -287l-56 -9l-53 225q-20 5 -52 5q-91 0 -158 -85.5t-116 -337.5l-16 -81h262l-20 -105h-261l-154 -738q-62 -293 -177 -427t-317 -134q-78 0 -181 21q23 110 50 210l14 4
q114 -131 169 -131q56 0 94 80q19 40 36.5 110t36.5 176z" />
    <glyph glyph-name="g" unicode="g" horiz-adv-x="1170" 
d="M1082 942l17 -11q-37 -118 -75 -308l-93 -451q-70 -341 -216 -507t-391 -166q-168 0 -348 55q32 137 70 252l14 6q256 -198 332 -198q85 0 137.5 101t99.5 325l19 94q-175 -151 -258 -151q-136 0 -227 103t-91 263q0 251 172 423t433 172q128 0 258 -37q76 14 147 35z
M792 827q-56 25 -133 25q-129 0 -213.5 -148.5t-84.5 -316.5q0 -97 31.5 -174t74.5 -77q57 0 203 107z" />
    <glyph glyph-name="h" unicode="h" horiz-adv-x="1252" 
d="M81 -5l278 1357l-166 24l1 43q266 41 465 87l12 -12q-9 -38 -20 -86.5t-23.5 -106t-26 -122.5t-28.5 -134l-45 -219q196 117 358 117q109 0 169.5 -57.5t60.5 -155.5q0 -43 -11 -92l-100 -474q-2 -8 -3 -15.5t-1 -14.5q0 -21 10 -33t29.5 -17.5t48.5 -7t66 -1.5l-4 -46
q-150 -47 -275 -47q-78 0 -117.5 29t-39.5 95q0 31 8 72l90 418q11 52 11 87q0 60 -27 88.5t-78 28.5q-78 0 -214 -64l-150 -731z" />
    <glyph glyph-name="i" unicode="i" horiz-adv-x="661" 
d="M109 896q179 46 291 46q67 0 104.5 -23.5t37.5 -73.5q0 -21 -4 -41l-131 -630q-5 -26 -5 -38q0 -40 33 -52.5t122 -12.5l-6 -47q-171 -42 -276 -42q-74 0 -115.5 29t-41.5 88q0 28 8 70l120 580q8 40 8 52q0 27 -23 38t-128 11zM612 1294q0 -68 -42 -110.5t-105 -42.5
q-61 0 -101 40t-40 102q0 70 42 110.5t106 40.5q61 0 100.5 -37.5t39.5 -102.5z" />
    <glyph glyph-name="j" unicode="j" horiz-adv-x="640" 
d="M107 850l6 46q179 46 291 46q67 0 104.5 -23.5t37.5 -73.5q0 -21 -4 -41l-141 -681q-38 -187 -153.5 -324t-408.5 -308l-47 55q209 194 252.5 301t73.5 253l132 649q8 40 8 52q0 27 -23 38t-128 11zM616 1294q0 -68 -42 -110.5t-105 -42.5q-61 0 -101 40t-40 102
q0 70 42 110.5t106 40.5q61 0 100.5 -37.5t39.5 -102.5z" />
    <glyph glyph-name="k" unicode="k" horiz-adv-x="1182" 
d="M198 1376l1 43q265 40 465 87l12 -12q-18 -75 -43 -192.5t-55 -256.5l-214 -1040l-279 -10l279 1357zM1115 -3q-131 3 -254 3q-76 0 -137 -2q-37 106 -96 226.5t-144 266.5q172 152 272 256.5t138 171.5q31 -1 82 -1q115 0 232 3l-5 -50q-49 -8 -89 -18.5t-74.5 -24.5
t-65.5 -34.5t-64 -50.5l-173 -160l220 -409q20 -38 34.5 -59t31 -33.5t39.5 -19.5t62 -16z" />
    <glyph glyph-name="l" unicode="l" horiz-adv-x="653" 
d="M189 1376l1 43q266 41 465 87l12 -12q-9 -38 -20 -86.5t-23.5 -106t-26 -122.5t-28.5 -134l-179 -873q-4 -19 -4 -39q0 -32 26.5 -46.5t130.5 -15.5l-6 -47q-173 -42 -276 -42q-81 0 -120.5 30t-39.5 90q0 18 10 67l244 1183z" />
    <glyph glyph-name="m" unicode="m" horiz-adv-x="1859" 
d="M95 -5l155 755q8 40 8 53q0 17 -9.5 26.5t-28.5 14t-47.5 5.5t-65.5 1l6 46q178 46 273 46q69 0 111.5 -25t42.5 -74q0 -2 -0.5 -7t-1.5 -13q195 120 356 120q165 0 213 -130q215 130 386 130q109 0 169.5 -57.5t60.5 -155.5q0 -43 -11 -92l-100 -474q-2 -8 -3 -15.5
t-1 -14.5q0 -21 10 -33t29.5 -17.5t48.5 -7t66 -1.5l-4 -46q-150 -47 -275 -47q-78 0 -117.5 29t-39.5 95q0 31 8 72l90 418q11 52 11 87q0 60 -27 88.5t-78 28.5q-77 0 -210 -65q0 -44 -11 -97l-130 -633l-281 -10l123 601q11 55 11 87q0 60 -25.5 88.5t-76.5 28.5
q-76 0 -207 -64l-149 -731z" />
    <glyph glyph-name="n" unicode="n" horiz-adv-x="1267" 
d="M95 -5l155 755q8 40 8 53q0 18 -9.5 27t-28.5 13.5t-47.5 5.5t-65.5 1l6 46q180 46 273 46q69 0 111.5 -25t42.5 -74q0 -5 -2 -20q199 120 363 120q109 0 169.5 -57.5t60.5 -155.5q0 -43 -11 -92l-100 -474q-2 -8 -3 -15.5t-1 -14.5q0 -21 10 -33t29.5 -17.5t48.5 -7
t66 -1.5l-4 -46q-150 -47 -275 -47q-78 0 -117.5 29t-39.5 95q0 31 8 72l90 418q11 52 11 87q0 60 -27 88.5t-78 28.5q-78 0 -215 -64l-149 -731z" />
    <glyph glyph-name="o" unicode="o" horiz-adv-x="1201" 
d="M639 944q216 0 345 -112.5t129 -302.5q0 -240 -156.5 -398t-404.5 -158q-219 0 -346.5 112.5t-127.5 297.5q0 243 154 402t407 159zM627 841q-111 0 -184 -136.5t-72 -326.5q1 -142 51 -222t142 -80q114 0 184 140.5t70 323.5q0 142 -51 221.5t-140 79.5z" />
    <glyph glyph-name="p" unicode="p" horiz-adv-x="1190" 
d="M-134 -437l120 34q28 9 32 31q9 37 20.5 91.5t26.5 129.5l185 901q8 40 8 51q0 27 -23 38q-24 11 -128 11l6 46q174 46 285 46q66 0 102.5 -23t36.5 -74l-1 -12h2q215 109 288 109q120 0 201.5 -100.5t81.5 -242.5q0 -276 -175.5 -449.5t-456.5 -173.5q-52 0 -113 8
l-42 -208q-11 -51 -17.5 -85t-9.5 -55q-4 -30 20 -36l145 -37l-10 -49q-197 3 -300 3q-121 0 -290 -3zM383 77q43 -8 78 -8q166 0 261.5 144t95.5 335q0 109 -30 177.5t-92 68.5q-75 0 -178 -57z" />
    <glyph glyph-name="q" unicode="q" horiz-adv-x="1175" 
d="M378 -437l132 34q26 8 33 31q25 119 102 497q-178 -152 -258 -152q-136 0 -226 104.5t-90 265.5q0 253 171.5 427t433.5 174q124 0 258 -37q74 13 147 35l17 -11q-37 -122 -75 -312l-160 -782q-34 -165 -41 -207q-4 -27 17 -34l121 -33l-9 -49q-164 3 -283 3
q-122 0 -296 -3zM789 827q-58 25 -131 25q-130 0 -214 -150t-84 -322q0 -101 31.5 -177.5t72.5 -76.5q58 0 203 107z" />
    <glyph glyph-name="r" unicode="r" horiz-adv-x="901" 
d="M95 -5l155 755q8 43 8 53q0 17 -9.5 26.5t-28.5 14t-47.5 5.5t-65.5 1l6 46q178 46 273 46q69 0 111 -25t42 -74q0 -9 -1 -22q184 123 369 123l7 -9q-36 -157 -69 -330l-62 -10q-18 109 -44 148.5t-75 39.5q-53 0 -141 -44l-149 -734z" />
    <glyph glyph-name="s" unicode="s" horiz-adv-x="932" 
d="M702 830q-60 16 -110 16q-100 0 -154 -34.5t-54 -102.5q0 -29 15.5 -51t42 -40.5t60.5 -35t71 -33.5q43 -21 86.5 -45t77.5 -55.5t55.5 -73t21.5 -97.5q0 -146 -116 -225.5t-319 -79.5q-96 0 -190 18t-172 48q17 60 33 126t30 135l50 8l65 -216q72 -21 142 -21
q91 0 144 38t53 110q0 31 -16 54t-42 42t-60 35.5t-70 33.5q-41 19 -80.5 42t-71 54t-51 72t-19.5 96q0 140 123 217.5t329 77.5q158 0 304 -47q-15 -51 -30.5 -115t-29.5 -137l-49 -9z" />
    <glyph glyph-name="t" unicode="t" horiz-adv-x="848" 
d="M446 1154l165 29l12 -7q-46 -189 -63 -268h281l-20 -105h-285q-29 -128 -58.5 -259.5t-56.5 -264.5q-9 -45 -9 -78q0 -57 28 -80t79 -23q69 0 182 31l10 -65q-185 -90 -349 -90q-112 0 -174 46t-62 137q0 30 6 66q18 95 49.5 239t79.5 350l-142 37l3 43l176 16z" />
    <glyph glyph-name="u" unicode="u" horiz-adv-x="1266" 
d="M92 850l6 46q175 46 291 46q67 0 103.5 -23t36.5 -74q0 -24 -4 -41l-100 -454q-9 -44 -9 -81q0 -68 29.5 -105.5t80.5 -37.5q90 0 215 114l140 672l281 10l-153 -742q-6 -29 -6 -47q0 -20 7.5 -32t25.5 -18.5t47.5 -8.5t73.5 -3l-6 -47q-175 -42 -262 -42
q-75 0 -118.5 34.5t-43.5 98.5q0 9 1 19q-166 -162 -327 -162q-118 0 -189.5 70.5t-71.5 192.5q0 27 3.5 56t9.5 60l82 398q8 39 8 52q0 27 -24 38t-127 11z" />
    <glyph glyph-name="v" unicode="v" horiz-adv-x="1044" 
d="M449 -9l-137 -14q-20 156 -68 428t-86 379q-6 16 -14 28t-24.5 20.5t-46 13t-79.5 4.5l6 46q178 46 265 46q60 0 95 -15t52 -53q9 -21 19.5 -57.5t21 -81.5t20.5 -95.5t19 -98.5t16 -91t11 -74l13 -116q94 136 150.5 288.5t56.5 325.5q75 17 142.5 35.5t130.5 37.5
l18 -11q-1 -68 -32 -152t-81 -174t-112.5 -181t-126.5 -173t-124.5 -151t-104.5 -114z" />
    <glyph glyph-name="w" unicode="w" horiz-adv-x="1554" 
d="M968 -9l-137 -14q-17 112 -33.5 216.5t-35.5 209.5q-170 -259 -312 -412l-137 -14q-9 64 -18.5 124.5t-19.5 119.5t-20.5 118t-20.5 121q-5 30 -14 74t-19.5 90t-22 89t-21.5 71q-6 16 -13.5 28.5t-24.5 20.5t-46.5 12.5t-79.5 4.5l6 46q175 46 265 46q60 0 95 -15
t52 -53q9 -21 19.5 -57.5t21 -81.5t20.5 -95.5t19 -98.5t16 -91t11 -74l15 -116q116 152 198 304q-15 78 -32.5 157.5t-38.5 164.5q133 27 240 52l17 -6q61 -217 117 -556l16 -116q91 137 143 288.5t52 325.5q75 17 142.5 35.5t130.5 37.5l18 -11q-1 -68 -31.5 -152
t-79 -174t-109.5 -181t-124 -173.5t-121.5 -151t-102.5 -113.5z" />
    <glyph glyph-name="x" unicode="x" horiz-adv-x="1107" 
d="M96 896q170 46 270 46q37 0 62 -7.5t42.5 -21.5t30.5 -34.5t26 -46.5q20 -43 44 -92.5t50 -103.5q133 183 213.5 246t192.5 63q45 0 85 -5q-31 -106 -77 -226l-9 -4q-61 12 -105 12q-71 0 -121.5 -40.5t-127.5 -150.5q25 -52 49.5 -104t48 -101t44.5 -93.5t39 -81.5
q13 -27 26.5 -42.5t33 -24t47.5 -11t70 -3.5l-6 -46q-161 -42 -249 -42q-35 0 -62.5 5t-49 17.5t-39 34t-32.5 54.5q-15 31 -41.5 87t-58.5 124q-144 -208 -226.5 -267t-196.5 -59q-48 0 -84 9q28 109 67 225l10 5q63 -16 111 -16q80 0 138.5 51.5t129.5 159.5
q-30 62 -59 122.5t-53.5 111.5t-43 88t-26.5 52q-12 22 -26.5 34.5t-34 18.5t-45.5 7.5t-63 3.5z" />
    <glyph glyph-name="y" unicode="y" horiz-adv-x="1065" 
d="M772 874q148 41 269 77l22 -15q-39 -108 -80.5 -203t-84 -179t-85 -158.5t-82.5 -140.5q-42 -69 -78.5 -129.5t-68.5 -116.5q-26 -44 -53.5 -99.5t-54 -113t-48.5 -112t-37 -94.5q-12 -33 -29.5 -51.5t-42.5 -27.5t-59.5 -11t-80.5 -2q-125 0 -218 10l-5 51
q60 7 109.5 22t84.5 43q21 16 46.5 40.5t60 66.5t81 106.5t109.5 160.5l-56 13q-7 54 -22 126t-35 150t-43 157.5t-46 147.5t-44 119.5t-36 74.5q-16 24 -35 36.5t-41.5 18t-49 7t-56.5 2.5l6 46q171 46 266 46q54 0 96 -16t62 -52q15 -27 37 -79t45 -120.5t46.5 -148.5
t41.5 -163l19 -108q78 152 121.5 305.5t48.5 313.5z" />
    <glyph glyph-name="z" unicode="z" horiz-adv-x="1041" 
d="M0 30q192 234 319.5 398t304.5 399h-326l-83 -209l-51 -7l-19 301l6 10q203 -4 420 -4q226 0 437 4l3 -32q-166 -203 -315 -398.5t-301 -397.5h329l145 215l55 7l-58 -312l-9 -7q-181 3 -429 3q-252 0 -423 -3z" />
    <glyph glyph-name="braceleft" unicode="{" horiz-adv-x="722" 
d="M113 619q51 10 87 23.5t61 37t41 60t28 92.5l91 441q17 84 51 139.5t87 88t127.5 45.5t173.5 13l-10 -54q-73 -15 -115 -35.5t-66 -50t-35 -70.5t-23 -98l-66 -325q-13 -63 -31.5 -116t-49.5 -94t-77 -70.5t-113 -46.5l-2 -6q42 -13 71.5 -30.5t47.5 -40.5t26 -53.5
t8 -69.5q0 -28 -4 -61.5t-12 -71.5l-66 -323q-8 -38 -13.5 -68t-5.5 -55t7 -45t24.5 -35.5t47 -28t73.5 -22.5l-9 -54q-76 1 -138 8t-105.5 28t-67 59.5t-23.5 102.5q0 42 10 88l91 443q10 46 10 83q0 33 -9.5 54.5t-27.5 36t-43.5 23.5t-56.5 16z" />
    <glyph glyph-name="bar" unicode="|" horiz-adv-x="722" 
d="M462 1525v-2033h-142v2033h142z" />
    <glyph glyph-name="braceright" unicode="}" horiz-adv-x="723" 
d="M659 575q-51 -10 -87 -23.5t-61 -37t-41 -60t-28 -92.5l-91 -441q-17 -84 -51 -139.5t-87 -88t-127.5 -45.5t-173.5 -13l10 54q73 15 115 35.5t66 50t35 70.5t23 98l66 325q13 63 31.5 116t49.5 94t77 70.5t113 46.5l2 6q-42 13 -71.5 30.5t-47.5 40.5t-26 53.5t-8 69.5
q0 28 4 61.5t12 71.5l66 323q8 38 13.5 68t5.5 55t-7 45t-24.5 35.5t-47 28t-73.5 22.5l9 54q76 -1 138 -8t105.5 -28t67 -59.5t23.5 -102.5q0 -42 -10 -88l-91 -443q-10 -46 -10 -83q0 -33 9.5 -54.5t27.5 -36t43.5 -23.5t56.5 -16z" />
    <glyph glyph-name="asciitilde" unicode="~" 
d="M73 507q138 88 259 88q66 0 127.5 -20t122.5 -44q57 -23 111 -42t112 -19q98 0 232 87v-141q-130 -83 -251 -83q-66 0 -128.5 20t-123.5 44q-58 22 -112 40t-111 18q-100 0 -238 -89v141z" />
    <glyph glyph-name="exclamdown" unicode="&#xa1;" horiz-adv-x="564" 
d="M326 512l-81 -951l-314 -12l-8 8l324 951zM320 652q-64 0 -106 41.5t-42 109.5q0 67 44 109.5t108 42.5q67 0 108 -42.5t41 -109.5q0 -68 -43 -109.5t-110 -41.5z" />
    <glyph glyph-name="cent" unicode="&#xa2;" horiz-adv-x="929" 
d="M742 1085l-32 -146q119 -5 229 -45l-70 -295l-50 -8l-72 242q-28 8 -58 8l-155 -725q14 -2 32 -2q109 0 234 87l34 -50q-147 -152 -330 -173l-27 -129l-91 -8l28 134q-167 15 -262 123.5t-95 273.5q0 221 158 382t406 184l30 139zM451 148l146 680q-124 -42 -188 -160
t-64 -265q0 -177 106 -255z" />
    <glyph glyph-name="sterling" unicode="&#xa3;" horiz-adv-x="1083" 
d="M111 493l20 105h147l15 92q12 73 45.5 140.5t92 119.5t144 83.5t200.5 31.5q134 0 256 -39l4 -10l-99 -282l-46 -9l-27 226q-43 21 -99 21q-54 0 -91 -21.5t-62 -57.5t-40.5 -84.5t-24.5 -102.5l-19 -108h241l-20 -105h-240q-32 -183 -229 -310v-6h545l108 180l59 8
l-89 -361l-8 -7q-218 3 -467 3q-304 0 -474 -3l10 80q125 35 188.5 86t89.5 212l19 118h-149z" />
    <glyph glyph-name="currency" unicode="&#xa4;" horiz-adv-x="1142" 
d="M185 1197l153 -154q109 75 252 75q147 0 253 -75l154 154l100 -99l-155 -155q75 -111 75 -249t-77 -252l156 -156l-99 -100l-158 158q-113 -73 -249 -73q-142 0 -248 72l-157 -157l-99 100l155 155q-77 108 -77 253t74 250l-153 154zM312 694q0 -132 76.5 -217.5
t201.5 -85.5t202 86t77 217q0 133 -78 218.5t-201 85.5q-121 0 -199.5 -83.5t-78.5 -220.5z" />
    <glyph glyph-name="yen" unicode="&#xa5;" horiz-adv-x="1076" 
d="M157 470l18 95h197l-115 285q-13 32 -23 52t-20.5 33t-22.5 20t-27 13l-65 27l4 47q125 -3 258 -3q137 0 301 3l-2 -47l-92 -25q-22 -6 -33 -16t-11 -31q0 -13 6.5 -38.5t22.5 -64.5l89 -222l145 201q33 46 56 82t23 55q0 24 -35 33l-80 23l6 50q114 -3 225 -3
q97 0 183 3l-5 -47l-81 -31q-21 -8 -35.5 -16.5t-26 -18.5t-21.5 -22.5t-23 -30.5l-230 -311h202l-18 -95h-243l-22 -112h244l-19 -95h-244q-18 -90 -27 -153q-3 -23 26 -32l115 -33l-8 -48q-161 3 -294 3q-135 0 -283 -3l4 48l128 35q26 8 32 29q8 32 15.5 70t16.5 84h-250
l19 95h247l21 112h-248z" />
    <glyph glyph-name="brokenbar" unicode="&#xa6;" horiz-adv-x="742" 
d="M320 854v671h162v-671h-162zM320 -68v671h162v-671h-162z" />
    <glyph glyph-name="section" unicode="&#xa7;" horiz-adv-x="1171" 
d="M841 98q12 -44 12 -96q0 -160 -131.5 -251.5t-352.5 -91.5q-149 0 -349 43l-5 7l108 373l67 10l26 -312q101 -28 170 -28q104 0 165.5 43t61.5 125q0 47 -20.5 88t-54.5 80t-78 77t-91 79q-44 38 -91.5 77.5t-87.5 85.5t-66 100.5t-26 122.5q0 117 182 353q-11 47 -11 97
q0 161 132.5 252t351.5 91q165 0 349 -38l5 -7l-114 -333l-58 -8l-32 270q-86 23 -167 23q-104 0 -165.5 -43t-61.5 -125q0 -47 20.5 -88t54.5 -80t78 -77t91 -79q43 -38 91 -77.5t88 -85.5t66 -100.5t26 -122.5q0 -117 -183 -354zM791 212q27 44 27 84q0 43 -14 79
t-39.5 72t-65.5 74t-94 83q-93 77 -162 138.5t-112 126.5q-26 -42 -26 -83q0 -40 11 -73t35 -68.5t64.5 -75.5t101.5 -91q91 -77 161 -139t113 -127z" />
    <glyph glyph-name="dieresis" unicode="&#xa8;" horiz-adv-x="840" 
d="M497 1294q0 -64 -39 -102.5t-101 -38.5q-58 0 -95 36.5t-37 95.5q0 64 39 101.5t102 37.5q58 0 94.5 -34.5t36.5 -95.5zM913 1294q0 -64 -39 -102.5t-101 -38.5q-58 0 -95 36.5t-37 95.5q0 64 39 101.5t102 37.5q58 0 94.5 -34.5t36.5 -95.5zM0 944z" />
    <glyph glyph-name="copyright" unicode="&#xa9;" horiz-adv-x="1631" 
d="M851 1386q307 0 511 -201t204 -510q0 -296 -204 -494.5t-514 -198.5t-514.5 198.5t-204.5 499.5q0 308 207 507t515 199zM849 1291q-267 0 -433 -171t-166 -436q0 -266 167.5 -436.5t434.5 -170.5q262 0 428 168t166 434q0 271 -168 441.5t-429 170.5zM1109 781l-40 -6
l-56 211q-42 18 -89 18q-116 0 -179.5 -81.5t-63.5 -215.5q0 -145 84.5 -227t224.5 -82q81 0 170 42l12 -44q-136 -99 -303 -99q-183 0 -308 104t-125 280q0 186 135 290.5t348 104.5q114 0 234 -30l4 -7z" />
    <glyph glyph-name="ordfeminine" unicode="&#xaa;" horiz-adv-x="784" 
d="M94 402l19 91h635l-19 -91h-635zM409 746q44 0 110 49l69 340q-36 9 -63 9q-75 0 -125.5 -74.5t-50.5 -191.5q0 -60 16 -96t44 -36zM545 1212q72 0 152 -22l96 23l22 -15q-11 -34 -20.5 -79.5t-21.5 -101.5l-55 -257q-3 -14 -3 -21q0 -21 21.5 -24t74.5 -4l-5 -38
q-115 -30 -186 -30q-42 0 -74 19t-35 66q-99 -86 -174 -86q-84 0 -143.5 60.5t-59.5 158.5q0 152 111.5 251.5t299.5 99.5z" />
    <glyph glyph-name="guillemotleft" unicode="&#xab;" horiz-adv-x="1044" 
d="M430 61q-169 237 -340 390v37q210 157 424 391l53 -29q-88 -177 -251 -377q104 -194 168 -384zM850 61q-169 237 -340 390v37q210 157 424 391l53 -29q-88 -177 -251 -377q104 -194 168 -384z" />
    <glyph glyph-name="logicalnot" unicode="&#xac;" 
d="M73 532h964v-542h-141v401h-823v141z" />
    <glyph glyph-name="registered" unicode="&#xae;" horiz-adv-x="848" 
d="M536 1409q161 0 259 -93t98 -253q0 -163 -99.5 -259.5t-263.5 -96.5q-160 0 -257.5 96.5t-97.5 256.5q0 158 102.5 253.5t258.5 95.5zM531 1357q-125 0 -203.5 -79t-78.5 -217q0 -140 78 -221t206 -81q130 0 207.5 77.5t77.5 224.5q0 136 -79 216t-208 80zM490 1021v-44
t1 -36q1 -15 9 -17l40 -11l1 -19q-25 1 -47.5 1h-45.5h-54.5t-53.5 -1l-2 19l49 14q10 4 11 13q1 16 1 37v45v102v39t-1 31q-1 12 -12 15l-47 13l-1 21q26 -1 51 -1.5t50 -0.5q15 0 47.5 2t54.5 2q147 0 147 -88q0 -61 -79 -91q29 -43 47.5 -75.5t41.5 -54.5
q12 -12 21 -16.5t30 -8.5l2 -18q-28 -6 -60 -6q-28 0 -45 4.5t-32 16.5q-13 11 -32.5 43.5l-37.5 62.5q-11 22 -17 27t-20 5h-17v-25zM490 1080q9 -1 25 -1q80 0 80 66q0 34 -18 50t-58 16q-11 0 -29 -2v-129z" />
    <glyph glyph-name="macron" unicode="&#xaf;" horiz-adv-x="840" 
d="M277 1184l24 122h570l-24 -122h-570zM0 944z" />
    <glyph glyph-name="macron" unicode="&#x2c9;" horiz-adv-x="840" 
d="M277 1184l24 122h570l-24 -122h-570zM0 944z" />
    <glyph glyph-name="degree" unicode="&#xb0;" horiz-adv-x="702" 
d="M205 1095q0 -92 54.5 -146.5t141.5 -54.5q82 0 139 54.5t57 146.5q0 91 -56 147t-140 56q-87 0 -141.5 -56t-54.5 -147zM90 1094q0 134 90 223t221 89q137 0 224 -89t87 -221q0 -134 -88.5 -222t-222.5 -88q-131 0 -221 88t-90 220z" />
    <glyph glyph-name="plusminus" unicode="&#xb1;" 
d="M73 703h412v322h141v-322h411v-141h-411v-321h-141v321h-412v141zM73 141h964v-141h-964v141z" />
    <glyph glyph-name="uni00B2" unicode="&#xb2;" horiz-adv-x="738" 
d="M775 1281q0 -71 -34 -130t-98 -116.5t-156.5 -117.5t-210.5 -133v-4h364l74 112l39 6l-60 -234l-12 -8q-93 2 -297 2q-181 0 -302 -2l14 79q50 33 105.5 71t109 79.5t102 86.5t85.5 91.5t58.5 93.5t21.5 94q0 68 -41 104.5t-108 36.5q-45 0 -85.5 -13.5t-71.5 -27.5
l-23 57q66 35 126.5 56.5t135.5 21.5q120 0 192 -55.5t72 -149.5z" />
    <glyph glyph-name="uni00B3" unicode="&#xb3;" horiz-adv-x="738" 
d="M279 1119q147 13 217 53.5t70 116.5q0 48 -39 77.5t-102 29.5q-73 0 -166 -49l-23 58q64 39 133 60t152 21q110 0 178 -45.5t68 -118.5q0 -68 -62 -116.5t-175 -77.5v-4q102 -8 160.5 -54.5t58.5 -117.5q0 -77 -48.5 -135t-135.5 -98t-208 -60.5t-266 -20.5l8 63
q229 13 336.5 72.5t107.5 160.5q0 61 -49.5 96t-125.5 35q-40 0 -101 -10z" />
    <glyph glyph-name="acute" unicode="&#xb4;" horiz-adv-x="840" 
d="M623 1422h257l-328 -378h-84zM0 944z" />
    <glyph glyph-name="mu" unicode="&#xb5;" horiz-adv-x="1229" 
d="M232 898q163 22 300 52l8 -7q-34 -138 -65 -291l-62 -308q-6 -30 -6 -55q0 -58 33.5 -96.5t95.5 -38.5q98 0 186 90l80 392q30 145 38 262q163 22 300 52l8 -7q-34 -138 -65 -291l-95 -464q-6 -26 -6 -44q0 -25 10.5 -38.5t31.5 -20t52 -8.5t84 -2l-6 -47
q-163 -52 -274 -52q-179 0 -179 152q-128 -158 -215 -158q-98 0 -148 121l-10 -82q-36 -233 -58 -472q-160 -9 -294 -31l-9 7l227 1123q30 145 38 262z" />
    <glyph glyph-name="paragraph" unicode="&#xb6;" horiz-adv-x="1251" 
d="M985 1302l-89 3l-190 -832q-32 -3 -58 -3q-236 0 -384.5 131.5t-148.5 340.5t153.5 335.5t410.5 126.5q57 0 195.5 -4t185.5 -4q151 0 256 4l-5 -51l-163 -37q-18 -4 -29 -10.5t-18.5 -26t-14 -57.5t-17.5 -107l-85 -540q-22 -140 -45 -260.5t-54 -219.5t-73.5 -175
t-102.5 -128.5t-142 -79.5t-192 -27q-85 0 -208 21q16 125 44 237l9 3q194 -150 273 -150q38 0 67.5 13.5t54 47.5t46.5 91t46 143t51.5 205t62.5 276z" />
    <glyph glyph-name="periodcentered" unicode="&#xb7;" horiz-adv-x="565" 
d="M284 660q66 0 109 -42.5t43 -112.5q0 -69 -43 -113t-109 -44q-69 0 -111.5 44t-42.5 113q0 70 42.5 112.5t111.5 42.5z" />
    <glyph glyph-name="periodcentered" unicode="&#x2219;" horiz-adv-x="565" 
d="M284 660q66 0 109 -42.5t43 -112.5q0 -69 -43 -113t-109 -44q-69 0 -111.5 44t-42.5 113q0 70 42.5 112.5t111.5 42.5z" />
    <glyph glyph-name="cedilla" unicode="&#xb8;" horiz-adv-x="840" 
d="M148 -189l147 189h91l-79 -106q101 -50 101 -134q0 -112 -210 -254l-38 41q98 80 98 148q0 72 -106 108z" />
    <glyph glyph-name="uni00B9" unicode="&#xb9;" horiz-adv-x="738" 
d="M311 1400l2 38q196 20 358 40l6 -9q-14 -51 -25.5 -104t-22.5 -107l-81 -403q-8 -38 -14 -68.5t-10 -53.5q-2 -14 7 -15l134 -24l-6 -38q-101 2 -242 2q-142 0 -240 -2l4 39l142 24q9 2 12 13q7 27 12 51.5t11 53.5l72 353q12 58 21 105.5t17 92.5z" />
    <glyph glyph-name="ordmasculine" unicode="&#xba;" horiz-adv-x="791" 
d="M72 401l18 91h653l-18 -91h-653zM453 641q-149 0 -231 69.5t-82 182.5q0 138 105 228.5t268 90.5q148 0 230.5 -68t82.5 -181q0 -138 -103.5 -230t-269.5 -92zM466 717q58 0 100.5 69.5t42.5 192.5q0 75 -29 116.5t-80 41.5q-63 0 -103 -72t-40 -188q0 -78 29 -119
t80 -41z" />
    <glyph glyph-name="guillemotright" unicode="&#xbb;" horiz-adv-x="1044" 
d="M194 879q169 -237 340 -390v-37q-210 -157 -424 -391l-53 29q88 177 251 377q-104 194 -168 384zM614 879q169 -237 340 -390v-37q-210 -157 -424 -391l-53 29q88 177 251 377q-104 194 -168 384z" />
    <glyph glyph-name="onequarter" unicode="&#xbc;" horiz-adv-x="1687" 
d="M271 1400l2 38q196 20 358 40l6 -9q-14 -51 -25.5 -104t-22.5 -107l-81 -403q-8 -38 -14 -68.5t-10 -53.5q-2 -14 7 -15l134 -24l-6 -38q-101 2 -242 2q-142 0 -240 -2l4 39l142 24q9 2 12 13q7 27 12 51.5t11 53.5l72 353q12 58 21 105.5t17 92.5zM390 8l946 1477
l91 -63l-947 -1477zM1163 217q-96 0 -205 -2l12 76q283 316 524 537l129 4l4 -12q-282 -226 -529 -506h214l44 215l190 9l-48 -224h132l-18 -99q-71 2 -134 2l-24 -141q-2 -12 6 -14l109 -26l-6 -38q-106 2 -218 2q-103 0 -222 -2l4 38l126 27q10 2 12 13l27 141h-129z" />
    <glyph glyph-name="onehalf" unicode="&#xbd;" horiz-adv-x="1687" 
d="M271 1400l2 38q196 20 358 40l6 -9q-14 -51 -25.5 -104t-22.5 -107l-81 -403q-8 -38 -14 -68.5t-10 -53.5q-2 -14 7 -15l134 -24l-6 -38q-101 2 -242 2q-142 0 -240 -2l4 39l142 24q9 2 12 13q7 27 12 51.5t11 53.5l72 353q12 58 21 105.5t17 92.5zM340 8l946 1477
l91 -63l-947 -1477zM1664 623q0 -71 -34 -130t-98 -116.5t-156.5 -117.5t-210.5 -133v-4h364l74 112l39 6l-60 -234l-12 -8q-93 2 -297 2q-181 0 -302 -2l14 79q50 33 105.5 71t109 79.5t102 86.5t85.5 91.5t58.5 93.5t21.5 94q0 68 -41 104.5t-108 36.5q-45 0 -85.5 -13.5
t-71.5 -27.5l-23 57q66 35 126.5 56.5t135.5 21.5q120 0 192 -55.5t72 -149.5z" />
    <glyph glyph-name="threequarters" unicode="&#xbe;" horiz-adv-x="1687" 
d="M239 1119q147 13 217 53.5t70 116.5q0 48 -39 77.5t-102 29.5q-73 0 -166 -49l-23 58q64 39 133 60t152 21q110 0 178 -45.5t68 -118.5q0 -68 -62 -116.5t-175 -77.5v-4q102 -8 160.5 -54.5t58.5 -117.5q0 -77 -48.5 -135t-135.5 -98t-208 -60.5t-266 -20.5l8 63
q229 13 336.5 72.5t107.5 160.5q0 61 -49.5 96t-125.5 35q-40 0 -101 -10zM370 8l946 1477l91 -63l-947 -1477zM1163 217q-96 0 -205 -2l12 76q283 316 524 537l129 4l4 -12q-282 -226 -529 -506h214l44 215l190 9l-48 -224h132l-18 -99q-71 2 -134 2l-24 -141q-2 -12 6 -14
l109 -26l-6 -38q-106 2 -218 2q-103 0 -222 -2l4 38l126 27q10 2 12 13l27 141h-129z" />
    <glyph glyph-name="questiondown" unicode="&#xbf;" horiz-adv-x="915" 
d="M645 -404q-199 -59 -343 -59q-158 0 -254.5 72.5t-96.5 192.5q0 65 23 118.5t63 99t91 87t107 83.5q52 39 92 69.5t67.5 58t42 53.5t14.5 55q0 38 -25 80l51 32q61 -51 109.5 -125t48.5 -125q0 -34 -14.5 -63.5t-41.5 -59.5t-66.5 -61t-90.5 -68q-48 -35 -90.5 -64.5
t-74.5 -60.5t-49.5 -66.5t-17.5 -83.5q0 -59 42 -94.5t106 -35.5q76 0 149 27l102 229l50 7l14 -290zM554 652q-64 0 -106 41.5t-42 109.5q0 67 44 109.5t108 42.5q67 0 108 -42.5t41 -109.5q0 -68 -43 -109.5t-110 -41.5z" />
    <glyph glyph-name="Agrave" unicode="&#xc0;" horiz-adv-x="1367" 
d="M324 50l-9 -53q-136 3 -248 3t-213 -3l6 51l111 31q48 17 74.5 48t46.5 64l718 1213l110 17l209 -1215q6 -34 12.5 -57.5t14.5 -36.5q16 -26 51 -36l106 -28l-7 -51q-163 3 -308 3q-141 0 -315 -3l5 51l97 28q21 7 34.5 18t13.5 43q0 31 -15 120l-30 186h-415l-105 -183
q-32 -57 -52 -96t-20 -56q0 -20 34 -31zM431 546h340l-59 368l-13 106l-57 -105zM588 1662l156 138l330 -275l-31 -52l-455 174v15zM260 1400z" />
    <glyph glyph-name="Aacute" unicode="&#xc1;" horiz-adv-x="1367" 
d="M324 50l-9 -53q-136 3 -248 3t-213 -3l6 51l111 31q48 17 74.5 48t46.5 64l718 1213l110 17l209 -1215q6 -34 12.5 -57.5t14.5 -36.5q16 -26 51 -36l106 -28l-7 -51q-163 3 -308 3q-141 0 -315 -3l5 51l97 28q21 7 34.5 18t13.5 43q0 31 -15 120l-30 186h-415l-105 -183
q-32 -57 -52 -96t-20 -56q0 -20 34 -31zM431 546h340l-59 368l-13 106l-57 -105zM1148 1647l-485 -174l-31 52l360 275l156 -138v-15zM260 1400z" />
    <glyph glyph-name="Acircumflex" unicode="&#xc2;" horiz-adv-x="1367" 
d="M324 50l-9 -53q-136 3 -248 3t-213 -3l6 51l111 31q48 17 74.5 48t46.5 64l718 1213l110 17l209 -1215q6 -34 12.5 -57.5t14.5 -36.5q16 -26 51 -36l106 -28l-7 -51q-163 3 -308 3q-141 0 -315 -3l5 51l97 28q21 7 34.5 18t13.5 43q0 31 -15 120l-30 186h-415l-105 -183
q-32 -57 -52 -96t-20 -56q0 -20 34 -31zM431 546h340l-59 368l-13 106l-57 -105zM887 1622l-341 -147l-27 52l302 249h168l242 -254l-37 -47zM260 1400z" />
    <glyph glyph-name="Atilde" unicode="&#xc3;" horiz-adv-x="1367" 
d="M324 50l-9 -53q-136 3 -248 3t-213 -3l6 51l111 31q48 17 74.5 48t46.5 64l718 1213l110 17l209 -1215q6 -34 12.5 -57.5t14.5 -36.5q16 -26 51 -36l106 -28l-7 -51q-163 3 -308 3q-141 0 -315 -3l5 51l97 28q21 7 34.5 18t13.5 43q0 31 -15 120l-30 186h-415l-105 -183
q-32 -57 -52 -96t-20 -56q0 -20 34 -31zM431 546h340l-59 368l-13 106l-57 -105zM1242 1737q-120 -212 -231 -212q-38 0 -70 15t-70 38q-18 11 -31.5 19t-26.5 14t-25 8.5t-24 2.5q-30 0 -54.5 -16t-84.5 -80l-50 42q72 114 122.5 160.5t104.5 46.5q30 0 57 -10
q27 -11 76 -39q22 -12 38 -21t29 -15.5t25 -9.5t25 -3q32 0 54.5 16t82.5 81zM260 1400z" />
    <glyph glyph-name="Adieresis" unicode="&#xc4;" horiz-adv-x="1367" 
d="M324 50l-9 -53q-136 3 -248 3t-213 -3l6 51l111 31q48 17 74.5 48t46.5 64l718 1213l110 17l209 -1215q6 -34 12.5 -57.5t14.5 -36.5q16 -26 51 -36l106 -28l-7 -51q-163 3 -308 3q-141 0 -315 -3l5 51l97 28q21 7 34.5 18t13.5 43q0 31 -15 120l-30 186h-415l-105 -183
q-32 -57 -52 -96t-20 -56q0 -20 34 -31zM431 546h340l-59 368l-13 106l-57 -105zM816 1655q0 -61 -36 -97.5t-94 -36.5q-56 0 -90.5 34.5t-34.5 90.5q0 61 36.5 95.5t95.5 34.5q55 0 89 -31.5t34 -89.5zM1225 1655q0 -61 -36.5 -97.5t-94.5 -36.5q-55 0 -89.5 34.5
t-34.5 90.5q0 61 36 95.5t95 34.5q56 0 90 -31.5t34 -89.5zM260 1400z" />
    <glyph glyph-name="Aring" unicode="&#xc5;" horiz-adv-x="1367" 
d="M324 50l-9 -53q-136 3 -248 3t-213 -3l6 51l111 31q48 17 74.5 48t46.5 64l718 1213l110 17l209 -1215q6 -34 12.5 -57.5t14.5 -36.5q16 -26 51 -36l106 -28l-7 -51q-163 3 -308 3q-141 0 -315 -3l5 51l97 28q21 7 34.5 18t13.5 43q0 31 -15 120l-30 186h-415l-105 -183
q-32 -57 -52 -96t-20 -56q0 -20 34 -31zM431 546h340l-59 368l-13 106l-57 -105zM873 1468q-92 0 -146.5 42t-54.5 114q0 93 75.5 152.5t177.5 59.5q82 0 140.5 -44t58.5 -115q0 -94 -72 -151.5t-179 -57.5zM884 1534q52 0 83.5 38t31.5 100q0 43 -22 70.5t-63 27.5
q-54 0 -85.5 -39.5t-31.5 -100.5q0 -41 22.5 -68.5t64.5 -27.5zM260 1400z" />
    <glyph glyph-name="AE" unicode="&#xc6;" horiz-adv-x="1900" 
d="M1027 1396h413q120 0 246.5 1t261.5 3l5 -8l-115 -333l-56 -8l-28 244h-375l-105 -552h129q50 0 114 1q28 1 39 27l62 136l62 2q-25 -110 -45.5 -216t-37.5 -211l-62 -4l-11 137q-1 25 -25 27q-45 1 -95 1.5t-108 0.5h-42l-61 -320q-11 -56 -20.5 -111t-19.5 -110h408
l168 266l63 9l-86 -374l-8 -7q-269 3 -503 3h-223q-150 0 -292 -3l6 51l135 37q27 7 34 31q8 40 18 89.5t22 109.5l63 329h-410l-263 -384q-38 -55 -59 -95t-21 -57q0 -21 34 -31l94 -27l-9 -53q-137 3 -251 3q-62 0 -122 -0.5t-111 -2.5l6 51l111 31q25 7 45.5 20t40 32
t38.5 44t41 56l738 1045q5 7 5 15q0 13 -22 19l-143 39l8 51q81 -2 160.5 -3t158.5 -1zM1082 1295h-86l-380 -552h361z" />
    <glyph glyph-name="Ccedilla" unicode="&#xc7;" horiz-adv-x="1356" 
d="M523 -189l127 164q-245 27 -389.5 182t-144.5 405q0 378 266.5 619.5t668.5 241.5q174 0 352 -41l4 -10l-122 -350l-56 -9l-32 287q-68 24 -161 24q-258 0 -429.5 -217t-171.5 -522q0 -227 126 -356.5t344 -129.5q138 0 285 60l21 -59q-215 -130 -469 -130h-4l-56 -76
q101 -50 101 -134q0 -112 -210 -254l-38 41q98 80 98 148q0 72 -106 108z" />
    <glyph glyph-name="Egrave" unicode="&#xc8;" horiz-adv-x="1223" 
d="M567 1396h196q239 0 508 4l5 -8l-115 -333l-56 -8l-28 244h-375l-101 -533h43q72 0 200 1q28 1 39 27l62 137l62 2q-50 -218 -83 -426l-62 -4l-11 138q-2 26 -25 27q-88 2 -203 2h-42l-65 -342q-21 -111 -40 -221h408l168 266l63 9l-86 -374l-8 -7q-268 3 -503 3h-223
q-150 0 -292 -3l6 51l135 37q27 7 34 31q8 40 18 89.5t22 109.5l152 795q10 51 17 92t12 74q5 26 -17 34l-132 39l8 51q152 -4 309 -4zM528 1662l156 138l330 -275l-31 -52l-455 174v15zM200 1400z" />
    <glyph glyph-name="Eacute" unicode="&#xc9;" horiz-adv-x="1223" 
d="M567 1396h196q239 0 508 4l5 -8l-115 -333l-56 -8l-28 244h-375l-101 -533h43q72 0 200 1q28 1 39 27l62 137l62 2q-50 -218 -83 -426l-62 -4l-11 138q-2 26 -25 27q-88 2 -203 2h-42l-65 -342q-21 -111 -40 -221h408l168 266l63 9l-86 -374l-8 -7q-268 3 -503 3h-223
q-150 0 -292 -3l6 51l135 37q27 7 34 31q8 40 18 89.5t22 109.5l152 795q10 51 17 92t12 74q5 26 -17 34l-132 39l8 51q152 -4 309 -4zM1088 1647l-485 -174l-31 52l360 275l156 -138v-15zM200 1400z" />
    <glyph glyph-name="Ecircumflex" unicode="&#xca;" horiz-adv-x="1223" 
d="M567 1396h196q239 0 508 4l5 -8l-115 -333l-56 -8l-28 244h-375l-101 -533h43q72 0 200 1q28 1 39 27l62 137l62 2q-50 -218 -83 -426l-62 -4l-11 138q-2 26 -25 27q-88 2 -203 2h-42l-65 -342q-21 -111 -40 -221h408l168 266l63 9l-86 -374l-8 -7q-268 3 -503 3h-223
q-150 0 -292 -3l6 51l135 37q27 7 34 31q8 40 18 89.5t22 109.5l152 795q10 51 17 92t12 74q5 26 -17 34l-132 39l8 51q152 -4 309 -4zM827 1622l-341 -147l-27 52l302 249h168l242 -254l-37 -47zM200 1400z" />
    <glyph glyph-name="Edieresis" unicode="&#xcb;" horiz-adv-x="1223" 
d="M567 1396h196q239 0 508 4l5 -8l-115 -333l-56 -8l-28 244h-375l-101 -533h43q72 0 200 1q28 1 39 27l62 137l62 2q-50 -218 -83 -426l-62 -4l-11 138q-2 26 -25 27q-88 2 -203 2h-42l-65 -342q-21 -111 -40 -221h408l168 266l63 9l-86 -374l-8 -7q-268 3 -503 3h-223
q-150 0 -292 -3l6 51l135 37q27 7 34 31q8 40 18 89.5t22 109.5l152 795q10 51 17 92t12 74q5 26 -17 34l-132 39l8 51q152 -4 309 -4zM756 1655q0 -61 -36 -97.5t-94 -36.5q-56 0 -90.5 34.5t-34.5 90.5q0 61 36.5 95.5t95.5 34.5q55 0 89 -31.5t34 -89.5zM1165 1655
q0 -61 -36.5 -97.5t-94.5 -36.5q-55 0 -89.5 34.5t-34.5 90.5q0 61 36 95.5t95 34.5q56 0 90 -31.5t34 -89.5zM200 1400z" />
    <glyph glyph-name="Igrave" unicode="&#xcc;" horiz-adv-x="796" 
d="M514 315q-12 -60 -21 -109t-15 -89q-3 -25 28 -34l122 -35l-8 -51q-170 3 -308 3q-148 0 -307 -3l4 51l135 37q28 8 34 31q9 39 18.5 89t21.5 110l153 795q10 51 17 92t12 74q5 27 -17 34l-131 39l9 51q85 -2 163 -3t150 -1t147 1t156 3l-7 -51l-137 -37q-25 -6 -31 -31
q-9 -35 -17 -76.5t-18 -90.5zM304 1662l156 138l330 -275l-31 -52l-455 174v15zM-24 1400z" />
    <glyph glyph-name="Iacute" unicode="&#xcd;" horiz-adv-x="796" 
d="M514 315q-12 -60 -21 -109t-15 -89q-3 -25 28 -34l122 -35l-8 -51q-170 3 -308 3q-148 0 -307 -3l4 51l135 37q28 8 34 31q9 39 18.5 89t21.5 110l153 795q10 51 17 92t12 74q5 27 -17 34l-131 39l9 51q85 -2 163 -3t150 -1t147 1t156 3l-7 -51l-137 -37q-25 -6 -31 -31
q-9 -35 -17 -76.5t-18 -90.5zM864 1647l-485 -174l-31 52l360 275l156 -138v-15zM-24 1400z" />
    <glyph glyph-name="Icircumflex" unicode="&#xce;" horiz-adv-x="796" 
d="M514 315q-12 -60 -21 -109t-15 -89q-3 -25 28 -34l122 -35l-8 -51q-170 3 -308 3q-148 0 -307 -3l4 51l135 37q28 8 34 31q9 39 18.5 89t21.5 110l153 795q10 51 17 92t12 74q5 27 -17 34l-131 39l9 51q85 -2 163 -3t150 -1t147 1t156 3l-7 -51l-137 -37q-25 -6 -31 -31
q-9 -35 -17 -76.5t-18 -90.5zM603 1622l-341 -147l-27 52l302 249h168l242 -254l-37 -47zM-24 1400z" />
    <glyph glyph-name="Idieresis" unicode="&#xcf;" horiz-adv-x="796" 
d="M514 315q-12 -60 -21 -109t-15 -89q-3 -25 28 -34l122 -35l-8 -51q-170 3 -308 3q-148 0 -307 -3l4 51l135 37q28 8 34 31q9 39 18.5 89t21.5 110l153 795q10 51 17 92t12 74q5 27 -17 34l-131 39l9 51q85 -2 163 -3t150 -1t147 1t156 3l-7 -51l-137 -37q-25 -6 -31 -31
q-9 -35 -17 -76.5t-18 -90.5zM532 1655q0 -61 -36 -97.5t-94 -36.5q-56 0 -90.5 34.5t-34.5 90.5q0 61 36.5 95.5t95.5 34.5q55 0 89 -31.5t34 -89.5zM941 1655q0 -61 -36.5 -97.5t-94.5 -36.5q-55 0 -89.5 34.5t-34.5 90.5q0 61 36 95.5t95 34.5q56 0 90 -31.5t34 -89.5z
M-24 1400z" />
    <glyph glyph-name="Eth" unicode="&#xd0;" horiz-adv-x="1627" 
d="M295 0q-149 0 -291 -3l6 51l135 37q30 8 34 31q8 40 18 89.5t22 109.5l70 370h-160l20 106h160l61 319q10 51 17 92t12 74q5 25 -17 34l-131 39l8 51q153 -4 304 -4q64 0 159 5t168 5q321 0 500 -136t179 -403q0 -384 -263 -628.5t-685 -244.5q-77 0 -141 3t-185 3z
M474 99q75 -12 143 -12q296 0 466.5 213t170.5 568q0 226 -92.5 333.5t-283.5 107.5q-75 0 -175 -8l-98 -510h274l-20 -106h-274z" />
    <glyph glyph-name="Ntilde" unicode="&#xd1;" horiz-adv-x="1474" 
d="M230 1349l7 51q70 -2 123 -3t90 -1q25 0 49 1t49 3l520 -851q28 -53 60 -111l27 147l100 530q10 49 17.5 90.5t12.5 76.5q3 22 -20 30l-122 35l8 53q69 -2 124.5 -3t98.5 -1q45 0 100 1t124 3l-5 -51l-144 -39q-24 -8 -30 -33q-8 -33 -16.5 -74t-18.5 -92l-211 -1111
l-108 -11l-553 904q-26 46 -60 111q-7 -39 -13 -74t-12 -66l-101 -550q-11 -60 -19.5 -108.5t-15.5 -86.5q-5 -29 19 -35l121 -35l-7 -52q-134 3 -219 3q-87 0 -226 -3l4 50l142 37q27 8 32 31q9 41 19 90t21 109l148 797q9 51 16.5 92t12.5 74q4 25 -18 33zM1302 1737
q-120 -212 -231 -212q-38 0 -70 15t-70 38q-18 11 -31.5 19t-26.5 14t-25 8.5t-24 2.5q-30 0 -54.5 -16t-84.5 -80l-50 42q72 114 122.5 160.5t104.5 46.5q30 0 57 -10q27 -11 76 -39q22 -12 38 -21t29 -15.5t25 -9.5t25 -3q32 0 54.5 16t82.5 81zM320 1400z" />
    <glyph glyph-name="Ograve" unicode="&#xd2;" horiz-adv-x="1679" 
d="M764 -35q-293 0 -470.5 156t-177.5 432q0 368 248.5 621.5t615.5 253.5q294 0 472 -155t178 -433q0 -371 -248.5 -623t-617.5 -252zM1307 873q0 216 -96 338t-259 122q-237 0 -375.5 -231.5t-138.5 -580.5q0 -214 95 -337.5t260 -123.5q237 0 375.5 230t138.5 583z
M713 1662l156 138l330 -275l-31 -52l-455 174v15zM385 1400z" />
    <glyph glyph-name="Oacute" unicode="&#xd3;" horiz-adv-x="1679" 
d="M764 -35q-293 0 -470.5 156t-177.5 432q0 368 248.5 621.5t615.5 253.5q294 0 472 -155t178 -433q0 -371 -248.5 -623t-617.5 -252zM1307 873q0 216 -96 338t-259 122q-237 0 -375.5 -231.5t-138.5 -580.5q0 -214 95 -337.5t260 -123.5q237 0 375.5 230t138.5 583z
M1273 1647l-485 -174l-31 52l360 275l156 -138v-15zM385 1400z" />
    <glyph glyph-name="Ocircumflex" unicode="&#xd4;" horiz-adv-x="1679" 
d="M764 -35q-293 0 -470.5 156t-177.5 432q0 368 248.5 621.5t615.5 253.5q294 0 472 -155t178 -433q0 -371 -248.5 -623t-617.5 -252zM1307 873q0 216 -96 338t-259 122q-237 0 -375.5 -231.5t-138.5 -580.5q0 -214 95 -337.5t260 -123.5q237 0 375.5 230t138.5 583z
M1012 1622l-341 -147l-27 52l302 249h168l242 -254l-37 -47zM385 1400z" />
    <glyph glyph-name="Otilde" unicode="&#xd5;" horiz-adv-x="1679" 
d="M764 -35q-293 0 -470.5 156t-177.5 432q0 368 248.5 621.5t615.5 253.5q294 0 472 -155t178 -433q0 -371 -248.5 -623t-617.5 -252zM1307 873q0 216 -96 338t-259 122q-237 0 -375.5 -231.5t-138.5 -580.5q0 -214 95 -337.5t260 -123.5q237 0 375.5 230t138.5 583z
M1367 1737q-120 -212 -231 -212q-38 0 -70 15t-70 38q-18 11 -31.5 19t-26.5 14t-25 8.5t-24 2.5q-30 0 -54.5 -16t-84.5 -80l-50 42q72 114 122.5 160.5t104.5 46.5q30 0 57 -10q27 -11 76 -39q22 -12 38 -21t29 -15.5t25 -9.5t25 -3q32 0 54.5 16t82.5 81zM385 1400z" />
    <glyph glyph-name="Odieresis" unicode="&#xd6;" horiz-adv-x="1679" 
d="M764 -35q-293 0 -470.5 156t-177.5 432q0 368 248.5 621.5t615.5 253.5q294 0 472 -155t178 -433q0 -371 -248.5 -623t-617.5 -252zM1307 873q0 216 -96 338t-259 122q-237 0 -375.5 -231.5t-138.5 -580.5q0 -214 95 -337.5t260 -123.5q237 0 375.5 230t138.5 583z
M941 1655q0 -61 -36 -97.5t-94 -36.5q-56 0 -90.5 34.5t-34.5 90.5q0 61 36.5 95.5t95.5 34.5q55 0 89 -31.5t34 -89.5zM1350 1655q0 -61 -36.5 -97.5t-94.5 -36.5q-55 0 -89.5 34.5t-34.5 90.5q0 61 36 95.5t95 34.5q56 0 90 -31.5t34 -89.5zM385 1400z" />
    <glyph glyph-name="multiply" unicode="&#xd7;" 
d="M189 927l366 -366l366 366l100 -99l-366 -367l365 -365l-99 -100l-366 366l-366 -366l-99 100l365 365l-366 367z" />
    <glyph glyph-name="Oslash" unicode="&#xd8;" horiz-adv-x="1679" 
d="M764 -35q-237 0 -399 102l-150 -162l-79 68l146 158q-166 154 -166 422q0 368 248.5 621.5t615.5 253.5q242 0 405 -105l149 161l85 -63l-151 -163q162 -153 162 -418q0 -371 -248.5 -623t-617.5 -252zM1243 1170q-98 165 -291 165q-239 0 -379 -232t-140 -582
q0 -112 26 -199zM1288 1063l-783 -845q99 -160 288 -160q239 0 379 230.5t140 584.5q0 107 -24 190z" />
    <glyph glyph-name="Ugrave" unicode="&#xd9;" horiz-adv-x="1503" 
d="M221 1400q85 -2 158.5 -3t142.5 -1q72 0 145.5 1t151.5 3l-6 -51l-124 -37q-23 -6 -29 -31q-7 -35 -14.5 -76.5t-16.5 -90.5l-97 -517q-23 -124 -23 -208q0 -147 69 -225.5t204 -78.5q91 0 155 35t108 95t71.5 141.5t46.5 174.5l110 583q9 49 16 90.5t13 76.5
q3 25 -20 31l-124 34l8 54q72 -2 128.5 -3t101.5 -1q46 0 102 1t125 3l-6 -51l-139 -39q-25 -7 -31 -34q-7 -33 -15 -74t-18 -92l-97 -505q-30 -152 -73.5 -271t-113 -200.5t-172 -124t-250.5 -42.5q-236 0 -365.5 111.5t-129.5 327.5q0 81 18 173l101 531q10 51 17 92
t13 74q5 26 -18 34l-131 39zM688 1662l156 138l330 -275l-31 -52l-455 174v15zM360 1400z" />
    <glyph glyph-name="Uacute" unicode="&#xda;" horiz-adv-x="1503" 
d="M221 1400q85 -2 158.5 -3t142.5 -1q72 0 145.5 1t151.5 3l-6 -51l-124 -37q-23 -6 -29 -31q-7 -35 -14.5 -76.5t-16.5 -90.5l-97 -517q-23 -124 -23 -208q0 -147 69 -225.5t204 -78.5q91 0 155 35t108 95t71.5 141.5t46.5 174.5l110 583q9 49 16 90.5t13 76.5
q3 25 -20 31l-124 34l8 54q72 -2 128.5 -3t101.5 -1q46 0 102 1t125 3l-6 -51l-139 -39q-25 -7 -31 -34q-7 -33 -15 -74t-18 -92l-97 -505q-30 -152 -73.5 -271t-113 -200.5t-172 -124t-250.5 -42.5q-236 0 -365.5 111.5t-129.5 327.5q0 81 18 173l101 531q10 51 17 92
t13 74q5 26 -18 34l-131 39zM1248 1647l-485 -174l-31 52l360 275l156 -138v-15zM360 1400z" />
    <glyph glyph-name="Ucircumflex" unicode="&#xdb;" horiz-adv-x="1503" 
d="M221 1400q85 -2 158.5 -3t142.5 -1q72 0 145.5 1t151.5 3l-6 -51l-124 -37q-23 -6 -29 -31q-7 -35 -14.5 -76.5t-16.5 -90.5l-97 -517q-23 -124 -23 -208q0 -147 69 -225.5t204 -78.5q91 0 155 35t108 95t71.5 141.5t46.5 174.5l110 583q9 49 16 90.5t13 76.5
q3 25 -20 31l-124 34l8 54q72 -2 128.5 -3t101.5 -1q46 0 102 1t125 3l-6 -51l-139 -39q-25 -7 -31 -34q-7 -33 -15 -74t-18 -92l-97 -505q-30 -152 -73.5 -271t-113 -200.5t-172 -124t-250.5 -42.5q-236 0 -365.5 111.5t-129.5 327.5q0 81 18 173l101 531q10 51 17 92
t13 74q5 26 -18 34l-131 39zM987 1622l-341 -147l-27 52l302 249h168l242 -254l-37 -47zM360 1400z" />
    <glyph glyph-name="Udieresis" unicode="&#xdc;" horiz-adv-x="1503" 
d="M221 1400q85 -2 158.5 -3t142.5 -1q72 0 145.5 1t151.5 3l-6 -51l-124 -37q-23 -6 -29 -31q-7 -35 -14.5 -76.5t-16.5 -90.5l-97 -517q-23 -124 -23 -208q0 -147 69 -225.5t204 -78.5q91 0 155 35t108 95t71.5 141.5t46.5 174.5l110 583q9 49 16 90.5t13 76.5
q3 25 -20 31l-124 34l8 54q72 -2 128.5 -3t101.5 -1q46 0 102 1t125 3l-6 -51l-139 -39q-25 -7 -31 -34q-7 -33 -15 -74t-18 -92l-97 -505q-30 -152 -73.5 -271t-113 -200.5t-172 -124t-250.5 -42.5q-236 0 -365.5 111.5t-129.5 327.5q0 81 18 173l101 531q10 51 17 92
t13 74q5 26 -18 34l-131 39zM916 1655q0 -61 -36 -97.5t-94 -36.5q-56 0 -90.5 34.5t-34.5 90.5q0 61 36.5 95.5t95.5 34.5q55 0 89 -31.5t34 -89.5zM1325 1655q0 -61 -36.5 -97.5t-94.5 -36.5q-55 0 -89.5 34.5t-34.5 90.5q0 61 36 95.5t95 34.5q56 0 90 -31.5t34 -89.5z
M360 1400z" />
    <glyph glyph-name="Yacute" unicode="&#xdd;" horiz-adv-x="1261" 
d="M1055 1141q35 48 60.5 86.5t25.5 59.5q0 25 -37 35l-88 24l7 54q121 -4 239 -4q113 0 227 4l-5 -51l-118 -32q-39 -11 -62.5 -35t-50.5 -59l-428 -583l-63 -325q-12 -60 -20.5 -109t-15.5 -89q-3 -25 28 -34l122 -35l-9 -51q-170 3 -312 3q-143 0 -302 -3l5 51l135 37
q27 7 34 31q8 40 18 89.5t22 109.5l59 313l-222 567q-26 61 -44 88t-55 38l-101 28l5 51q123 -4 306 -4q146 0 320 4l-2 -51l-100 -26q-23 -5 -35 -17t-12 -33q0 -27 33 -110l157 -410zM1138 1647l-485 -174l-31 52l360 275l156 -138v-15zM250 1400z" />
    <glyph glyph-name="Thorn" unicode="&#xde;" horiz-adv-x="1274" 
d="M514 315q-12 -60 -21 -109t-15 -89q-3 -25 28 -34l122 -35l-8 -51q-170 3 -308 3q-148 0 -307 -3l4 51l135 37q28 8 34 31q9 39 18.5 89t21.5 110l153 795q10 51 17 92t12 74q5 27 -17 34l-131 39l9 51q85 -2 163 -3t150 -1t147 1t156 3l-7 -51l-137 -37q-25 -6 -31 -31
q-9 -35 -17 -77q-5 -25 -11 -54q49 3 82 3q239 0 373.5 -90.5t134.5 -267.5q0 -216 -172 -343t-428 -127q-75 0 -144 12l-1 5zM630 419q147 0 233.5 96t86.5 273q0 126 -62 197t-162 71q-36 0 -72 -8l-118 -618q38 -11 94 -11z" />
    <glyph glyph-name="germandbls" unicode="&#xdf;" horiz-adv-x="1351" 
d="M254 810l-148 39l3 43l162 15q62 290 223.5 445t392.5 155q184 0 282.5 -76.5t98.5 -225.5q0 -93 -36 -209q-154 -35 -232.5 -93t-78.5 -136q0 -36 13 -65.5t35 -54t50.5 -46.5t58.5 -44q34 -25 67 -52t59 -61t42.5 -76.5t16.5 -97.5q0 -139 -113 -218t-312 -79
q-178 0 -352 66q38 135 63 261l50 8l65 -216q65 -21 132 -21q93 0 142 41t49 105q0 30 -12.5 56t-33.5 49t-48 44t-56 43q-34 25 -67.5 52t-60 58.5t-43 70t-16.5 86.5q0 204 320 324q38 110 38 215q0 94 -43 145.5t-122 51.5q-91 0 -158 -85.5t-116 -337.5l-189 -924
q-62 -293 -177 -427t-317 -134q-78 0 -181 21q23 110 50 210l14 4q114 -131 169 -131q56 0 94 80q19 40 36.5 110t36.5 176z" />
    <glyph glyph-name="agrave" unicode="&#xe0;" horiz-adv-x="1185" 
d="M1093 931q-37 -122 -75 -312l-90 -445q-5 -23 -5 -38q0 -21 8.5 -33.5t27 -20t48 -9.5t72.5 -2l-7 -47q-175 -42 -264 -42q-75 0 -117.5 33.5t-42.5 96.5v20q-181 -159 -261 -159q-136 0 -226 104.5t-90 265.5q0 253 172.5 427t435.5 174q116 0 250 -37q74 13 147 35z
M784 827q-54 25 -123 25q-131 0 -216 -150t-85 -322q0 -101 31.5 -177.5t72.5 -76.5q56 0 198 107zM760 1044h-84l-198 378h232zM183 944z" />
    <glyph glyph-name="aacute" unicode="&#xe1;" horiz-adv-x="1185" 
d="M1093 931q-37 -122 -75 -312l-90 -445q-5 -23 -5 -38q0 -21 8.5 -33.5t27 -20t48 -9.5t72.5 -2l-7 -47q-175 -42 -264 -42q-75 0 -117.5 33.5t-42.5 96.5v20q-181 -159 -261 -159q-136 0 -226 104.5t-90 265.5q0 253 172.5 427t435.5 174q116 0 250 -37q74 13 147 35z
M784 827q-54 25 -123 25q-131 0 -216 -150t-85 -322q0 -101 31.5 -177.5t72.5 -76.5q56 0 198 107zM806 1422h257l-328 -378h-84zM183 944z" />
    <glyph glyph-name="acircumflex" unicode="&#xe2;" horiz-adv-x="1185" 
d="M1093 931q-37 -122 -75 -312l-90 -445q-5 -23 -5 -38q0 -21 8.5 -33.5t27 -20t48 -9.5t72.5 -2l-7 -47q-175 -42 -264 -42q-75 0 -117.5 33.5t-42.5 96.5v20q-181 -159 -261 -159q-136 0 -226 104.5t-90 265.5q0 253 172.5 427t435.5 174q116 0 250 -37q74 13 147 35z
M784 827q-54 25 -123 25q-131 0 -216 -150t-85 -322q0 -101 31.5 -177.5t72.5 -76.5q56 0 198 107zM1017 1044h-88l-179 224l-249 -224h-92l264 378h200zM183 944z" />
    <glyph glyph-name="atilde" unicode="&#xe3;" horiz-adv-x="1185" 
d="M1093 931q-37 -122 -75 -312l-90 -445q-5 -23 -5 -38q0 -21 8.5 -33.5t27 -20t48 -9.5t72.5 -2l-7 -47q-175 -42 -264 -42q-75 0 -117.5 33.5t-42.5 96.5v20q-181 -159 -261 -159q-136 0 -226 104.5t-90 265.5q0 253 172.5 427t435.5 174q116 0 250 -37q74 13 147 35z
M784 827q-54 25 -123 25q-131 0 -216 -150t-85 -322q0 -101 31.5 -177.5t72.5 -76.5q56 0 198 107zM1101 1327q-124 -220 -240 -220q-39 0 -72 15.5t-73 39.5q-19 11 -33 19.5t-27.5 14.5t-25.5 9t-25 3q-31 0 -56.5 -17t-87.5 -83l-52 44q75 118 127.5 166t108.5 48
q31 0 59 -10q28 -11 78 -40q23 -13 39.5 -22.5t30.5 -16t26 -9.5t26 -3q33 0 56.5 16.5t85.5 83.5zM183 944z" />
    <glyph glyph-name="adieresis" unicode="&#xe4;" horiz-adv-x="1185" 
d="M1093 931q-37 -122 -75 -312l-90 -445q-5 -23 -5 -38q0 -21 8.5 -33.5t27 -20t48 -9.5t72.5 -2l-7 -47q-175 -42 -264 -42q-75 0 -117.5 33.5t-42.5 96.5v20q-181 -159 -261 -159q-136 0 -226 104.5t-90 265.5q0 253 172.5 427t435.5 174q116 0 250 -37q74 13 147 35z
M784 827q-54 25 -123 25q-131 0 -216 -150t-85 -322q0 -101 31.5 -177.5t72.5 -76.5q56 0 198 107zM680 1294q0 -64 -39 -102.5t-101 -38.5q-58 0 -95 36.5t-37 95.5q0 64 39 101.5t102 37.5q58 0 94.5 -34.5t36.5 -95.5zM1096 1294q0 -64 -39 -102.5t-101 -38.5
q-58 0 -95 36.5t-37 95.5q0 64 39 101.5t102 37.5q58 0 94.5 -34.5t36.5 -95.5zM183 944z" />
    <glyph glyph-name="aring" unicode="&#xe5;" horiz-adv-x="1185" 
d="M1093 931q-37 -122 -75 -312l-90 -445q-5 -23 -5 -38q0 -21 8.5 -33.5t27 -20t48 -9.5t72.5 -2l-7 -47q-175 -42 -264 -42q-75 0 -117.5 33.5t-42.5 96.5v20q-181 -159 -261 -159q-136 0 -226 104.5t-90 265.5q0 253 172.5 427t435.5 174q116 0 250 -37q74 13 147 35z
M784 827q-54 25 -123 25q-131 0 -216 -150t-85 -322q0 -101 31.5 -177.5t72.5 -76.5q56 0 198 107zM718 1044q-96 0 -151.5 45t-55.5 121q0 99 80.5 162.5t186.5 63.5q86 0 145.5 -47t59.5 -122q0 -100 -77 -161.5t-188 -61.5zM732 1114q55 0 87.5 40.5t32.5 106.5
q0 46 -22.5 75.5t-65.5 29.5q-57 0 -89.5 -42t-32.5 -107q0 -44 23.5 -73.5t66.5 -29.5zM183 944z" />
    <glyph glyph-name="ae" unicode="&#xe6;" horiz-adv-x="1663" 
d="M1477 192l34 -50q-191 -167 -424 -167q-267 0 -375 207q-235 -209 -325 -209q-136 0 -226 104.5t-90 265.5q0 253 172.5 427t435.5 174q155 0 335 -65q131 65 290 65q144 0 222 -52.5t78 -152.5q0 -125 -160 -208.5t-472 -98.5q-2 -24 -2 -45q0 -135 55 -205.5t165 -70.5
q142 0 287 81zM661 852q-131 0 -216 -150t-85 -322q0 -101 31.5 -177.5t72.5 -76.5q63 0 225 130q-8 42 -8 89q0 260 191 435q-114 72 -211 72zM980 512q346 32 346 223q0 53 -24.5 79.5t-62.5 26.5q-82 0 -156 -91.5t-103 -237.5z" />
    <glyph glyph-name="ccedilla" unicode="&#xe7;" horiz-adv-x="1002" 
d="M260 -189l130 167q-132 20 -224 118t-92 266q0 247 182 414t433 167q141 0 267 -46q-37 -145 -65 -295l-50 -8l-77 242q-27 8 -61 8q-151 0 -244 -130.5t-93 -320.5q0 -133 58.5 -206.5t158.5 -73.5q109 0 234 87l34 -50q-166 -170 -373 -176l-59 -80q101 -50 101 -134
q0 -112 -210 -254l-38 41q98 80 98 148q0 72 -106 108z" />
    <glyph glyph-name="egrave" unicode="&#xe8;" horiz-adv-x="1053" 
d="M867 192l34 -50q-191 -167 -424 -167q-182 0 -294 99t-112 271q0 255 182 427t441 172q144 0 222 -52.5t78 -152.5q0 -125 -160 -208.5t-472 -98.5q-2 -24 -2 -45q0 -135 55 -205.5t165 -70.5q142 0 287 81zM370 512q346 32 346 223q0 53 -24.5 79.5t-62.5 26.5
q-82 0 -156 -91.5t-103 -237.5zM717 1044h-84l-198 378h232zM140 944z" />
    <glyph glyph-name="eacute" unicode="&#xe9;" horiz-adv-x="1053" 
d="M867 192l34 -50q-191 -167 -424 -167q-182 0 -294 99t-112 271q0 255 182 427t441 172q144 0 222 -52.5t78 -152.5q0 -125 -160 -208.5t-472 -98.5q-2 -24 -2 -45q0 -135 55 -205.5t165 -70.5q142 0 287 81zM370 512q346 32 346 223q0 53 -24.5 79.5t-62.5 26.5
q-82 0 -156 -91.5t-103 -237.5zM763 1422h257l-328 -378h-84zM140 944z" />
    <glyph glyph-name="ecircumflex" unicode="&#xea;" horiz-adv-x="1053" 
d="M867 192l34 -50q-191 -167 -424 -167q-182 0 -294 99t-112 271q0 255 182 427t441 172q144 0 222 -52.5t78 -152.5q0 -125 -160 -208.5t-472 -98.5q-2 -24 -2 -45q0 -135 55 -205.5t165 -70.5q142 0 287 81zM370 512q346 32 346 223q0 53 -24.5 79.5t-62.5 26.5
q-82 0 -156 -91.5t-103 -237.5zM974 1044h-88l-179 224l-249 -224h-92l264 378h200zM140 944z" />
    <glyph glyph-name="edieresis" unicode="&#xeb;" horiz-adv-x="1053" 
d="M867 192l34 -50q-191 -167 -424 -167q-182 0 -294 99t-112 271q0 255 182 427t441 172q144 0 222 -52.5t78 -152.5q0 -125 -160 -208.5t-472 -98.5q-2 -24 -2 -45q0 -135 55 -205.5t165 -70.5q142 0 287 81zM370 512q346 32 346 223q0 53 -24.5 79.5t-62.5 26.5
q-82 0 -156 -91.5t-103 -237.5zM637 1294q0 -64 -39 -102.5t-101 -38.5q-58 0 -95 36.5t-37 95.5q0 64 39 101.5t102 37.5q58 0 94.5 -34.5t36.5 -95.5zM1053 1294q0 -64 -39 -102.5t-101 -38.5q-58 0 -95 36.5t-37 95.5q0 64 39 101.5t102 37.5q58 0 94.5 -34.5t36.5 -95.5
zM140 944z" />
    <glyph glyph-name="igrave" unicode="&#xec;" horiz-adv-x="661" 
d="M109 896q179 46 291 46q67 0 104.5 -23.5t37.5 -73.5q0 -21 -4 -41l-131 -630q-5 -26 -5 -38q0 -40 33 -52.5t122 -12.5l-6 -47q-171 -42 -276 -42q-74 0 -115.5 29t-41.5 88q0 28 8 70l120 580q8 40 8 52q0 27 -23 38t-128 11zM448 1044h-84l-198 378h232zM-129 944z
" />
    <glyph glyph-name="iacute" unicode="&#xed;" horiz-adv-x="661" 
d="M109 896q179 46 291 46q67 0 104.5 -23.5t37.5 -73.5q0 -21 -4 -41l-131 -630q-5 -26 -5 -38q0 -40 33 -52.5t122 -12.5l-6 -47q-171 -42 -276 -42q-74 0 -115.5 29t-41.5 88q0 28 8 70l120 580q8 40 8 52q0 27 -23 38t-128 11zM494 1422h257l-328 -378h-84zM-129 944z
" />
    <glyph glyph-name="icircumflex" unicode="&#xee;" horiz-adv-x="661" 
d="M109 896q179 46 291 46q67 0 104.5 -23.5t37.5 -73.5q0 -21 -4 -41l-131 -630q-5 -26 -5 -38q0 -40 33 -52.5t122 -12.5l-6 -47q-171 -42 -276 -42q-74 0 -115.5 29t-41.5 88q0 28 8 70l120 580q8 40 8 52q0 27 -23 38t-128 11zM705 1044h-88l-179 224l-249 -224h-92
l264 378h200zM-129 944z" />
    <glyph glyph-name="idieresis" unicode="&#xef;" horiz-adv-x="661" 
d="M109 896q179 46 291 46q67 0 104.5 -23.5t37.5 -73.5q0 -21 -4 -41l-131 -630q-5 -26 -5 -38q0 -40 33 -52.5t122 -12.5l-6 -47q-171 -42 -276 -42q-74 0 -115.5 29t-41.5 88q0 28 8 70l120 580q8 40 8 52q0 27 -23 38t-128 11zM368 1294q0 -64 -39 -102.5t-101 -38.5
q-58 0 -95 36.5t-37 95.5q0 64 39 101.5t102 37.5q58 0 94.5 -34.5t36.5 -95.5zM784 1294q0 -64 -39 -102.5t-101 -38.5q-58 0 -95 36.5t-37 95.5q0 64 39 101.5t102 37.5q58 0 94.5 -34.5t36.5 -95.5zM-129 944z" />
    <glyph glyph-name="eth" unicode="&#xf0;" horiz-adv-x="1220" 
d="M376 1459l3 17h333q94 -61 160 -129l237 118l48 -80l-219 -110q198 -248 198 -571q0 -331 -155 -531.5t-428 -200.5q-212 0 -343 112.5t-131 309.5q0 222 153 372t373 150q155 0 248 -103l4 2q-26 198 -136 351l-280 -140l-47 83l267 133q-102 118 -285 217zM627 815
q-123 0 -189 -134.5t-66 -319.5q0 -138 52.5 -212.5t140.5 -74.5q120 0 185 131.5t65 320.5q0 136 -49.5 212.5t-138.5 76.5z" />
    <glyph glyph-name="ntilde" unicode="&#xf1;" horiz-adv-x="1267" 
d="M95 -5l155 755q8 40 8 53q0 18 -9.5 27t-28.5 13.5t-47.5 5.5t-65.5 1l6 46q180 46 273 46q69 0 111.5 -25t42.5 -74q0 -5 -2 -20q199 120 363 120q109 0 169.5 -57.5t60.5 -155.5q0 -43 -11 -92l-100 -474q-2 -8 -3 -15.5t-1 -14.5q0 -21 10 -33t29.5 -17.5t48.5 -7
t66 -1.5l-4 -46q-150 -47 -275 -47q-78 0 -117.5 29t-39.5 95q0 31 8 72l90 418q11 52 11 87q0 60 -27 88.5t-78 28.5q-78 0 -215 -64l-149 -731zM1118 1327q-124 -220 -240 -220q-39 0 -72 15.5t-73 39.5q-19 11 -33 19.5t-27.5 14.5t-25.5 9t-25 3q-31 0 -56.5 -17
t-87.5 -83l-52 44q75 118 127.5 166t108.5 48q31 0 59 -10q28 -11 78 -40q23 -13 39.5 -22.5t30.5 -16t26 -9.5t26 -3q33 0 56.5 16.5t85.5 83.5zM200 944z" />
    <glyph glyph-name="ograve" unicode="&#xf2;" horiz-adv-x="1201" 
d="M639 944q216 0 345 -112.5t129 -302.5q0 -240 -156.5 -398t-404.5 -158q-219 0 -346.5 112.5t-127.5 297.5q0 243 154 402t407 159zM627 841q-111 0 -184 -136.5t-72 -326.5q1 -142 51 -222t142 -80q114 0 184 140.5t70 323.5q0 142 -51 221.5t-140 79.5zM717 1044h-84
l-198 378h232zM140 944z" />
    <glyph glyph-name="oacute" unicode="&#xf3;" horiz-adv-x="1201" 
d="M639 944q216 0 345 -112.5t129 -302.5q0 -240 -156.5 -398t-404.5 -158q-219 0 -346.5 112.5t-127.5 297.5q0 243 154 402t407 159zM627 841q-111 0 -184 -136.5t-72 -326.5q1 -142 51 -222t142 -80q114 0 184 140.5t70 323.5q0 142 -51 221.5t-140 79.5zM763 1422h257
l-328 -378h-84zM140 944z" />
    <glyph glyph-name="ocircumflex" unicode="&#xf4;" horiz-adv-x="1201" 
d="M639 944q216 0 345 -112.5t129 -302.5q0 -240 -156.5 -398t-404.5 -158q-219 0 -346.5 112.5t-127.5 297.5q0 243 154 402t407 159zM627 841q-111 0 -184 -136.5t-72 -326.5q1 -142 51 -222t142 -80q114 0 184 140.5t70 323.5q0 142 -51 221.5t-140 79.5zM974 1044h-88
l-179 224l-249 -224h-92l264 378h200zM140 944z" />
    <glyph glyph-name="otilde" unicode="&#xf5;" horiz-adv-x="1201" 
d="M639 944q216 0 345 -112.5t129 -302.5q0 -240 -156.5 -398t-404.5 -158q-219 0 -346.5 112.5t-127.5 297.5q0 243 154 402t407 159zM627 841q-111 0 -184 -136.5t-72 -326.5q1 -142 51 -222t142 -80q114 0 184 140.5t70 323.5q0 142 -51 221.5t-140 79.5zM1058 1327
q-124 -220 -240 -220q-39 0 -72 15.5t-73 39.5q-19 11 -33 19.5t-27.5 14.5t-25.5 9t-25 3q-31 0 -56.5 -17t-87.5 -83l-52 44q75 118 127.5 166t108.5 48q31 0 59 -10q28 -11 78 -40q23 -13 39.5 -22.5t30.5 -16t26 -9.5t26 -3q33 0 56.5 16.5t85.5 83.5zM140 944z" />
    <glyph glyph-name="odieresis" unicode="&#xf6;" horiz-adv-x="1201" 
d="M639 944q216 0 345 -112.5t129 -302.5q0 -240 -156.5 -398t-404.5 -158q-219 0 -346.5 112.5t-127.5 297.5q0 243 154 402t407 159zM627 841q-111 0 -184 -136.5t-72 -326.5q1 -142 51 -222t142 -80q114 0 184 140.5t70 323.5q0 142 -51 221.5t-140 79.5zM637 1294
q0 -64 -39 -102.5t-101 -38.5q-58 0 -95 36.5t-37 95.5q0 64 39 101.5t102 37.5q58 0 94.5 -34.5t36.5 -95.5zM1053 1294q0 -64 -39 -102.5t-101 -38.5q-58 0 -95 36.5t-37 95.5q0 64 39 101.5t102 37.5q58 0 94.5 -34.5t36.5 -95.5zM140 944z" />
    <glyph glyph-name="divide" unicode="&#xf7;" 
d="M556 916q53 0 87 -33t34 -87t-34 -87.5t-87 -33.5q-55 0 -88.5 33.5t-33.5 87.5t33.5 87t88.5 33zM73 532h964v-141h-964v141zM556 258q53 0 87 -33t34 -87t-34 -87.5t-87 -33.5q-55 0 -88.5 33.5t-33.5 87.5t33.5 87t88.5 33z" />
    <glyph glyph-name="oslash" unicode="&#xf8;" horiz-adv-x="1201" 
d="M639 944q144 0 249 -50l78 97l70 -54l-72 -89q10 -8 20 -17q129 -112 129 -302q0 -240 -156.5 -398t-404.5 -158q-147 0 -252 50l-83 -103l-71 53l78 97q-10 7 -19 15q-127 113 -127 298q0 243 154 402t407 159zM413 163q53 -89 151 -89q116 0 187.5 141t71.5 325
q0 66 -11 118zM377 260l398 495q-52 88 -148 88q-113 0 -187.5 -137t-73.5 -328q0 -66 11 -118z" />
    <glyph glyph-name="ugrave" unicode="&#xf9;" horiz-adv-x="1266" 
d="M92 850l6 46q175 46 291 46q67 0 103.5 -23t36.5 -74q0 -24 -4 -41l-100 -454q-9 -44 -9 -81q0 -68 29.5 -105.5t80.5 -37.5q90 0 215 114l140 672l281 10l-153 -742q-6 -29 -6 -47q0 -20 7.5 -32t25.5 -18.5t47.5 -8.5t73.5 -3l-6 -47q-175 -42 -262 -42
q-75 0 -118.5 34.5t-43.5 98.5q0 9 1 19q-166 -162 -327 -162q-118 0 -189.5 70.5t-71.5 192.5q0 27 3.5 56t9.5 60l82 398q8 39 8 52q0 27 -24 38t-127 11zM752 1044h-84l-198 378h232zM175 944z" />
    <glyph glyph-name="uacute" unicode="&#xfa;" horiz-adv-x="1266" 
d="M92 850l6 46q175 46 291 46q67 0 103.5 -23t36.5 -74q0 -24 -4 -41l-100 -454q-9 -44 -9 -81q0 -68 29.5 -105.5t80.5 -37.5q90 0 215 114l140 672l281 10l-153 -742q-6 -29 -6 -47q0 -20 7.5 -32t25.5 -18.5t47.5 -8.5t73.5 -3l-6 -47q-175 -42 -262 -42
q-75 0 -118.5 34.5t-43.5 98.5q0 9 1 19q-166 -162 -327 -162q-118 0 -189.5 70.5t-71.5 192.5q0 27 3.5 56t9.5 60l82 398q8 39 8 52q0 27 -24 38t-127 11zM798 1422h257l-328 -378h-84zM175 944z" />
    <glyph glyph-name="ucircumflex" unicode="&#xfb;" horiz-adv-x="1266" 
d="M92 850l6 46q175 46 291 46q67 0 103.5 -23t36.5 -74q0 -24 -4 -41l-100 -454q-9 -44 -9 -81q0 -68 29.5 -105.5t80.5 -37.5q90 0 215 114l140 672l281 10l-153 -742q-6 -29 -6 -47q0 -20 7.5 -32t25.5 -18.5t47.5 -8.5t73.5 -3l-6 -47q-175 -42 -262 -42
q-75 0 -118.5 34.5t-43.5 98.5q0 9 1 19q-166 -162 -327 -162q-118 0 -189.5 70.5t-71.5 192.5q0 27 3.5 56t9.5 60l82 398q8 39 8 52q0 27 -24 38t-127 11zM1009 1044h-88l-179 224l-249 -224h-92l264 378h200zM175 944z" />
    <glyph glyph-name="udieresis" unicode="&#xfc;" horiz-adv-x="1266" 
d="M92 850l6 46q175 46 291 46q67 0 103.5 -23t36.5 -74q0 -24 -4 -41l-100 -454q-9 -44 -9 -81q0 -68 29.5 -105.5t80.5 -37.5q90 0 215 114l140 672l281 10l-153 -742q-6 -29 -6 -47q0 -20 7.5 -32t25.5 -18.5t47.5 -8.5t73.5 -3l-6 -47q-175 -42 -262 -42
q-75 0 -118.5 34.5t-43.5 98.5q0 9 1 19q-166 -162 -327 -162q-118 0 -189.5 70.5t-71.5 192.5q0 27 3.5 56t9.5 60l82 398q8 39 8 52q0 27 -24 38t-127 11zM672 1294q0 -64 -39 -102.5t-101 -38.5q-58 0 -95 36.5t-37 95.5q0 64 39 101.5t102 37.5q58 0 94.5 -34.5
t36.5 -95.5zM1088 1294q0 -64 -39 -102.5t-101 -38.5q-58 0 -95 36.5t-37 95.5q0 64 39 101.5t102 37.5q58 0 94.5 -34.5t36.5 -95.5zM175 944z" />
    <glyph glyph-name="yacute" unicode="&#xfd;" horiz-adv-x="1065" 
d="M772 874q148 41 269 77l22 -15q-39 -108 -80.5 -203t-84 -179t-85 -158.5t-82.5 -140.5q-42 -69 -78.5 -129.5t-68.5 -116.5q-26 -44 -53.5 -99.5t-54 -113t-48.5 -112t-37 -94.5q-12 -33 -29.5 -51.5t-42.5 -27.5t-59.5 -11t-80.5 -2q-125 0 -218 10l-5 51
q60 7 109.5 22t84.5 43q21 16 46.5 40.5t60 66.5t81 106.5t109.5 160.5l-56 13q-7 54 -22 126t-35 150t-43 157.5t-46 147.5t-44 119.5t-36 74.5q-16 24 -35 36.5t-41.5 18t-49 7t-56.5 2.5l6 46q171 46 266 46q54 0 96 -16t62 -52q15 -27 37 -79t45 -120.5t46.5 -148.5
t41.5 -163l19 -108q78 152 121.5 305.5t48.5 313.5zM703 1422h257l-328 -378h-84zM80 944z" />
    <glyph glyph-name="thorn" unicode="&#xfe;" horiz-adv-x="1175" 
d="M194 1419q260 41 459 87l12 -12q-9 -38 -20 -86.5t-23.5 -106t-26 -122.5t-28.5 -134l-44 -212q215 109 288 109q120 0 201.5 -100.5t81.5 -242.5q0 -276 -175.5 -449.5t-456.5 -173.5q-52 0 -113 8l-42 -208q-11 -51 -17.5 -85t-9.5 -55q-4 -30 20 -36l145 -37l-10 -49
q-197 3 -300 3q-121 0 -290 -3l6 49l120 34q28 9 32 31q9 37 20.5 91.5t26.5 129.5l309 1503l-166 24zM368 77q43 -8 78 -8q166 0 261.5 144t95.5 335q0 109 -30 177.5t-92 68.5q-75 0 -178 -57z" />
    <glyph glyph-name="ydieresis" unicode="&#xff;" horiz-adv-x="1065" 
d="M772 874q148 41 269 77l22 -15q-39 -108 -80.5 -203t-84 -179t-85 -158.5t-82.5 -140.5q-42 -69 -78.5 -129.5t-68.5 -116.5q-26 -44 -53.5 -99.5t-54 -113t-48.5 -112t-37 -94.5q-12 -33 -29.5 -51.5t-42.5 -27.5t-59.5 -11t-80.5 -2q-125 0 -218 10l-5 51
q60 7 109.5 22t84.5 43q21 16 46.5 40.5t60 66.5t81 106.5t109.5 160.5l-56 13q-7 54 -22 126t-35 150t-43 157.5t-46 147.5t-44 119.5t-36 74.5q-16 24 -35 36.5t-41.5 18t-49 7t-56.5 2.5l6 46q171 46 266 46q54 0 96 -16t62 -52q15 -27 37 -79t45 -120.5t46.5 -148.5
t41.5 -163l19 -108q78 152 121.5 305.5t48.5 313.5zM577 1294q0 -64 -39 -102.5t-101 -38.5q-58 0 -95 36.5t-37 95.5q0 64 39 101.5t102 37.5q58 0 94.5 -34.5t36.5 -95.5zM993 1294q0 -64 -39 -102.5t-101 -38.5q-58 0 -95 36.5t-37 95.5q0 64 39 101.5t102 37.5
q58 0 94.5 -34.5t36.5 -95.5zM80 944z" />
    <glyph glyph-name="Amacron" unicode="&#x100;" horiz-adv-x="1367" 
d="M324 50l-9 -53q-136 3 -248 3t-213 -3l6 51l111 31q48 17 74.5 48t46.5 64l718 1213l110 17l209 -1215q6 -34 12.5 -57.5t14.5 -36.5q16 -26 51 -36l106 -28l-7 -51q-163 3 -308 3q-141 0 -315 -3l5 51l97 28q21 7 34.5 18t13.5 43q0 31 -15 120l-30 186h-415l-105 -183
q-32 -57 -52 -96t-20 -56q0 -20 34 -31zM431 546h340l-59 368l-13 106l-57 -105zM595 1557l24 122h570l-24 -122h-570zM260 1400z" />
    <glyph glyph-name="amacron" unicode="&#x101;" horiz-adv-x="1185" 
d="M1093 931q-37 -122 -75 -312l-90 -445q-5 -23 -5 -38q0 -21 8.5 -33.5t27 -20t48 -9.5t72.5 -2l-7 -47q-175 -42 -264 -42q-75 0 -117.5 33.5t-42.5 96.5v20q-181 -159 -261 -159q-136 0 -226 104.5t-90 265.5q0 253 172.5 427t435.5 174q116 0 250 -37q74 13 147 35z
M784 827q-54 25 -123 25q-131 0 -216 -150t-85 -322q0 -101 31.5 -177.5t72.5 -76.5q56 0 198 107zM460 1184l24 122h570l-24 -122h-570zM183 944z" />
    <glyph glyph-name="Abreve" unicode="&#x102;" horiz-adv-x="1367" 
d="M324 50l-9 -53q-136 3 -248 3t-213 -3l6 51l111 31q48 17 74.5 48t46.5 64l718 1213l110 17l209 -1215q6 -34 12.5 -57.5t14.5 -36.5q16 -26 51 -36l106 -28l-7 -51q-163 3 -308 3q-141 0 -315 -3l5 51l97 28q21 7 34.5 18t13.5 43q0 31 -15 120l-30 186h-415l-105 -183
q-32 -57 -52 -96t-20 -56q0 -20 34 -31zM431 546h340l-59 368l-13 106l-57 -105zM712 1822q0 -82 45.5 -125t137.5 -43q84 0 142.5 42.5t90.5 118.5l72 7q-20 -138 -105 -227.5t-218 -89.5q-119 0 -180.5 60.5t-61.5 177.5q0 33 6 72zM260 1400z" />
    <glyph glyph-name="abreve" unicode="&#x103;" horiz-adv-x="1185" 
d="M1093 931q-37 -122 -75 -312l-90 -445q-5 -23 -5 -38q0 -21 8.5 -33.5t27 -20t48 -9.5t72.5 -2l-7 -47q-175 -42 -264 -42q-75 0 -117.5 33.5t-42.5 96.5v20q-181 -159 -261 -159q-136 0 -226 104.5t-90 265.5q0 253 172.5 427t435.5 174q116 0 250 -37q74 13 147 35z
M784 827q-54 25 -123 25q-131 0 -216 -150t-85 -322q0 -101 31.5 -177.5t72.5 -76.5q56 0 198 107zM564 1399q0 -93 45 -143t131 -50q84 0 141 49t89 137l76 7q-21 -153 -106.5 -251.5t-222.5 -98.5q-113 0 -174 67.5t-61 196.5q0 36 6 79zM183 944z" />
    <glyph glyph-name="Aogonek" unicode="&#x104;" horiz-adv-x="1368" 
d="M432 546h340l-59 368l-13 106l-57 -105zM1307 -3q-151 3 -354 3q-102 0 -172 -79t-70 -177q0 -64 38.5 -99.5t108.5 -35.5q33 0 77 9l10 -52q-170 -61 -271 -61q-102 0 -161.5 46.5t-59.5 127.5q0 98 81 189t247 189q35 20 43.5 35t8.5 45q0 37 -13 114l-31 192h-415
l-105 -183q-32 -57 -52 -96t-20 -56q0 -21 34 -31l94 -27l-9 -53q-137 3 -248 3q-113 0 -213 -3l6 51l111 31q48 17 74.5 48t46.5 64l718 1213l110 17l209 -1215q6 -34 12.5 -57.5t14.5 -36.5q16 -26 51 -36l106 -28z" />
    <glyph glyph-name="aogonek" unicode="&#x105;" horiz-adv-x="1185" 
d="M1093 931q-37 -122 -75 -312l-90 -445q-5 -23 -5 -38q0 -21 8.5 -33.5t27 -20t48 -9.5t72.5 -2l-7 -47q-101 -24 -173 -34q-62 -36 -107 -105.5t-45 -140.5q0 -64 38.5 -99.5t108.5 -35.5q33 0 77 9l10 -52q-171 -61 -271 -61q-101 0 -161 47t-60 127q0 171 255 311
q-96 26 -96 122v20q-181 -159 -261 -159q-136 0 -226 104.5t-90 265.5q0 253 172.5 427t435.5 174q116 0 250 -37q74 13 147 35zM784 827q-54 25 -123 25q-131 0 -216 -150t-85 -322q0 -101 31.5 -177.5t72.5 -76.5q56 0 198 107z" />
    <glyph glyph-name="Cacute" unicode="&#x106;" horiz-adv-x="1356" 
d="M1285 1022l-56 -9l-32 287q-68 24 -161 24q-258 0 -429.5 -217t-171.5 -522q0 -227 126 -356.5t344 -129.5q138 0 285 60l21 -59q-215 -130 -469 -130q-285 0 -455.5 161.5t-170.5 430.5q0 378 266.5 619.5t668.5 241.5q174 0 352 -41l4 -10zM1283 1647l-485 -174l-31 52
l360 275l156 -138v-15zM395 1400z" />
    <glyph glyph-name="cacute" unicode="&#x107;" horiz-adv-x="1002" 
d="M817 200l34 -50q-172 -177 -390 -177q-168 0 -277.5 104.5t-109.5 284.5q0 247 182 414t433 167q141 0 267 -46q-37 -145 -65 -295l-50 -8l-77 242q-27 8 -61 8q-151 0 -244 -130.5t-93 -320.5q0 -133 58.5 -206.5t158.5 -73.5q109 0 234 87zM773 1422h257l-328 -378h-84
zM150 944z" />
    <glyph glyph-name="Ccircumflex" unicode="&#x108;" horiz-adv-x="1356" 
d="M1285 1022l-56 -9l-32 287q-68 24 -161 24q-258 0 -429.5 -217t-171.5 -522q0 -227 126 -356.5t344 -129.5q138 0 285 60l21 -59q-215 -130 -469 -130q-285 0 -455.5 161.5t-170.5 430.5q0 378 266.5 619.5t668.5 241.5q174 0 352 -41l4 -10zM1022 1622l-341 -147l-27 52
l302 249h168l242 -254l-37 -47zM395 1400z" />
    <glyph glyph-name="ccircumflex" unicode="&#x109;" horiz-adv-x="1002" 
d="M817 200l34 -50q-172 -177 -390 -177q-168 0 -277.5 104.5t-109.5 284.5q0 247 182 414t433 167q141 0 267 -46q-37 -145 -65 -295l-50 -8l-77 242q-27 8 -61 8q-151 0 -244 -130.5t-93 -320.5q0 -133 58.5 -206.5t158.5 -73.5q109 0 234 87zM984 1044h-88l-179 224
l-249 -224h-92l264 378h200zM150 944z" />
    <glyph glyph-name="Cdotaccent" unicode="&#x10a;" horiz-adv-x="1356" 
d="M1285 1022l-56 -9l-32 287q-68 24 -161 24q-258 0 -429.5 -217t-171.5 -522q0 -227 126 -356.5t344 -129.5q138 0 285 60l21 -59q-215 -130 -469 -130q-285 0 -455.5 161.5t-170.5 430.5q0 378 266.5 619.5t668.5 241.5q174 0 352 -41l4 -10zM1174 1661q0 -63 -41 -102.5
t-103 -39.5q-61 0 -100 37t-39 95q0 65 41 102.5t104 37.5q61 0 99.5 -34.5t38.5 -95.5zM395 1400z" />
    <glyph glyph-name="cdotaccent" unicode="&#x10b;" horiz-adv-x="1002" 
d="M817 200l34 -50q-172 -177 -390 -177q-168 0 -277.5 104.5t-109.5 284.5q0 247 182 414t433 167q141 0 267 -46q-37 -145 -65 -295l-50 -8l-77 242q-27 8 -61 8q-151 0 -244 -130.5t-93 -320.5q0 -133 58.5 -206.5t158.5 -73.5q109 0 234 87zM865 1304q0 -67 -41.5 -109
t-103.5 -42q-61 0 -100.5 39.5t-39.5 101.5q0 69 41.5 109t104.5 40q61 0 100 -37t39 -102zM151 950z" />
    <glyph glyph-name="Ccaron" unicode="&#x10c;" horiz-adv-x="1356" 
d="M1285 1022l-56 -9l-32 287q-68 24 -161 24q-258 0 -429.5 -217t-171.5 -522q0 -227 126 -356.5t344 -129.5q138 0 285 60l21 -59q-215 -130 -469 -130q-285 0 -455.5 161.5t-170.5 430.5q0 378 266.5 619.5t668.5 241.5q174 0 352 -41l4 -10zM1021 1652l341 147l27 -52
l-299 -249h-168l-245 254l37 47zM395 1400z" />
    <glyph glyph-name="ccaron" unicode="&#x10d;" horiz-adv-x="1002" 
d="M817 200l34 -50q-172 -177 -390 -177q-168 0 -277.5 104.5t-109.5 284.5q0 247 182 414t433 167q141 0 267 -46q-37 -145 -65 -295l-50 -8l-77 242q-27 8 -61 8q-151 0 -244 -130.5t-93 -320.5q0 -133 58.5 -206.5t158.5 -73.5q109 0 234 87zM436 1422h88l179 -224
l249 224h92l-264 -378h-200zM150 944z" />
    <glyph glyph-name="Dcaron" unicode="&#x10e;" horiz-adv-x="1627" 
d="M295 0q-149 0 -291 -3l6 51l135 37q30 8 34 31q8 40 18 89.5t22 109.5l151 795q10 51 17 92t12 74q5 25 -17 34l-131 39l8 51q153 -4 304 -4q64 0 159 5t168 5q321 0 500 -136t179 -403q0 -384 -263 -628.5t-685 -244.5q-77 0 -141 3t-185 3zM474 99q75 -12 143 -12
q296 0 466.5 213t170.5 568q0 226 -92.5 333.5t-283.5 107.5q-75 0 -175 -8zM926 1652l341 147l27 -52l-299 -249h-168l-245 254l37 47zM300 1400z" />
    <glyph glyph-name="dcaron" unicode="&#x10f;" horiz-adv-x="1368" 
d="M732 1376l1 43q266 41 465 87l12 -12q-9 -38 -20 -86.5t-23.5 -106t-26 -122.5t-28.5 -134l-116 -559l-63 -312q-5 -23 -5 -38q0 -21 8.5 -33.5t27 -20t48 -9.5t72.5 -2l-7 -47q-175 -42 -264 -42q-75 0 -117 33.5t-42 96.5v20q-185 -159 -267 -159q-136 0 -226 104.5
t-90 265.5q0 253 171.5 427t433.5 174q64 0 136 -11l86 419zM790 827q-59 25 -132 25q-130 0 -214 -150t-84 -322q0 -101 31.5 -177.5t72.5 -76.5q58 0 204 107zM1254 1008q114 111 114 219q0 88 -93 138q3 55 37 86.5t90 31.5t91 -39.5t35 -104.5q0 -192 -237 -372z" />
    <glyph glyph-name="Dcroat" unicode="&#x110;" horiz-adv-x="1627" 
d="M295 0q-149 0 -291 -3l6 51l135 37q30 8 34 31q8 40 18 89.5t22 109.5l70 370h-160l20 106h160l61 319q10 51 17 92t12 74q5 25 -17 34l-131 39l8 51q153 -4 304 -4q64 0 159 5t168 5q321 0 500 -136t179 -403q0 -384 -263 -628.5t-685 -244.5q-77 0 -141 3t-185 3z
M474 99q75 -12 143 -12q296 0 466.5 213t170.5 568q0 226 -92.5 333.5t-283.5 107.5q-75 0 -175 -8l-98 -510h274l-20 -106h-274z" />
    <glyph glyph-name="dcroat" unicode="&#x111;" horiz-adv-x="1190" 
d="M732 1376l1 43q266 41 465 87l12 -12q-9 -38 -20 -86.5t-23 -102.5t-23 -110h158l-19 -95h-160l-127 -614l-63 -312q-5 -23 -5 -38q0 -21 8.5 -33.5t27 -20t48 -9.5t72.5 -2l-7 -47q-175 -42 -264 -42q-75 0 -117 33.5t-42 96.5v20q-185 -159 -267 -159
q-136 0 -226 104.5t-90 265.5q0 253 170.5 420.5t432.5 167.5q64 0 136 -11l36 180h-359l19 95h360l32 157zM788 814q-59 25 -132 25q-130 0 -213 -143.5t-83 -315.5q0 -101 31.5 -177.5t72.5 -76.5q58 0 204 107z" />
    <glyph glyph-name="Emacron" unicode="&#x112;" horiz-adv-x="1223" 
d="M567 1396h196q239 0 508 4l5 -8l-115 -333l-56 -8l-28 244h-375l-101 -533h43q72 0 200 1q28 1 39 27l62 137l62 2q-50 -218 -83 -426l-62 -4l-11 138q-2 26 -25 27q-88 2 -203 2h-42l-65 -342q-21 -111 -40 -221h408l168 266l63 9l-86 -374l-8 -7q-268 3 -503 3h-223
q-150 0 -292 -3l6 51l135 37q27 7 34 31q8 40 18 89.5t22 109.5l152 795q10 51 17 92t12 74q5 26 -17 34l-132 39l8 51q152 -4 309 -4zM535 1557l24 122h570l-24 -122h-570zM200 1400z" />
    <glyph glyph-name="emacron" unicode="&#x113;" horiz-adv-x="1053" 
d="M867 192l34 -50q-191 -167 -424 -167q-182 0 -294 99t-112 271q0 255 182 427t441 172q144 0 222 -52.5t78 -152.5q0 -125 -160 -208.5t-472 -98.5q-2 -24 -2 -45q0 -135 55 -205.5t165 -70.5q142 0 287 81zM370 512q346 32 346 223q0 53 -24.5 79.5t-62.5 26.5
q-82 0 -156 -91.5t-103 -237.5zM417 1184l24 122h570l-24 -122h-570zM140 944z" />
    <glyph glyph-name="Ebreve" unicode="&#x114;" horiz-adv-x="1223" 
d="M567 1396h196q239 0 508 4l5 -8l-115 -333l-56 -8l-28 244h-375l-101 -533h43q72 0 200 1q28 1 39 27l62 137l62 2q-50 -218 -83 -426l-62 -4l-11 138q-2 26 -25 27q-88 2 -203 2h-42l-65 -342q-21 -111 -40 -221h408l168 266l63 9l-86 -374l-8 -7q-268 3 -503 3h-223
q-150 0 -292 -3l6 51l135 37q27 7 34 31q8 40 18 89.5t22 109.5l152 795q10 51 17 92t12 74q5 26 -17 34l-132 39l8 51q152 -4 309 -4zM652 1822q0 -82 45.5 -125t137.5 -43q84 0 142.5 42.5t90.5 118.5l72 7q-20 -138 -105 -227.5t-218 -89.5q-119 0 -180.5 60.5
t-61.5 177.5q0 33 6 72zM200 1400z" />
    <glyph glyph-name="ebreve" unicode="&#x115;" horiz-adv-x="1053" 
d="M867 192l34 -50q-191 -167 -424 -167q-182 0 -294 99t-112 271q0 255 182 427t441 172q144 0 222 -52.5t78 -152.5q0 -125 -160 -208.5t-472 -98.5q-2 -24 -2 -45q0 -135 55 -205.5t165 -70.5q142 0 287 81zM370 512q346 32 346 223q0 53 -24.5 79.5t-62.5 26.5
q-82 0 -156 -91.5t-103 -237.5zM521 1399q0 -93 45 -143t131 -50q84 0 141 49t89 137l76 7q-21 -153 -106.5 -251.5t-222.5 -98.5q-113 0 -174 67.5t-61 196.5q0 36 6 79zM140 944z" />
    <glyph glyph-name="Edotaccent" unicode="&#x116;" horiz-adv-x="1223" 
d="M567 1396h196q239 0 508 4l5 -8l-115 -333l-56 -8l-28 244h-375l-101 -533h43q72 0 200 1q28 1 39 27l62 137l62 2q-50 -218 -83 -426l-62 -4l-11 138q-2 26 -25 27q-88 2 -203 2h-42l-65 -342q-21 -111 -40 -221h408l168 266l63 9l-86 -374l-8 -7q-268 3 -503 3h-223
q-150 0 -292 -3l6 51l135 37q27 7 34 31q8 40 18 89.5t22 109.5l152 795q10 51 17 92t12 74q5 26 -17 34l-132 39l8 51q152 -4 309 -4zM979 1661q0 -63 -41 -102.5t-103 -39.5q-61 0 -100 37t-39 95q0 65 41 102.5t104 37.5q61 0 99.5 -34.5t38.5 -95.5zM200 1400z" />
    <glyph glyph-name="edotaccent" unicode="&#x117;" horiz-adv-x="1053" 
d="M867 192l34 -50q-191 -167 -424 -167q-182 0 -294 99t-112 271q0 255 182 427t441 172q144 0 222 -52.5t78 -152.5q0 -125 -160 -208.5t-472 -98.5q-2 -24 -2 -45q0 -135 55 -205.5t165 -70.5q142 0 287 81zM370 512q346 32 346 223q0 53 -24.5 79.5t-62.5 26.5
q-82 0 -156 -91.5t-103 -237.5zM855 1304q0 -67 -41.5 -109t-103.5 -42q-61 0 -100.5 39.5t-39.5 101.5q0 69 41.5 109t104.5 40q61 0 100 -37t39 -102zM141 950z" />
    <glyph glyph-name="Eogonek" unicode="&#x118;" horiz-adv-x="1223" 
d="M567 1396h196q239 0 508 4l5 -8l-115 -333l-56 -8l-28 244h-375l-101 -532h43q72 0 200 1q28 1 39 27l62 136l62 2q-50 -218 -83 -426l-62 -4l-11 138q-2 26 -25 27q-88 2 -203 2h-42l-65 -342q-21 -111 -40 -221h408l168 266l63 9l-86 -374l-8 -7q-65 2 -128 3
q-76 -34 -125.5 -109.5t-49.5 -146.5q0 -64 38.5 -99.5t108.5 -35.5q33 0 77 9l10 -52q-171 -61 -271 -61q-101 0 -161 47t-60 127q0 174 265 317v4h-430q-150 0 -292 -3l6 51l135 37q27 7 34 31q8 40 18 89.5t22 109.5l152 795q10 51 17 92t12 74q5 26 -17 34l-132 39l8 51
q152 -4 309 -4z" />
    <glyph glyph-name="eogonek" unicode="&#x119;" horiz-adv-x="1053" 
d="M867 192l34 -50q-74 -64 -153 -104q-197 -134 -197 -294q0 -64 38.5 -99.5t108.5 -35.5q33 0 77 9l10 -52q-171 -61 -271 -61q-101 0 -161 47t-60 127q0 165 237 295l-1 3q-26 -2 -52 -2q-182 0 -294 99t-112 271q0 255 182 427t441 172q144 0 222 -52.5t78 -152.5
q0 -125 -160 -208.5t-472 -98.5q-2 -24 -2 -45q0 -135 55 -205.5t165 -70.5q142 0 287 81zM370 512q346 32 346 223q0 53 -24.5 79.5t-62.5 26.5q-82 0 -156 -91.5t-103 -237.5z" />
    <glyph glyph-name="Ecaron" unicode="&#x11a;" horiz-adv-x="1223" 
d="M567 1396h196q239 0 508 4l5 -8l-115 -333l-56 -8l-28 244h-375l-101 -533h43q72 0 200 1q28 1 39 27l62 137l62 2q-50 -218 -83 -426l-62 -4l-11 138q-2 26 -25 27q-88 2 -203 2h-42l-65 -342q-21 -111 -40 -221h408l168 266l63 9l-86 -374l-8 -7q-268 3 -503 3h-223
q-150 0 -292 -3l6 51l135 37q27 7 34 31q8 40 18 89.5t22 109.5l152 795q10 51 17 92t12 74q5 26 -17 34l-132 39l8 51q152 -4 309 -4zM826 1652l341 147l27 -52l-299 -249h-168l-245 254l37 47zM200 1400z" />
    <glyph glyph-name="ecaron" unicode="&#x11b;" horiz-adv-x="1053" 
d="M867 192l34 -50q-191 -167 -424 -167q-182 0 -294 99t-112 271q0 255 182 427t441 172q144 0 222 -52.5t78 -152.5q0 -125 -160 -208.5t-472 -98.5q-2 -24 -2 -45q0 -135 55 -205.5t165 -70.5q142 0 287 81zM370 512q346 32 346 223q0 53 -24.5 79.5t-62.5 26.5
q-82 0 -156 -91.5t-103 -237.5zM426 1422h88l179 -224l249 224h92l-264 -378h-200zM140 944z" />
    <glyph glyph-name="Gcircumflex" unicode="&#x11c;" horiz-adv-x="1489" 
d="M1316 1031l-58 -8l-28 275q-82 28 -197 28q-265 0 -433 -217.5t-168 -519.5q0 -227 111 -375t292 -148q42 0 85 7l50 267q11 51 18 91.5t13 74.5q4 27 -18 34l-121 39l7 43q82 -2 157.5 -3t145.5 -1q74 0 143.5 1t135.5 3l-4 -43l-110 -33q-29 -8 -33 -30
q-9 -40 -17 -81.5t-18 -90.5l-61 -317l-8 -7q-213 -50 -404 -50q-320 0 -501 154t-181 431q0 385 267.5 626.5t691.5 241.5q158 0 356 -41l5 -9zM1057 1622l-341 -147l-27 52l302 249h168l242 -254l-37 -47zM430 1400z" />
    <glyph glyph-name="gcircumflex" unicode="&#x11d;" horiz-adv-x="1170" 
d="M1082 942l17 -11q-37 -118 -75 -308l-93 -451q-70 -341 -216 -507t-391 -166q-168 0 -348 55q32 137 70 252l14 6q256 -198 332 -198q85 0 137.5 101t99.5 325l19 94q-175 -151 -258 -151q-136 0 -227 103t-91 263q0 251 172 423t433 172q128 0 258 -37q76 14 147 35z
M792 827q-56 25 -133 25q-129 0 -213.5 -148.5t-84.5 -316.5q0 -97 31.5 -174t74.5 -77q57 0 203 107zM1017 1044h-88l-179 224l-249 -224h-92l264 378h200zM183 944z" />
    <glyph glyph-name="Gbreve" unicode="&#x11e;" horiz-adv-x="1489" 
d="M1316 1031l-58 -8l-28 275q-82 28 -197 28q-265 0 -433 -217.5t-168 -519.5q0 -227 111 -375t292 -148q42 0 85 7l50 267q11 51 18 91.5t13 74.5q4 27 -18 34l-121 39l7 43q82 -2 157.5 -3t145.5 -1q74 0 143.5 1t135.5 3l-4 -43l-110 -33q-29 -8 -33 -30
q-9 -40 -17 -81.5t-18 -90.5l-61 -317l-8 -7q-213 -50 -404 -50q-320 0 -501 154t-181 431q0 385 267.5 626.5t691.5 241.5q158 0 356 -41l5 -9zM882 1822q0 -82 45.5 -125t137.5 -43q84 0 142.5 42.5t90.5 118.5l72 7q-20 -138 -105 -227.5t-218 -89.5q-119 0 -180.5 60.5
t-61.5 177.5q0 33 6 72zM430 1400z" />
    <glyph glyph-name="gbreve" unicode="&#x11f;" horiz-adv-x="1170" 
d="M1082 942l17 -11q-37 -118 -75 -308l-93 -451q-70 -341 -216 -507t-391 -166q-168 0 -348 55q32 137 70 252l14 6q256 -198 332 -198q85 0 137.5 101t99.5 325l19 94q-175 -151 -258 -151q-136 0 -227 103t-91 263q0 251 172 423t433 172q128 0 258 -37q76 14 147 35z
M792 827q-56 25 -133 25q-129 0 -213.5 -148.5t-84.5 -316.5q0 -97 31.5 -174t74.5 -77q57 0 203 107zM564 1399q0 -93 45 -143t131 -50q84 0 141 49t89 137l76 7q-21 -153 -106.5 -251.5t-222.5 -98.5q-113 0 -174 67.5t-61 196.5q0 36 6 79zM183 944z" />
    <glyph glyph-name="Gdotaccent" unicode="&#x120;" horiz-adv-x="1489" 
d="M1316 1031l-58 -8l-28 275q-82 28 -197 28q-265 0 -433 -217.5t-168 -519.5q0 -227 111 -375t292 -148q42 0 85 7l50 267q11 51 18 91.5t13 74.5q4 27 -18 34l-121 39l7 43q82 -2 157.5 -3t145.5 -1q74 0 143.5 1t135.5 3l-4 -43l-110 -33q-29 -8 -33 -30
q-9 -40 -17 -81.5t-18 -90.5l-61 -317l-8 -7q-213 -50 -404 -50q-320 0 -501 154t-181 431q0 385 267.5 626.5t691.5 241.5q158 0 356 -41l5 -9zM1209 1661q0 -63 -41 -102.5t-103 -39.5q-61 0 -100 37t-39 95q0 65 41 102.5t104 37.5q61 0 99.5 -34.5t38.5 -95.5zM430 1400
z" />
    <glyph glyph-name="gdotaccent" unicode="&#x121;" horiz-adv-x="1170" 
d="M1082 942l17 -11q-37 -118 -75 -308l-93 -451q-70 -341 -216 -507t-391 -166q-168 0 -348 55q32 137 70 252l14 6q256 -198 332 -198q85 0 137.5 101t99.5 325l19 94q-175 -151 -258 -151q-136 0 -227 103t-91 263q0 251 172 423t433 172q128 0 258 -37q76 14 147 35z
M792 827q-56 25 -133 25q-129 0 -213.5 -148.5t-84.5 -316.5q0 -97 31.5 -174t74.5 -77q57 0 203 107zM898 1304q0 -67 -41.5 -109t-103.5 -42q-61 0 -100.5 39.5t-39.5 101.5q0 69 41.5 109t104.5 40q61 0 100 -37t39 -102zM184 950z" />
    <glyph glyph-name="uni0122" unicode="&#x122;" horiz-adv-x="1489" 
d="M1316 1031l-58 -8l-28 275q-82 28 -197 28q-265 0 -433 -217.5t-168 -519.5q0 -227 111 -375t292 -148q42 0 85 7l50 267q11 51 18 91.5t13 74.5q4 27 -18 34l-121 39l7 43q82 -2 157.5 -3t145.5 -1q74 0 143.5 1t135.5 3l-4 -43l-110 -33q-29 -8 -33 -30
q-9 -40 -17 -81.5t-18 -90.5l-61 -317l-8 -7q-213 -50 -404 -50q-320 0 -501 154t-181 431q0 385 267.5 626.5t691.5 241.5q158 0 356 -41l5 -9zM588 -461q109 83 109 165q0 68 -73 107q0 50 30.5 79.5t77.5 29.5q50 0 81 -36.5t31 -93.5q0 -157 -220 -291z" />
    <glyph glyph-name="uni0123" unicode="&#x123;" horiz-adv-x="1170" 
d="M1082 942l17 -11q-37 -118 -75 -308l-93 -451q-70 -341 -216 -507t-391 -166q-168 0 -348 55q32 137 70 252l14 6q256 -198 332 -198q85 0 137.5 101t99.5 325l19 94q-175 -151 -258 -151q-136 0 -227 103t-91 263q0 251 172 423t433 172q128 0 258 -37q76 14 147 35z
M792 827q-56 25 -133 25q-129 0 -213.5 -148.5t-84.5 -316.5q0 -97 31.5 -174t74.5 -77q57 0 203 107zM890 1421q-109 -83 -109 -165q0 -68 73 -107q0 -50 -30.5 -79.5t-77.5 -29.5q-50 0 -81 36.5t-31 93.5q0 157 220 291zM1060 950z" />
    <glyph glyph-name="Hcircumflex" unicode="&#x124;" horiz-adv-x="1695" 
d="M585 686l-71 -371q-22 -118 -34 -198q-4 -27 20 -34l117 -35l-9 -51q-160 3 -291 3q-148 0 -313 -3l6 51l135 37q29 8 34 31q18 80 40 198l151 795q19 100 29 167q5 26 -17 34l-131 39l9 51q175 -4 318 -4q136 0 292 4l-6 -52l-130 -35q-26 -6 -32 -31q-16 -72 -35 -169
l-61 -321h602l61 322q19 97 31 169q4 25 -20 31l-117 35l9 51q163 -4 297 -4q146 0 316 4l-6 -51l-150 -39q-24 -8 -30 -34q-15 -66 -34 -166l-151 -795q-21 -118 -35 -199q-3 -23 20 -31l129 -37l-9 -51q-178 3 -321 3q-137 0 -286 -3l6 51l127 35q27 7 33 34q18 80 40 198
l70 371h-603zM1052 1622l-341 -147l-27 52l302 249h168l242 -254l-37 -47zM425 1400z" />
    <glyph glyph-name="hcircumflex" unicode="&#x125;" horiz-adv-x="1252" 
d="M81 -5l278 1357l-166 24l1 43q266 41 465 87l12 -12q-9 -38 -20 -86.5t-23.5 -106t-26 -122.5t-28.5 -134l-45 -219q196 117 358 117q109 0 169.5 -57.5t60.5 -155.5q0 -43 -11 -92l-100 -474q-2 -8 -3 -15.5t-1 -14.5q0 -21 10 -33t29.5 -17.5t48.5 -7t66 -1.5l-4 -46
q-150 -47 -275 -47q-78 0 -117.5 29t-39.5 95q0 31 8 72l90 418q11 52 11 87q0 60 -27 88.5t-78 28.5q-78 0 -214 -64l-150 -731zM533 1675l-341 -147l-27 52l302 249h168l242 -254l-37 -47z" />
    <glyph glyph-name="Hbar" unicode="&#x126;" horiz-adv-x="1695" 
d="M583 676l-69 -361q-22 -118 -34 -198q-4 -27 20 -34l117 -35l-9 -51q-160 3 -291 3q-148 0 -313 -3l6 51l135 37q29 8 34 31q18 80 40 198l129 681h-177l20 104h177l2 11q19 100 29 167q5 26 -17 34l-131 39l9 51q175 -4 318 -4q136 0 292 4l-6 -52l-130 -35
q-26 -6 -32 -31q-16 -72 -35 -169l-3 -15h602l3 15q19 97 31 169q4 25 -20 31l-117 35l9 51q163 -4 297 -4q146 0 316 4l-6 -51l-150 -39q-24 -8 -30 -34q-15 -66 -34 -166l-2 -11h176l-20 -104h-176l-129 -680q-21 -118 -35 -199q-3 -23 20 -31l129 -37l-9 -51
q-178 3 -321 3q-137 0 -286 -3l6 51l127 35q27 7 33 34q18 80 40 198l68 361h-603zM1206 782l40 213h-602l-40 -213h602z" />
    <glyph glyph-name="hbar" unicode="&#x127;" horiz-adv-x="1252" 
d="M81 -5l226 1105h-172l20 95h172l32 157l-166 24l1 43q266 41 465 87l12 -12q-33 -139 -66 -299h351l-20 -95h-352l-60 -288q196 117 358 117q109 0 169.5 -57.5t60.5 -155.5q0 -43 -11 -92l-96 -460q-2 -8 -3 -15.5t-1 -14.5q0 -21 10 -33t29.5 -17.5t48.5 -7t66 -1.5
l-4 -46q-150 -47 -275 -47q-78 0 -117.5 29t-39.5 95q0 31 8 72l86 404q11 52 11 87q0 60 -27 88.5t-78 28.5q-78 0 -214 -64l-146 -717z" />
    <glyph glyph-name="Itilde" unicode="&#x128;" horiz-adv-x="796" 
d="M514 315q-12 -60 -21 -109t-15 -89q-3 -25 28 -34l122 -35l-8 -51q-170 3 -308 3q-148 0 -307 -3l4 51l135 37q28 8 34 31q9 39 18.5 89t21.5 110l153 795q10 51 17 92t12 74q5 27 -17 34l-131 39l9 51q85 -2 163 -3t150 -1t147 1t156 3l-7 -51l-137 -37q-25 -6 -31 -31
q-9 -35 -17 -76.5t-18 -90.5zM958 1737q-120 -212 -231 -212q-38 0 -70 15t-70 38q-18 11 -31.5 19t-26.5 14t-25 8.5t-24 2.5q-30 0 -54.5 -16t-84.5 -80l-50 42q72 114 122.5 160.5t104.5 46.5q30 0 57 -10q27 -11 76 -39q22 -12 38 -21t29 -15.5t25 -9.5t25 -3
q32 0 54.5 16t82.5 81zM-24 1400z" />
    <glyph glyph-name="itilde" unicode="&#x129;" horiz-adv-x="661" 
d="M109 896q179 46 291 46q67 0 104.5 -23.5t37.5 -73.5q0 -21 -4 -41l-131 -630q-5 -26 -5 -38q0 -40 33 -52.5t122 -12.5l-6 -47q-171 -42 -276 -42q-74 0 -115.5 29t-41.5 88q0 28 8 70l120 580q8 40 8 52q0 27 -23 38t-128 11zM789 1327q-124 -220 -240 -220
q-39 0 -72 15.5t-73 39.5q-19 11 -33 19.5t-27.5 14.5t-25.5 9t-25 3q-31 0 -56.5 -17t-87.5 -83l-52 44q75 118 127.5 166t108.5 48q31 0 59 -10q28 -11 78 -40q23 -13 39.5 -22.5t30.5 -16t26 -9.5t26 -3q33 0 56.5 16.5t85.5 83.5zM-129 944z" />
    <glyph glyph-name="Imacron" unicode="&#x12a;" horiz-adv-x="796" 
d="M514 315q-12 -60 -21 -109t-15 -89q-3 -25 28 -34l122 -35l-8 -51q-170 3 -308 3q-148 0 -307 -3l4 51l135 37q28 8 34 31q9 39 18.5 89t21.5 110l153 795q10 51 17 92t12 74q5 27 -17 34l-131 39l9 51q85 -2 163 -3t150 -1t147 1t156 3l-7 -51l-137 -37q-25 -6 -31 -31
q-9 -35 -17 -76.5t-18 -90.5zM311 1557l24 122h570l-24 -122h-570zM-24 1400z" />
    <glyph glyph-name="imacron" unicode="&#x12b;" horiz-adv-x="661" 
d="M109 896q179 46 291 46q67 0 104.5 -23.5t37.5 -73.5q0 -21 -4 -41l-131 -630q-5 -26 -5 -38q0 -40 33 -52.5t122 -12.5l-6 -47q-171 -42 -276 -42q-74 0 -115.5 29t-41.5 88q0 28 8 70l120 580q8 40 8 52q0 27 -23 38t-128 11zM148 1184l24 122h570l-24 -122h-570z
M-129 944z" />
    <glyph glyph-name="Ibreve" unicode="&#x12c;" horiz-adv-x="796" 
d="M514 315q-12 -60 -21 -109t-15 -89q-3 -25 28 -34l122 -35l-8 -51q-170 3 -308 3q-148 0 -307 -3l4 51l135 37q28 8 34 31q9 39 18.5 89t21.5 110l153 795q10 51 17 92t12 74q5 27 -17 34l-131 39l9 51q85 -2 163 -3t150 -1t147 1t156 3l-7 -51l-137 -37q-25 -6 -31 -31
q-9 -35 -17 -76.5t-18 -90.5zM428 1822q0 -82 45.5 -125t137.5 -43q84 0 142.5 42.5t90.5 118.5l72 7q-20 -138 -105 -227.5t-218 -89.5q-119 0 -180.5 60.5t-61.5 177.5q0 33 6 72zM-24 1400z" />
    <glyph glyph-name="ibreve" unicode="&#x12d;" horiz-adv-x="661" 
d="M109 896q179 46 291 46q67 0 104.5 -23.5t37.5 -73.5q0 -21 -4 -41l-131 -630q-5 -26 -5 -38q0 -40 33 -52.5t122 -12.5l-6 -47q-171 -42 -276 -42q-74 0 -115.5 29t-41.5 88q0 28 8 70l120 580q8 40 8 52q0 27 -23 38t-128 11zM252 1399q0 -93 45 -143t131 -50
q84 0 141 49t89 137l76 7q-21 -153 -106.5 -251.5t-222.5 -98.5q-113 0 -174 67.5t-61 196.5q0 36 6 79zM-129 944z" />
    <glyph glyph-name="Iogonek" unicode="&#x12e;" horiz-adv-x="796" 
d="M514 315q-12 -60 -21 -109t-15 -89q-3 -25 28 -34l122 -35l-8 -51q-71 2 -146 3q-73 -38 -120 -109q-49 -76 -49 -147q0 -64 38.5 -99.5t108.5 -35.5q33 0 77 9l10 -52q-171 -61 -271 -61q-101 0 -161 47t-60 127q0 174 265 317v4q-151 0 -307 -3l4 51l135 37q28 8 34 31
q9 39 18.5 89t21.5 110l153 795q10 51 17 92t12 74q5 27 -17 34l-131 39l9 51q85 -2 163 -3t150 -1t147 1t156 3l-7 -51l-137 -37q-25 -6 -31 -31q-9 -35 -17 -76.5t-18 -90.5z" />
    <glyph glyph-name="iogonek" unicode="&#x12f;" horiz-adv-x="661" 
d="M109 896q179 46 291 46q67 0 104.5 -23.5t37.5 -73.5q0 -21 -4 -41l-131 -630q-5 -26 -5 -38q0 -40 33 -52.5t122 -12.5l-6 -47q-91 -23 -163 -33q-64 -36 -109.5 -106t-45.5 -141q0 -64 38.5 -99.5t108.5 -35.5q33 0 77 9l10 -52q-171 -61 -271 -61q-101 0 -161 47
t-60 127q0 169 250 307q-107 18 -107 113q0 28 8 70l120 580q8 40 8 52q0 27 -23 38t-128 11zM612 1294q0 -68 -42 -110.5t-105 -42.5q-61 0 -101 40t-40 102q0 70 42 110.5t106 40.5q61 0 100.5 -37.5t39.5 -102.5z" />
    <glyph glyph-name="Idotaccent" unicode="&#x130;" horiz-adv-x="796" 
d="M514 315q-12 -60 -21 -109t-15 -89q-3 -25 28 -34l122 -35l-8 -51q-170 3 -308 3q-148 0 -307 -3l4 51l135 37q28 8 34 31q9 39 18.5 89t21.5 110l153 795q10 51 17 92t12 74q5 27 -17 34l-131 39l9 51q85 -2 163 -3t150 -1t147 1t156 3l-7 -51l-137 -37q-25 -6 -31 -31
q-9 -35 -17 -76.5t-18 -90.5zM755 1661q0 -63 -41 -102.5t-103 -39.5q-61 0 -100 37t-39 95q0 65 41 102.5t104 37.5q61 0 99.5 -34.5t38.5 -95.5zM-24 1400z" />
    <glyph glyph-name="dotlessi" unicode="&#x131;" horiz-adv-x="661" 
d="M109 896q179 46 291 46q67 0 104.5 -23.5t37.5 -73.5q0 -21 -4 -41l-131 -630q-5 -26 -5 -38q0 -40 33 -52.5t122 -12.5l-6 -47q-171 -42 -276 -42q-74 0 -115.5 29t-41.5 88q0 28 8 70l120 580q8 40 8 52q0 27 -23 38t-128 11z" />
    <glyph glyph-name="IJ" unicode="&#x132;" horiz-adv-x="1537" 
d="M514 315q-12 -60 -21 -109t-15 -89q-3 -25 28 -34l122 -35l-8 -51q-170 3 -308 3q-148 0 -307 -3l4 51l135 37q28 8 34 31q9 39 18.5 89t21.5 110l153 795q10 51 17 92t12 74q5 27 -17 34l-131 39l9 51q85 -2 163 -3t150 -1t147 1t156 3l-7 -51l-137 -37q-25 -6 -31 -31
q-9 -35 -17 -76.5t-18 -90.5zM1041 1400q85 -2 161 -3t143 -1q76 0 153 1t158 3l-6 -51l-137 -37q-25 -6 -32 -31q-8 -35 -16.5 -76.5t-17.5 -90.5l-165 -873q-55 -291 -188.5 -446.5t-504.5 -229.5l-14 64q205 91 281 209.5t117 333.5l178 938q9 51 16.5 92t12.5 74
q5 26 -18 34l-131 39z" />
    <glyph glyph-name="ij" unicode="&#x133;" horiz-adv-x="1301" 
d="M109 896q179 46 291 46q67 0 104.5 -23.5t37.5 -73.5q0 -21 -4 -41l-131 -630q-5 -26 -5 -38q0 -40 33 -52.5t122 -12.5l-6 -47q-171 -42 -276 -42q-74 0 -115.5 29t-41.5 88q0 28 8 70l120 580q8 40 8 52q0 27 -23 38t-128 11zM612 1294q0 -68 -42 -110.5t-105 -42.5
q-61 0 -101 40t-40 102q0 70 42 110.5t106 40.5q61 0 100.5 -37.5t39.5 -102.5zM768 850l6 46q179 46 291 46q67 0 104.5 -23.5t37.5 -73.5q0 -21 -4 -41l-141 -681q-38 -187 -153.5 -324t-408.5 -308l-47 55q209 194 252.5 301t73.5 253l132 649q8 40 8 52q0 27 -23 38
t-128 11zM1277 1294q0 -68 -42 -110.5t-105 -42.5q-61 0 -101 40t-40 102q0 70 42 110.5t106 40.5q61 0 100.5 -37.5t39.5 -102.5z" />
    <glyph glyph-name="Jcircumflex" unicode="&#x134;" horiz-adv-x="741" 
d="M245 1400q85 -2 161 -3t143 -1q76 0 153 1t158 3l-6 -51l-137 -37q-25 -6 -32 -31q-8 -35 -16.5 -76.5t-17.5 -90.5l-165 -873q-55 -291 -188.5 -446.5t-504.5 -229.5l-14 64q205 91 281 209.5t117 333.5l178 938q9 51 16.5 92t12.5 74q5 26 -18 34l-131 39zM587 1622
l-341 -147l-27 52l302 249h168l242 -254l-37 -47zM-40 1400z" />
    <glyph glyph-name="jcircumflex" unicode="&#x135;" horiz-adv-x="640" 
d="M708 1044h-88l-179 224l-249 -224h-92l264 378h200zM107 850l6 46q179 46 291 46q67 0 104.5 -23.5t37.5 -73.5q0 -21 -4 -41l-141 -681q-38 -187 -153.5 -324t-408.5 -308l-47 55q209 194 252.5 301t73.5 253l132 649q8 40 8 52q0 27 -23 38t-128 11z" />
    <glyph glyph-name="uni0136" unicode="&#x136;" horiz-adv-x="1522" 
d="M608 701l484 448q67 62 99 98.5t32 55.5q0 15 -21 21l-79 22l8 54q104 -4 228 -4q127 0 233 4l-6 -51l-103 -32q-42 -13 -80.5 -37.5t-99.5 -81.5l-427 -401l338 -606q31 -55 56.5 -81.5t71.5 -39.5l78 -22l-7 -51q-118 3 -243 3q-93 0 -189 -2q-11 36 -44 103t-89 168z
M514 315q-12 -60 -21 -109t-15 -89q-3 -25 28 -34l112 -35l-8 -51q-161 3 -298 3q-148 0 -307 -3l4 51l135 37q28 7 34 31q9 39 18.5 89t21.5 110l153 795q10 51 17 92t12 74q4 27 -17 34l-131 39l9 51q161 -4 313 -4t293 4l-7 -51l-127 -37q-25 -6 -31 -31
q-9 -35 -17 -76.5t-18 -90.5zM548 -461q109 83 109 165q0 68 -73 107q0 50 30.5 79.5t77.5 29.5q50 0 81 -36.5t31 -93.5q0 -157 -220 -291z" />
    <glyph glyph-name="uni0137" unicode="&#x137;" horiz-adv-x="1182" 
d="M198 1376l1 43q265 40 465 87l12 -12q-18 -75 -43 -192.5t-55 -256.5l-214 -1040l-279 -10l279 1357zM1115 -3q-131 3 -254 3q-76 0 -137 -2q-37 106 -96 226.5t-144 266.5q172 152 272 256.5t138 171.5q31 -1 82 -1q115 0 232 3l-5 -50q-49 -8 -89 -18.5t-74.5 -24.5
t-65.5 -34.5t-64 -50.5l-173 -160l220 -409q20 -38 34.5 -59t31 -33.5t39.5 -19.5t62 -16zM358 -461q109 83 109 165q0 68 -73 107q0 50 30.5 79.5t77.5 29.5q50 0 81 -36.5t31 -93.5q0 -157 -220 -291z" />
    <glyph glyph-name="kgreenlandic" unicode="&#x138;" horiz-adv-x="1193" 
d="M376 5l-281 -10l156 754q8 40 8 52q0 27 -24.5 38t-129.5 11l6 46q179 46 291 46q67 0 104.5 -23.5t37.5 -73.5q0 -21 -4 -41zM1126 -3q-131 3 -254 3q-76 0 -137 -2q-37 106 -96 226.5t-144 266.5q172 152 272 256.5t138 171.5q31 -1 82 -1q115 0 232 3l-5 -50
q-49 -8 -89 -18.5t-74.5 -24.5t-65.5 -34.5t-64 -50.5l-173 -160l220 -409q20 -38 34.5 -59t31 -33.5t39.5 -19.5t62 -16z" />
    <glyph glyph-name="Lacute" unicode="&#x139;" horiz-adv-x="1176" 
d="M666 1114l-150 -791q-21 -111 -40 -220h401l183 287l63 9l-91 -395l-7 -7q-227 3 -458 3h-253q-149 0 -310 -3l6 51l135 37q28 7 34 31q8 40 18 89.5t22 109.5l151 795q10 51 17 92t12 74q5 26 -17 34l-131 39l9 51q171 -4 315 -4q141 0 301 4l-7 -51l-137 -37
q-25 -6 -31 -31q-9 -35 -22 -102t-13 -65zM864 1647l-485 -174l-31 52l360 275l156 -138v-15zM-24 1400z" />
    <glyph glyph-name="lacute" unicode="&#x13a;" horiz-adv-x="653" 
d="M189 1376l1 43q266 41 465 87l12 -12q-9 -38 -20 -86.5t-23.5 -106t-26 -122.5t-28.5 -134l-179 -873q-4 -19 -4 -39q0 -32 26.5 -46.5t130.5 -15.5l-6 -47q-173 -42 -276 -42q-81 0 -120.5 30t-39.5 90q0 18 10 67l244 1183zM794 1700l-485 -174l-31 52l360 275
l156 -138v-15zM-94 1453z" />
    <glyph glyph-name="uni013B" unicode="&#x13b;" horiz-adv-x="1176" 
d="M666 1114l-150 -791q-21 -111 -40 -220h401l183 287l63 9l-91 -395l-7 -7q-227 3 -458 3h-253q-149 0 -310 -3l6 51l135 37q28 7 34 31q8 40 18 89.5t22 109.5l151 795q10 51 17 92t12 74q5 26 -17 34l-131 39l9 51q171 -4 315 -4q141 0 301 4l-7 -51l-137 -37
q-25 -6 -31 -31q-9 -35 -22 -102t-13 -65zM378 -461q109 83 109 165q0 68 -73 107q0 50 30.5 79.5t77.5 29.5q50 0 81 -36.5t31 -93.5q0 -157 -220 -291z" />
    <glyph glyph-name="uni013C" unicode="&#x13c;" horiz-adv-x="653" 
d="M189 1376l1 43q266 41 465 87l12 -12q-9 -38 -20 -86.5t-23.5 -106t-26 -122.5t-28.5 -134l-179 -873q-4 -19 -4 -39q0 -32 26.5 -46.5t130.5 -15.5l-6 -47q-173 -42 -276 -42q-81 0 -120.5 30t-39.5 90q0 18 10 67l244 1183zM88 -461q109 83 109 165q0 68 -73 107
q0 50 30.5 79.5t77.5 29.5q50 0 81 -36.5t31 -93.5q0 -157 -220 -291z" />
    <glyph glyph-name="Lcaron" unicode="&#x13d;" horiz-adv-x="1176" 
d="M666 1114l-150 -791q-21 -111 -40 -220h401l183 287l63 9l-91 -395l-7 -7q-227 3 -458 3h-253q-149 0 -310 -3l6 51l135 37q28 7 34 31q8 40 18 89.5t22 109.5l151 795q10 51 17 92t12 74q5 26 -17 34l-131 39l9 51q171 -4 315 -4q141 0 301 4l-7 -51l-137 -37
q-25 -6 -31 -31q-9 -35 -22 -102t-13 -65zM927 940q114 111 114 219q0 88 -93 138q3 55 37 86.5t90 31.5t91 -39.5t35 -104.5q0 -192 -237 -372z" />
    <glyph glyph-name="lcaron" unicode="&#x13e;" horiz-adv-x="829" 
d="M189 1376l1 43q266 41 465 87l12 -12q-9 -38 -20 -86.5t-23.5 -106t-26 -122.5t-28.5 -134l-179 -873q-4 -19 -4 -39q0 -32 26.5 -46.5t130.5 -15.5l-6 -47q-173 -42 -276 -42q-81 0 -120.5 30t-39.5 90q0 18 10 67l244 1183zM715 1008q114 111 114 219q0 88 -93 138
q3 55 37 86.5t90 31.5t91 -39.5t35 -104.5q0 -192 -237 -372z" />
    <glyph glyph-name="Ldot" unicode="&#x13f;" horiz-adv-x="1176" 
d="M666 1114l-150 -791q-21 -111 -40 -220h401l183 287l63 9l-91 -395l-7 -7q-227 3 -458 3h-253q-149 0 -310 -3l6 51l135 37q28 7 34 31q8 40 18 89.5t22 109.5l151 795q10 51 17 92t12 74q5 26 -17 34l-131 39l9 51q171 -4 315 -4q141 0 301 4l-7 -51l-137 -37
q-25 -6 -31 -31q-9 -35 -22 -102t-13 -65zM1178 756q0 -67 -41.5 -109t-103.5 -42q-61 0 -100.5 39.5t-39.5 101.5q0 69 41.5 109t104.5 40q61 0 100 -37t39 -102z" />
    <glyph glyph-name="ldot" unicode="&#x140;" horiz-adv-x="859" 
d="M189 1376l1 43q266 41 465 87l12 -12q-9 -38 -20 -86.5t-23.5 -106t-26 -122.5t-28.5 -134l-179 -873q-4 -19 -4 -39q0 -32 26.5 -46.5t130.5 -15.5l-6 -47q-173 -42 -276 -42q-81 0 -120.5 30t-39.5 90q0 18 10 67l244 1183zM937 743q0 -67 -41.5 -109t-103.5 -42
q-61 0 -100.5 39.5t-39.5 101.5q0 69 41.5 109t104.5 40q61 0 100 -37t39 -102z" />
    <glyph glyph-name="Lslash" unicode="&#x141;" horiz-adv-x="1176" 
d="M666 1114l-58 -306l372 111l-15 -106l-378 -113l-71 -377q-21 -111 -40 -220h401l183 287l63 9l-91 -395l-7 -7q-227 3 -458 3h-253q-149 0 -310 -3l6 51l135 37q28 7 34 31q8 40 18 89.5t22 109.5l55 292l-164 -49l14 106l171 51l75 395q10 51 17 92t12 74q5 26 -17 34
l-131 39l9 51q171 -4 315 -4q141 0 301 4l-7 -51l-137 -37q-25 -6 -31 -31q-9 -35 -22 -102t-13 -65z" />
    <glyph glyph-name="lslash" unicode="&#x142;" horiz-adv-x="653" 
d="M34 720l203 59l118 573l-166 24l1 43q266 41 465 87l12 -12q-9 -38 -20 -86.5t-23.5 -106t-26 -122.5t-28.5 -134l-37 -179l198 58l-14 -100l-205 -61l-121 -591q-4 -19 -4 -39q0 -32 26.5 -46.5t130.5 -15.5l-6 -47q-173 -42 -276 -42q-81 0 -120.5 30t-39.5 90
q0 18 10 67l105 506l-197 -58z" />
    <glyph glyph-name="Nacute" unicode="&#x143;" horiz-adv-x="1474" 
d="M230 1349l7 51q70 -2 123 -3t90 -1q25 0 49 1t49 3l520 -851q28 -53 60 -111l27 147l100 530q10 49 17.5 90.5t12.5 76.5q3 22 -20 30l-122 35l8 53q69 -2 124.5 -3t98.5 -1q45 0 100 1t124 3l-5 -51l-144 -39q-24 -8 -30 -33q-8 -33 -16.5 -74t-18.5 -92l-211 -1111
l-108 -11l-553 904q-26 46 -60 111q-7 -39 -13 -74t-12 -66l-101 -550q-11 -60 -19.5 -108.5t-15.5 -86.5q-5 -29 19 -35l121 -35l-7 -52q-134 3 -219 3q-87 0 -226 -3l4 50l142 37q27 8 32 31q9 41 19 90t21 109l148 797q9 51 16.5 92t12.5 74q4 25 -18 33zM1208 1647
l-485 -174l-31 52l360 275l156 -138v-15zM320 1400z" />
    <glyph glyph-name="nacute" unicode="&#x144;" horiz-adv-x="1267" 
d="M95 -5l155 755q8 40 8 53q0 18 -9.5 27t-28.5 13.5t-47.5 5.5t-65.5 1l6 46q180 46 273 46q69 0 111.5 -25t42.5 -74q0 -5 -2 -20q199 120 363 120q109 0 169.5 -57.5t60.5 -155.5q0 -43 -11 -92l-100 -474q-2 -8 -3 -15.5t-1 -14.5q0 -21 10 -33t29.5 -17.5t48.5 -7
t66 -1.5l-4 -46q-150 -47 -275 -47q-78 0 -117.5 29t-39.5 95q0 31 8 72l90 418q11 52 11 87q0 60 -27 88.5t-78 28.5q-78 0 -215 -64l-149 -731zM823 1422h257l-328 -378h-84zM200 944z" />
    <glyph glyph-name="uni0145" unicode="&#x145;" horiz-adv-x="1474" 
d="M230 1349l7 51q70 -2 123 -3t90 -1q25 0 49 1t49 3l520 -851q28 -53 60 -111l27 147l100 530q10 49 17.5 90.5t12.5 76.5q3 22 -20 30l-122 35l8 53q69 -2 124.5 -3t98.5 -1q45 0 100 1t124 3l-5 -51l-144 -39q-24 -8 -30 -33q-8 -33 -16.5 -74t-18.5 -92l-211 -1111
l-108 -11l-553 904q-26 46 -60 111q-7 -39 -13 -74t-12 -66l-101 -550q-11 -60 -19.5 -108.5t-15.5 -86.5q-5 -29 19 -35l121 -35l-7 -52q-134 3 -219 3q-87 0 -226 -3l4 50l142 37q27 8 32 31q9 41 19 90t21 109l148 797q9 51 16.5 92t12.5 74q4 25 -18 33zM478 -461
q109 83 109 165q0 68 -73 107q0 50 30.5 79.5t77.5 29.5q50 0 81 -36.5t31 -93.5q0 -157 -220 -291z" />
    <glyph glyph-name="uni0146" unicode="&#x146;" horiz-adv-x="1267" 
d="M95 -5l155 755q8 40 8 53q0 18 -9.5 27t-28.5 13.5t-47.5 5.5t-65.5 1l6 46q180 46 273 46q69 0 111.5 -25t42.5 -74q0 -5 -2 -20q199 120 363 120q109 0 169.5 -57.5t60.5 -155.5q0 -43 -11 -92l-100 -474q-2 -8 -3 -15.5t-1 -14.5q0 -21 10 -33t29.5 -17.5t48.5 -7
t66 -1.5l-4 -46q-150 -47 -275 -47q-78 0 -117.5 29t-39.5 95q0 31 8 72l90 418q11 52 11 87q0 60 -27 88.5t-78 28.5q-78 0 -215 -64l-149 -731zM383 -461q109 83 109 165q0 68 -73 107q0 50 30.5 79.5t77.5 29.5q50 0 81 -36.5t31 -93.5q0 -157 -220 -291z" />
    <glyph glyph-name="Ncaron" unicode="&#x147;" horiz-adv-x="1474" 
d="M230 1349l7 51q70 -2 123 -3t90 -1q25 0 49 1t49 3l520 -851q28 -53 60 -111l27 147l100 530q10 49 17.5 90.5t12.5 76.5q3 22 -20 30l-122 35l8 53q69 -2 124.5 -3t98.5 -1q45 0 100 1t124 3l-5 -51l-144 -39q-24 -8 -30 -33q-8 -33 -16.5 -74t-18.5 -92l-211 -1111
l-108 -11l-553 904q-26 46 -60 111q-7 -39 -13 -74t-12 -66l-101 -550q-11 -60 -19.5 -108.5t-15.5 -86.5q-5 -29 19 -35l121 -35l-7 -52q-134 3 -219 3q-87 0 -226 -3l4 50l142 37q27 8 32 31q9 41 19 90t21 109l148 797q9 51 16.5 92t12.5 74q4 25 -18 33zM946 1652
l341 147l27 -52l-299 -249h-168l-245 254l37 47zM320 1400z" />
    <glyph glyph-name="ncaron" unicode="&#x148;" horiz-adv-x="1267" 
d="M95 -5l155 755q8 40 8 53q0 18 -9.5 27t-28.5 13.5t-47.5 5.5t-65.5 1l6 46q180 46 273 46q69 0 111.5 -25t42.5 -74q0 -5 -2 -20q199 120 363 120q109 0 169.5 -57.5t60.5 -155.5q0 -43 -11 -92l-100 -474q-2 -8 -3 -15.5t-1 -14.5q0 -21 10 -33t29.5 -17.5t48.5 -7
t66 -1.5l-4 -46q-150 -47 -275 -47q-78 0 -117.5 29t-39.5 95q0 31 8 72l90 418q11 52 11 87q0 60 -27 88.5t-78 28.5q-78 0 -215 -64l-149 -731zM486 1422h88l179 -224l249 224h92l-264 -378h-200zM200 944z" />
    <glyph glyph-name="napostrophe" unicode="&#x149;" horiz-adv-x="1567" 
d="M395 -5l155 755q8 40 8 53q0 18 -9.5 27t-28.5 13.5t-47.5 5.5t-65.5 1l6 46q180 46 273 46q69 0 111.5 -25t42.5 -74q0 -5 -2 -20q199 120 363 120q109 0 169.5 -57.5t60.5 -155.5q0 -43 -11 -92l-100 -474q-2 -8 -3 -15.5t-1 -14.5q0 -21 10 -33t29.5 -17.5t48.5 -7
t66 -1.5l-4 -46q-150 -47 -275 -47q-78 0 -117.5 29t-39.5 95q0 31 8 72l90 418q11 52 11 87q0 60 -27 88.5t-78 28.5q-78 0 -215 -64l-149 -731zM174 971q177 124 177 255q0 92 -91 147q5 60 44 97t95 37q59 0 96.5 -42t37.5 -114q0 -234 -321 -435z" />
    <glyph glyph-name="Eng" unicode="&#x14a;" horiz-adv-x="1474" 
d="M1128 439l27 146l100 530q10 49 17.5 90.5t12.5 76.5q3 22 -20 30l-122 35l8 53q69 -2 124.5 -3t98.5 -1q45 0 100 1t124 3l-5 -51l-144 -39q-24 -8 -30 -33q-8 -33 -16.5 -74t-18.5 -92l-154 -808q-17 -91 -36 -180.5t-45.5 -171t-64 -150.5t-92 -120t-129 -80
t-175.5 -29q-55 0 -110 13q20 121 54 242l11 5q106 -31 177 -31q86 0 136.5 50t85.5 175l-530 867q-26 46 -60 111q-7 -39 -13 -74t-12 -66l-101 -550q-11 -60 -19.5 -108.5t-15.5 -86.5q-5 -29 19 -35l121 -35l-7 -52q-134 3 -219 3q-87 0 -226 -3l4 50l142 37q27 8 32 31
q9 42 19 90.5t21 108.5l148 797q9 51 16.5 92t12.5 74q4 25 -18 33l-126 39l7 51q70 -2 123 -3t90 -1q25 0 49 1t49 3l520 -851q28 -53 60 -111v1z" />
    <glyph glyph-name="eng" unicode="&#x14b;" horiz-adv-x="1241" 
d="M95 -5l155 755q4 20 6 33t2 20q0 17 -9.5 26.5t-28.5 14t-47.5 5.5t-65.5 1l6 46q178 46 273 46q69 0 111.5 -25t42.5 -74q0 -6 -2 -20q199 120 363 120q109 0 169.5 -57t60.5 -156q0 -22 -3 -44.5t-8 -47.5l-123 -573q-26 -119 -62.5 -221.5t-95.5 -178t-145 -118.5
t-210 -43q-78 0 -181 21q11 55 23.5 107t26.5 103l14 4q114 -131 169 -131q21 0 40 13t38.5 52.5t40.5 111.5t46 189l131 622q11 55 11 87q0 60 -27 88.5t-78 28.5q-80 0 -215 -64l-149 -731z" />
    <glyph glyph-name="Omacron" unicode="&#x14c;" horiz-adv-x="1679" 
d="M764 -35q-293 0 -470.5 156t-177.5 432q0 368 248.5 621.5t615.5 253.5q294 0 472 -155t178 -433q0 -371 -248.5 -623t-617.5 -252zM1307 873q0 216 -96 338t-259 122q-237 0 -375.5 -231.5t-138.5 -580.5q0 -214 95 -337.5t260 -123.5q237 0 375.5 230t138.5 583z
M720 1557l24 122h570l-24 -122h-570zM385 1400z" />
    <glyph glyph-name="omacron" unicode="&#x14d;" horiz-adv-x="1201" 
d="M639 944q216 0 345 -112.5t129 -302.5q0 -240 -156.5 -398t-404.5 -158q-219 0 -346.5 112.5t-127.5 297.5q0 243 154 402t407 159zM627 841q-111 0 -184 -136.5t-72 -326.5q1 -142 51 -222t142 -80q114 0 184 140.5t70 323.5q0 142 -51 221.5t-140 79.5zM417 1184
l24 122h570l-24 -122h-570zM140 944z" />
    <glyph glyph-name="Obreve" unicode="&#x14e;" horiz-adv-x="1679" 
d="M764 -35q-293 0 -470.5 156t-177.5 432q0 368 248.5 621.5t615.5 253.5q294 0 472 -155t178 -433q0 -371 -248.5 -623t-617.5 -252zM1307 873q0 216 -96 338t-259 122q-237 0 -375.5 -231.5t-138.5 -580.5q0 -214 95 -337.5t260 -123.5q237 0 375.5 230t138.5 583z
M837 1822q0 -82 45.5 -125t137.5 -43q84 0 142.5 42.5t90.5 118.5l72 7q-20 -138 -105 -227.5t-218 -89.5q-119 0 -180.5 60.5t-61.5 177.5q0 33 6 72zM385 1400z" />
    <glyph glyph-name="obreve" unicode="&#x14f;" horiz-adv-x="1201" 
d="M639 944q216 0 345 -112.5t129 -302.5q0 -240 -156.5 -398t-404.5 -158q-219 0 -346.5 112.5t-127.5 297.5q0 243 154 402t407 159zM627 841q-111 0 -184 -136.5t-72 -326.5q1 -142 51 -222t142 -80q114 0 184 140.5t70 323.5q0 142 -51 221.5t-140 79.5zM521 1399
q0 -93 45 -143t131 -50q84 0 141 49t89 137l76 7q-21 -153 -106.5 -251.5t-222.5 -98.5q-113 0 -174 67.5t-61 196.5q0 36 6 79zM140 944z" />
    <glyph glyph-name="Ohungarumlaut" unicode="&#x150;" horiz-adv-x="1679" 
d="M764 -35q-293 0 -470.5 156t-177.5 432q0 368 248.5 621.5t615.5 253.5q294 0 472 -155t178 -433q0 -371 -248.5 -623t-617.5 -252zM1307 873q0 216 -96 338t-259 122q-237 0 -375.5 -231.5t-138.5 -580.5q0 -214 95 -337.5t260 -123.5q237 0 375.5 230t138.5 583z
M920 1776h236l-291 -282h-79zM1217 1776h236l-291 -282h-79zM385 1400z" />
    <glyph glyph-name="ohungarumlaut" unicode="&#x151;" horiz-adv-x="1201" 
d="M639 944q216 0 345 -112.5t129 -302.5q0 -240 -156.5 -398t-404.5 -158q-219 0 -346.5 112.5t-127.5 297.5q0 243 154 402t407 159zM627 841q-111 0 -184 -136.5t-72 -326.5q1 -142 51 -222t142 -80q114 0 184 140.5t70 323.5q0 142 -51 221.5t-140 79.5zM605 1422h236
l-307 -378h-79zM914 1422h236l-307 -378h-79zM140 944z" />
    <glyph glyph-name="OE" unicode="&#x152;" horiz-adv-x="2048" 
d="M1406 666l-65 -342q-11 -56 -20.5 -111t-19.5 -110h408l168 266l63 9l-86 -374l-8 -7q-269 3 -503 3h-348q-117 -36 -239 -36q-283 0 -461.5 158.5t-178.5 430.5q0 364 250.5 619t609.5 255q132 0 277 -31h335q120 0 246.5 1t261.5 3l5 -8l-115 -333l-56 -8l-28 244h-375
l-101 -533h129q50 0 114 1q28 1 39 27l62 137l62 2q-25 -109 -45.5 -215t-37.5 -211l-62 -4l-11 138q-1 25 -25 27q-45 1 -95 1.5t-108 0.5h-42zM1219 1248q-139 85 -272 85q-241 0 -375 -235.5t-134 -576.5q0 -209 93 -335t260 -126q115 0 214 70q12 55 22 105l16 80
l152 795q5 26 12 65t12 73z" />
    <glyph glyph-name="oe" unicode="&#x153;" horiz-adv-x="1774" 
d="M1588 192l34 -50q-191 -167 -424 -167q-189 0 -304 119q-143 -121 -349 -121q-216 0 -341.5 112.5t-125.5 297.5q0 243 152 402t401 159q245 0 370 -156q175 156 414 156q144 0 222 -52.5t78 -152.5q0 -125 -160 -208.5t-472 -98.5q-2 -24 -2 -45q0 -135 55 -205.5
t165 -70.5q142 0 287 81zM618 841q-107 0 -177.5 -136.5t-69.5 -326.5q1 -142 49.5 -222t137.5 -80q110 0 177.5 140.5t67.5 323.5q0 142 -49.5 221.5t-135.5 79.5zM1091 512q346 32 346 223q0 53 -24.5 79.5t-62.5 26.5q-82 0 -156 -91.5t-103 -237.5z" />
    <glyph glyph-name="Racute" unicode="&#x154;" horiz-adv-x="1407" 
d="M259 1400q81 -2 162.5 -3t146.5 -1q31 0 116.5 4.5t124.5 4.5q240 0 361.5 -79t121.5 -236q0 -287 -366 -402q14 -26 28.5 -58t25.5 -58q11 -27 22.5 -54.5t22.5 -55.5q21 -54 42.5 -104.5t44.5 -104.5q19 -45 38.5 -80.5t45 -61.5t61.5 -43t90 -24l-6 -51
q-88 -9 -167 -9q-72 0 -125.5 7t-93 27.5t-69 57.5t-54.5 96q-19 45 -37 91t-35 97q-20 55 -42.5 118t-47.5 124q-6 17 -15.5 30t-32.5 15l-44 3l-64 -335q-11 -60 -20 -108t-15 -87q-4 -31 19 -39l114 -33l-7 -51q-75 2 -149 2.5t-145 0.5q-74 0 -153 -0.5t-154 -2.5l5 51
l135 37q26 7 34 31q8 40 18.5 89.5t21.5 109.5l153 795q10 51 17 91.5t12 74.5q4 27 -17 34l-131 39zM595 738q20 -4 42 -4q336 0 336 334q0 118 -55 179.5t-158 61.5q-30 0 -57 -5zM1093 1647l-485 -174l-31 52l360 275l156 -138v-15zM205 1400z" />
    <glyph glyph-name="racute" unicode="&#x155;" horiz-adv-x="901" 
d="M95 -5l155 755q8 43 8 53q0 17 -9.5 26.5t-28.5 14t-47.5 5.5t-65.5 1l6 46q178 46 273 46q69 0 111 -25t42 -74q0 -9 -1 -22q184 123 369 123l7 -9q-36 -157 -69 -330l-62 -10q-18 109 -44 148.5t-75 39.5q-53 0 -141 -44l-149 -734zM673 1422h257l-328 -378h-84z
M50 944z" />
    <glyph glyph-name="uni0156" unicode="&#x156;" horiz-adv-x="1407" 
d="M259 1400q81 -2 162.5 -3t146.5 -1q31 0 116.5 4.5t124.5 4.5q240 0 361.5 -79t121.5 -236q0 -287 -366 -402q14 -26 28.5 -58t25.5 -58q11 -27 22.5 -54.5t22.5 -55.5q21 -54 42.5 -104.5t44.5 -104.5q19 -45 38.5 -80.5t45 -61.5t61.5 -43t90 -24l-6 -51
q-88 -9 -167 -9q-72 0 -125.5 7t-93 27.5t-69 57.5t-54.5 96q-19 45 -37 91t-35 97q-20 55 -42.5 118t-47.5 124q-6 17 -15.5 30t-32.5 15l-44 3l-64 -335q-11 -60 -20 -108t-15 -87q-4 -31 19 -39l114 -33l-7 -51q-75 2 -149 2.5t-145 0.5q-74 0 -153 -0.5t-154 -2.5l5 51
l135 37q26 7 34 31q8 40 18.5 89.5t21.5 109.5l153 795q10 51 17 91.5t12 74.5q4 27 -17 34l-131 39zM595 738q20 -4 42 -4q336 0 336 334q0 118 -55 179.5t-158 61.5q-30 0 -57 -5zM468 -461q109 83 109 165q0 68 -73 107q0 50 30.5 79.5t77.5 29.5q50 0 81 -36.5t31 -93.5
q0 -157 -220 -291z" />
    <glyph glyph-name="uni0157" unicode="&#x157;" horiz-adv-x="901" 
d="M95 -5l155 755q8 43 8 53q0 17 -9.5 26.5t-28.5 14t-47.5 5.5t-65.5 1l6 46q178 46 273 46q69 0 111 -25t42 -74q0 -9 -1 -22q184 123 369 123l7 -9q-36 -157 -69 -330l-62 -10q-18 109 -44 148.5t-75 39.5q-53 0 -141 -44l-149 -734zM58 -461q109 83 109 165
q0 68 -73 107q0 50 30.5 79.5t77.5 29.5q50 0 81 -36.5t31 -93.5q0 -157 -220 -291z" />
    <glyph glyph-name="Rcaron" unicode="&#x158;" horiz-adv-x="1407" 
d="M259 1400q81 -2 162.5 -3t146.5 -1q31 0 116.5 4.5t124.5 4.5q240 0 361.5 -79t121.5 -236q0 -287 -366 -402q14 -26 28.5 -58t25.5 -58q11 -27 22.5 -54.5t22.5 -55.5q21 -54 42.5 -104.5t44.5 -104.5q19 -45 38.5 -80.5t45 -61.5t61.5 -43t90 -24l-6 -51
q-88 -9 -167 -9q-72 0 -125.5 7t-93 27.5t-69 57.5t-54.5 96q-19 45 -37 91t-35 97q-20 55 -42.5 118t-47.5 124q-6 17 -15.5 30t-32.5 15l-44 3l-64 -335q-11 -60 -20 -108t-15 -87q-4 -31 19 -39l114 -33l-7 -51q-75 2 -149 2.5t-145 0.5q-74 0 -153 -0.5t-154 -2.5l5 51
l135 37q26 7 34 31q8 40 18.5 89.5t21.5 109.5l153 795q10 51 17 91.5t12 74.5q4 27 -17 34l-131 39zM595 738q20 -4 42 -4q336 0 336 334q0 118 -55 179.5t-158 61.5q-30 0 -57 -5zM831 1652l341 147l27 -52l-299 -249h-168l-245 254l37 47zM205 1400z" />
    <glyph glyph-name="rcaron" unicode="&#x159;" horiz-adv-x="901" 
d="M95 -5l155 755q8 43 8 53q0 17 -9.5 26.5t-28.5 14t-47.5 5.5t-65.5 1l6 46q178 46 273 46q69 0 111 -25t42 -74q0 -9 -1 -22q184 123 369 123l7 -9q-36 -157 -69 -330l-62 -10q-18 109 -44 148.5t-75 39.5q-53 0 -141 -44l-149 -734zM336 1422h88l179 -224l249 224h92
l-264 -378h-200zM50 944z" />
    <glyph glyph-name="Sacute" unicode="&#x15a;" horiz-adv-x="1118" 
d="M941 1306q-66 21 -142 21q-141 0 -235 -66.5t-92 -181.5q1 -53 24.5 -92.5t60 -71t82 -57.5t92.5 -53q59 -34 114 -70.5t97 -82.5t67.5 -104.5t25.5 -136.5q0 -210 -183 -327t-452 -117q-173 0 -359 54l-4 9l106 363l64 10l27 -309q79 -28 168 -28q148 0 247 69t99 185
q0 55 -23 96t-60 73t-83 57.5t-92 51.5q-51 28 -104.5 61.5t-97 79.5t-71 106.5t-27.5 143.5q0 205 166.5 319.5t444.5 114.5q172 0 337 -45l4 -9l-112 -324l-57 -9zM1048 1647l-485 -174l-31 52l360 275l156 -138v-15zM160 1400z" />
    <glyph glyph-name="sacute" unicode="&#x15b;" horiz-adv-x="932" 
d="M702 830q-60 16 -110 16q-100 0 -154 -34.5t-54 -102.5q0 -29 15.5 -51t42 -40.5t60.5 -35t71 -33.5q43 -21 86.5 -45t77.5 -55.5t55.5 -73t21.5 -97.5q0 -146 -116 -225.5t-319 -79.5q-96 0 -190 18t-172 48q17 60 33 126t30 135l50 8l65 -216q72 -21 142 -21
q91 0 144 38t53 110q0 31 -16 54t-42 42t-60 35.5t-70 33.5q-41 19 -80.5 42t-71 54t-51 72t-19.5 96q0 140 123 217.5t329 77.5q158 0 304 -47q-15 -51 -30.5 -115t-29.5 -137l-49 -9zM653 1422h257l-328 -378h-84zM30 944z" />
    <glyph glyph-name="Scircumflex" unicode="&#x15c;" horiz-adv-x="1118" 
d="M941 1306q-66 21 -142 21q-141 0 -235 -66.5t-92 -181.5q1 -53 24.5 -92.5t60 -71t82 -57.5t92.5 -53q59 -34 114 -70.5t97 -82.5t67.5 -104.5t25.5 -136.5q0 -210 -183 -327t-452 -117q-173 0 -359 54l-4 9l106 363l64 10l27 -309q79 -28 168 -28q148 0 247 69t99 185
q0 55 -23 96t-60 73t-83 57.5t-92 51.5q-51 28 -104.5 61.5t-97 79.5t-71 106.5t-27.5 143.5q0 205 166.5 319.5t444.5 114.5q172 0 337 -45l4 -9l-112 -324l-57 -9zM787 1622l-341 -147l-27 52l302 249h168l242 -254l-37 -47zM160 1400z" />
    <glyph glyph-name="scircumflex" unicode="&#x15d;" horiz-adv-x="932" 
d="M702 830q-60 16 -110 16q-100 0 -154 -34.5t-54 -102.5q0 -29 15.5 -51t42 -40.5t60.5 -35t71 -33.5q43 -21 86.5 -45t77.5 -55.5t55.5 -73t21.5 -97.5q0 -146 -116 -225.5t-319 -79.5q-96 0 -190 18t-172 48q17 60 33 126t30 135l50 8l65 -216q72 -21 142 -21
q91 0 144 38t53 110q0 31 -16 54t-42 42t-60 35.5t-70 33.5q-41 19 -80.5 42t-71 54t-51 72t-19.5 96q0 140 123 217.5t329 77.5q158 0 304 -47q-15 -51 -30.5 -115t-29.5 -137l-49 -9zM864 1044h-88l-179 224l-249 -224h-92l264 378h200zM30 944z" />
    <glyph glyph-name="Scedilla" unicode="&#x15e;" horiz-adv-x="1118" 
d="M278 -189l121 156q-173 0 -358 54l-4 9l106 363l64 10l27 -309q79 -28 168 -28q148 0 247 69t99 185q0 55 -23 96t-60 73t-83 57.5t-92 51.5q-51 28 -104.5 61.5t-97 79.5t-71 106.5t-27.5 143.5q0 205 166.5 319.5t444.5 114.5q172 0 337 -45l4 -9l-112 -324l-57 -9
l-32 270q-66 21 -142 21q-141 0 -235 -66.5t-92 -181.5q1 -53 24.5 -92.5t60 -71t82 -57.5t92.5 -53q59 -34 114 -70.5t97 -82.5t67.5 -104.5t25.5 -136.5q0 -193 -155.5 -307t-385.5 -133l-57 -77q101 -50 101 -134q0 -112 -210 -254l-38 41q98 80 98 148q0 72 -106 108z
" />
    <glyph glyph-name="scedilla" unicode="&#x15f;" horiz-adv-x="932" 
d="M182 -189l127 164q-146 11 -292 64q17 60 33 126t30 135l50 8l65 -216q72 -21 142 -21q91 0 144 38t53 110q0 31 -16 54t-42 42t-60 35.5t-70 33.5q-41 19 -80.5 42t-71 54t-51 72t-19.5 96q0 140 123 217.5t329 77.5q158 0 304 -47q-15 -51 -30.5 -115t-29.5 -137
l-49 -9l-69 195q-60 16 -110 16q-100 0 -154 -34.5t-54 -102.5q0 -29 15.5 -51t42 -40.5t60.5 -35t71 -33.5q43 -21 86.5 -45t77.5 -55.5t55.5 -73t21.5 -97.5q0 -144 -112.5 -222.5t-301.5 -82.5l-59 -79q101 -50 101 -134q0 -112 -210 -254l-38 41q98 80 98 148
q0 72 -106 108z" />
    <glyph glyph-name="Scaron" unicode="&#x160;" horiz-adv-x="1118" 
d="M941 1306q-66 21 -142 21q-141 0 -235 -66.5t-92 -181.5q1 -53 24.5 -92.5t60 -71t82 -57.5t92.5 -53q59 -34 114 -70.5t97 -82.5t67.5 -104.5t25.5 -136.5q0 -210 -183 -327t-452 -117q-173 0 -359 54l-4 9l106 363l64 10l27 -309q79 -28 168 -28q148 0 247 69t99 185
q0 55 -23 96t-60 73t-83 57.5t-92 51.5q-51 28 -104.5 61.5t-97 79.5t-71 106.5t-27.5 143.5q0 205 166.5 319.5t444.5 114.5q172 0 337 -45l4 -9l-112 -324l-57 -9zM786 1652l341 147l27 -52l-299 -249h-168l-245 254l37 47zM160 1400z" />
    <glyph glyph-name="scaron" unicode="&#x161;" horiz-adv-x="932" 
d="M702 830q-60 16 -110 16q-100 0 -154 -34.5t-54 -102.5q0 -29 15.5 -51t42 -40.5t60.5 -35t71 -33.5q43 -21 86.5 -45t77.5 -55.5t55.5 -73t21.5 -97.5q0 -146 -116 -225.5t-319 -79.5q-96 0 -190 18t-172 48q17 60 33 126t30 135l50 8l65 -216q72 -21 142 -21
q91 0 144 38t53 110q0 31 -16 54t-42 42t-60 35.5t-70 33.5q-41 19 -80.5 42t-71 54t-51 72t-19.5 96q0 140 123 217.5t329 77.5q158 0 304 -47q-15 -51 -30.5 -115t-29.5 -137l-49 -9zM316 1422h88l179 -224l249 224h92l-264 -378h-200zM30 944z" />
    <glyph glyph-name="uni0162" unicode="&#x162;" horiz-adv-x="1266" 
d="M352 1294l-143 -268l-57 -9l41 375l9 8q125 -2 240.5 -3t226.5 -1h276q115 0 234.5 1t245.5 3l4 -8l-131 -366l-57 -9l-13 277h-292l-186 -975q-11 -60 -20.5 -109t-15.5 -89q-3 -25 28 -34l136 -39l-8 -51q-185 3 -323 3q-148 0 -322 -3l4 51l151 41q28 7 34 31
q9 39 19 89t21 110l187 975h-289zM358 -461q109 83 109 165q0 68 -73 107q0 50 30.5 79.5t77.5 29.5q50 0 81 -36.5t31 -93.5q0 -157 -220 -291z" />
    <glyph glyph-name="uni0162" unicode="&#x21a;" horiz-adv-x="1266" 
d="M352 1294l-143 -268l-57 -9l41 375l9 8q125 -2 240.5 -3t226.5 -1h276q115 0 234.5 1t245.5 3l4 -8l-131 -366l-57 -9l-13 277h-292l-186 -975q-11 -60 -20.5 -109t-15.5 -89q-3 -25 28 -34l136 -39l-8 -51q-185 3 -323 3q-148 0 -322 -3l4 51l151 41q28 7 34 31
q9 39 19 89t21 110l187 975h-289zM358 -461q109 83 109 165q0 68 -73 107q0 50 30.5 79.5t77.5 29.5q50 0 81 -36.5t31 -93.5q0 -157 -220 -291z" />
    <glyph glyph-name="uni0163" unicode="&#x163;" horiz-adv-x="848" 
d="M446 1154l165 29l12 -7q-46 -189 -63 -268h281l-20 -105h-285q-29 -128 -58.5 -259.5t-56.5 -264.5q-9 -45 -9 -78q0 -57 28 -80t79 -23q69 0 182 31l10 -65q-185 -90 -349 -90q-112 0 -174 46t-62 137q0 30 6 66q18 95 49.5 239t79.5 350l-142 37l3 43l176 16zM183 -461
q109 83 109 165q0 68 -73 107q0 50 30.5 79.5t77.5 29.5q50 0 81 -36.5t31 -93.5q0 -157 -220 -291z" />
    <glyph glyph-name="uni0163" unicode="&#x21b;" horiz-adv-x="848" 
d="M446 1154l165 29l12 -7q-46 -189 -63 -268h281l-20 -105h-285q-29 -128 -58.5 -259.5t-56.5 -264.5q-9 -45 -9 -78q0 -57 28 -80t79 -23q69 0 182 31l10 -65q-185 -90 -349 -90q-112 0 -174 46t-62 137q0 30 6 66q18 95 49.5 239t79.5 350l-142 37l3 43l176 16zM183 -461
q109 83 109 165q0 68 -73 107q0 50 30.5 79.5t77.5 29.5q50 0 81 -36.5t31 -93.5q0 -157 -220 -291z" />
    <glyph glyph-name="Tcaron" unicode="&#x164;" horiz-adv-x="1266" 
d="M352 1294l-143 -268l-57 -9l41 375l9 8q125 -2 240.5 -3t226.5 -1h276q115 0 234.5 1t245.5 3l4 -8l-131 -366l-57 -9l-13 277h-292l-186 -975q-11 -60 -20.5 -109t-15.5 -89q-3 -25 28 -34l136 -39l-8 -51q-185 3 -323 3q-148 0 -322 -3l4 51l151 41q28 7 34 31
q9 39 19 89t21 110l187 975h-289zM832 1652l341 147l27 -52l-299 -249h-168l-245 254l37 47zM206 1400z" />
    <glyph glyph-name="tcaron" unicode="&#x165;" horiz-adv-x="848" 
d="M446 1154l165 29l12 -7q-46 -189 -63 -268h281l-20 -105h-285q-29 -128 -58.5 -259.5t-56.5 -264.5q-9 -45 -9 -78q0 -57 28 -80t79 -23q69 0 182 31l10 -65q-185 -90 -349 -90q-112 0 -174 46t-62 137q0 30 6 66q18 95 49.5 239t79.5 350l-142 37l3 43l176 16zM734 1008
q114 111 114 219q0 88 -93 138q3 55 37 86.5t90 31.5t91 -39.5t35 -104.5q0 -192 -237 -372zM672 944z" />
    <glyph glyph-name="Tbar" unicode="&#x166;" horiz-adv-x="1266" 
d="M352 1294l-143 -268l-57 -9l41 375l9 8q125 -2 240.5 -3t226.5 -1h276q115 0 234.5 1t245.5 3l4 -8l-131 -366l-57 -9l-13 277h-292l-104 -545h248l-19 -104h-249l-62 -326q-11 -60 -20.5 -109t-15.5 -89q-3 -25 28 -34l136 -39l-8 -51q-185 3 -323 3q-148 0 -322 -3
l4 51l151 41q28 7 34 31q9 39 19 89t21 110l62 326h-246l19 104h247l105 545h-289z" />
    <glyph glyph-name="tbar" unicode="&#x167;" horiz-adv-x="848" 
d="M75 613h140q20 89 46 199l-142 37l3 43l176 16l148 246l165 29l12 -7q-46 -189 -63 -268h281l-20 -105h-285q-22 -94 -43 -190h292l-18 -95h-296q-26 -119 -50 -239q-9 -45 -9 -78q0 -57 28 -80t79 -23q69 0 182 31l10 -65q-185 -90 -349 -90q-112 0 -174 46t-62 137
q0 30 6 66q18 95 62 295h-138z" />
    <glyph glyph-name="Utilde" unicode="&#x168;" horiz-adv-x="1503" 
d="M221 1400q85 -2 158.5 -3t142.5 -1q72 0 145.5 1t151.5 3l-6 -51l-124 -37q-23 -6 -29 -31q-7 -35 -14.5 -76.5t-16.5 -90.5l-97 -517q-23 -124 -23 -208q0 -147 69 -225.5t204 -78.5q91 0 155 35t108 95t71.5 141.5t46.5 174.5l110 583q9 49 16 90.5t13 76.5
q3 25 -20 31l-124 34l8 54q72 -2 128.5 -3t101.5 -1q46 0 102 1t125 3l-6 -51l-139 -39q-25 -7 -31 -34q-7 -33 -15 -74t-18 -92l-97 -505q-30 -152 -73.5 -271t-113 -200.5t-172 -124t-250.5 -42.5q-236 0 -365.5 111.5t-129.5 327.5q0 81 18 173l101 531q10 51 17 92
t13 74q5 26 -18 34l-131 39zM1342 1737q-120 -212 -231 -212q-38 0 -70 15t-70 38q-18 11 -31.5 19t-26.5 14t-25 8.5t-24 2.5q-30 0 -54.5 -16t-84.5 -80l-50 42q72 114 122.5 160.5t104.5 46.5q30 0 57 -10q27 -11 76 -39q22 -12 38 -21t29 -15.5t25 -9.5t25 -3
q32 0 54.5 16t82.5 81zM360 1400z" />
    <glyph glyph-name="utilde" unicode="&#x169;" horiz-adv-x="1266" 
d="M92 850l6 46q175 46 291 46q67 0 103.5 -23t36.5 -74q0 -24 -4 -41l-100 -454q-9 -44 -9 -81q0 -68 29.5 -105.5t80.5 -37.5q90 0 215 114l140 672l281 10l-153 -742q-6 -29 -6 -47q0 -20 7.5 -32t25.5 -18.5t47.5 -8.5t73.5 -3l-6 -47q-175 -42 -262 -42
q-75 0 -118.5 34.5t-43.5 98.5q0 9 1 19q-166 -162 -327 -162q-118 0 -189.5 70.5t-71.5 192.5q0 27 3.5 56t9.5 60l82 398q8 39 8 52q0 27 -24 38t-127 11zM1093 1327q-124 -220 -240 -220q-39 0 -72 15.5t-73 39.5q-19 11 -33 19.5t-27.5 14.5t-25.5 9t-25 3
q-31 0 -56.5 -17t-87.5 -83l-52 44q75 118 127.5 166t108.5 48q31 0 59 -10q28 -11 78 -40q23 -13 39.5 -22.5t30.5 -16t26 -9.5t26 -3q33 0 56.5 16.5t85.5 83.5zM175 944z" />
    <glyph glyph-name="Umacron" unicode="&#x16a;" horiz-adv-x="1503" 
d="M221 1400q85 -2 158.5 -3t142.5 -1q72 0 145.5 1t151.5 3l-6 -51l-124 -37q-23 -6 -29 -31q-7 -35 -14.5 -76.5t-16.5 -90.5l-97 -517q-23 -124 -23 -208q0 -147 69 -225.5t204 -78.5q91 0 155 35t108 95t71.5 141.5t46.5 174.5l110 583q9 49 16 90.5t13 76.5
q3 25 -20 31l-124 34l8 54q72 -2 128.5 -3t101.5 -1q46 0 102 1t125 3l-6 -51l-139 -39q-25 -7 -31 -34q-7 -33 -15 -74t-18 -92l-97 -505q-30 -152 -73.5 -271t-113 -200.5t-172 -124t-250.5 -42.5q-236 0 -365.5 111.5t-129.5 327.5q0 81 18 173l101 531q10 51 17 92
t13 74q5 26 -18 34l-131 39zM695 1557l24 122h570l-24 -122h-570zM360 1400z" />
    <glyph glyph-name="umacron" unicode="&#x16b;" horiz-adv-x="1266" 
d="M92 850l6 46q175 46 291 46q67 0 103.5 -23t36.5 -74q0 -24 -4 -41l-100 -454q-9 -44 -9 -81q0 -68 29.5 -105.5t80.5 -37.5q90 0 215 114l140 672l281 10l-153 -742q-6 -29 -6 -47q0 -20 7.5 -32t25.5 -18.5t47.5 -8.5t73.5 -3l-6 -47q-175 -42 -262 -42
q-75 0 -118.5 34.5t-43.5 98.5q0 9 1 19q-166 -162 -327 -162q-118 0 -189.5 70.5t-71.5 192.5q0 27 3.5 56t9.5 60l82 398q8 39 8 52q0 27 -24 38t-127 11zM452 1184l24 122h570l-24 -122h-570zM175 944z" />
    <glyph glyph-name="Ubreve" unicode="&#x16c;" horiz-adv-x="1503" 
d="M221 1400q85 -2 158.5 -3t142.5 -1q72 0 145.5 1t151.5 3l-6 -51l-124 -37q-23 -6 -29 -31q-7 -35 -14.5 -76.5t-16.5 -90.5l-97 -517q-23 -124 -23 -208q0 -147 69 -225.5t204 -78.5q91 0 155 35t108 95t71.5 141.5t46.5 174.5l110 583q9 49 16 90.5t13 76.5
q3 25 -20 31l-124 34l8 54q72 -2 128.5 -3t101.5 -1q46 0 102 1t125 3l-6 -51l-139 -39q-25 -7 -31 -34q-7 -33 -15 -74t-18 -92l-97 -505q-30 -152 -73.5 -271t-113 -200.5t-172 -124t-250.5 -42.5q-236 0 -365.5 111.5t-129.5 327.5q0 81 18 173l101 531q10 51 17 92
t13 74q5 26 -18 34l-131 39zM812 1822q0 -82 45.5 -125t137.5 -43q84 0 142.5 42.5t90.5 118.5l72 7q-20 -138 -105 -227.5t-218 -89.5q-119 0 -180.5 60.5t-61.5 177.5q0 33 6 72zM360 1400z" />
    <glyph glyph-name="ubreve" unicode="&#x16d;" horiz-adv-x="1266" 
d="M92 850l6 46q175 46 291 46q67 0 103.5 -23t36.5 -74q0 -24 -4 -41l-100 -454q-9 -44 -9 -81q0 -68 29.5 -105.5t80.5 -37.5q90 0 215 114l140 672l281 10l-153 -742q-6 -29 -6 -47q0 -20 7.5 -32t25.5 -18.5t47.5 -8.5t73.5 -3l-6 -47q-175 -42 -262 -42
q-75 0 -118.5 34.5t-43.5 98.5q0 9 1 19q-166 -162 -327 -162q-118 0 -189.5 70.5t-71.5 192.5q0 27 3.5 56t9.5 60l82 398q8 39 8 52q0 27 -24 38t-127 11zM556 1399q0 -93 45 -143t131 -50q84 0 141 49t89 137l76 7q-21 -153 -106.5 -251.5t-222.5 -98.5q-113 0 -174 67.5
t-61 196.5q0 36 6 79zM175 944z" />
    <glyph glyph-name="Uring" unicode="&#x16e;" horiz-adv-x="1503" 
d="M221 1400q85 -2 158.5 -3t142.5 -1q72 0 145.5 1t151.5 3l-6 -51l-124 -37q-23 -6 -29 -31q-7 -35 -14.5 -76.5t-16.5 -90.5l-97 -517q-23 -124 -23 -208q0 -147 69 -225.5t204 -78.5q91 0 155 35t108 95t71.5 141.5t46.5 174.5l110 583q9 49 16 90.5t13 76.5
q3 25 -20 31l-124 34l8 54q72 -2 128.5 -3t101.5 -1q46 0 102 1t125 3l-6 -51l-139 -39q-25 -7 -31 -34q-7 -33 -15 -74t-18 -92l-97 -505q-30 -152 -73.5 -271t-113 -200.5t-172 -124t-250.5 -42.5q-236 0 -365.5 111.5t-129.5 327.5q0 81 18 173l101 531q10 51 17 92
t13 74q5 26 -18 34l-131 39zM973 1468q-92 0 -146.5 42t-54.5 114q0 93 75.5 152.5t177.5 59.5q82 0 140.5 -44t58.5 -115q0 -94 -72 -151.5t-179 -57.5zM984 1534q52 0 83.5 38t31.5 100q0 43 -22 70.5t-63 27.5q-54 0 -85.5 -39.5t-31.5 -100.5q0 -41 22.5 -68.5
t64.5 -27.5zM360 1400z" />
    <glyph glyph-name="uring" unicode="&#x16f;" horiz-adv-x="1266" 
d="M92 850l6 46q175 46 291 46q67 0 103.5 -23t36.5 -74q0 -24 -4 -41l-100 -454q-9 -44 -9 -81q0 -68 29.5 -105.5t80.5 -37.5q90 0 215 114l140 672l281 10l-153 -742q-6 -29 -6 -47q0 -20 7.5 -32t25.5 -18.5t47.5 -8.5t73.5 -3l-6 -47q-175 -42 -262 -42
q-75 0 -118.5 34.5t-43.5 98.5q0 9 1 19q-166 -162 -327 -162q-118 0 -189.5 70.5t-71.5 192.5q0 27 3.5 56t9.5 60l82 398q8 39 8 52q0 27 -24 38t-127 11zM710 1044q-96 0 -151.5 45t-55.5 121q0 99 80.5 162.5t186.5 63.5q86 0 145.5 -47t59.5 -122q0 -100 -77 -161.5
t-188 -61.5zM724 1114q55 0 87.5 40.5t32.5 106.5q0 46 -22.5 75.5t-65.5 29.5q-57 0 -89.5 -42t-32.5 -107q0 -44 23.5 -73.5t66.5 -29.5zM175 944z" />
    <glyph glyph-name="Uhungarumlaut" unicode="&#x170;" horiz-adv-x="1503" 
d="M221 1400q85 -2 158.5 -3t142.5 -1q72 0 145.5 1t151.5 3l-6 -51l-124 -37q-23 -6 -29 -31q-7 -35 -14.5 -76.5t-16.5 -90.5l-97 -517q-23 -124 -23 -208q0 -147 69 -225.5t204 -78.5q91 0 155 35t108 95t71.5 141.5t46.5 174.5l110 583q9 49 16 90.5t13 76.5
q3 25 -20 31l-124 34l8 54q72 -2 128.5 -3t101.5 -1q46 0 102 1t125 3l-6 -51l-139 -39q-25 -7 -31 -34q-7 -33 -15 -74t-18 -92l-97 -505q-30 -152 -73.5 -271t-113 -200.5t-172 -124t-250.5 -42.5q-236 0 -365.5 111.5t-129.5 327.5q0 81 18 173l101 531q10 51 17 92
t13 74q5 26 -18 34l-131 39zM895 1776h236l-291 -282h-79zM1192 1776h236l-291 -282h-79zM360 1400z" />
    <glyph glyph-name="uhungarumlaut" unicode="&#x171;" horiz-adv-x="1266" 
d="M92 850l6 46q175 46 291 46q67 0 103.5 -23t36.5 -74q0 -24 -4 -41l-100 -454q-9 -44 -9 -81q0 -68 29.5 -105.5t80.5 -37.5q90 0 215 114l140 672l281 10l-153 -742q-6 -29 -6 -47q0 -20 7.5 -32t25.5 -18.5t47.5 -8.5t73.5 -3l-6 -47q-175 -42 -262 -42
q-75 0 -118.5 34.5t-43.5 98.5q0 9 1 19q-166 -162 -327 -162q-118 0 -189.5 70.5t-71.5 192.5q0 27 3.5 56t9.5 60l82 398q8 39 8 52q0 27 -24 38t-127 11zM640 1422h236l-307 -378h-79zM949 1422h236l-307 -378h-79zM175 944z" />
    <glyph glyph-name="Uogonek" unicode="&#x172;" horiz-adv-x="1503" 
d="M221 1400q85 -2 158.5 -3t142.5 -1q72 0 145.5 1t151.5 3l-6 -51l-124 -37q-23 -6 -29 -31q-7 -35 -14.5 -76.5t-16.5 -90.5l-97 -517q-23 -124 -23 -208q0 -147 69 -225.5t204 -78.5q91 0 155 35t108 95t71.5 141.5t46.5 174.5l110 583q9 49 16 90.5t13 76.5
q3 25 -20 31l-124 34l8 54q72 -2 128.5 -3t101.5 -1q46 0 102 1t125 3l-6 -51l-139 -39q-25 -7 -31 -34q-7 -33 -15 -74t-18 -92l-97 -505q-30 -152 -73.5 -271t-120.5 -208.5t-227 -137.5q-88 -28 -135.5 -100.5t-47.5 -143.5q0 -64 38.5 -99.5t108.5 -35.5q33 0 77 9
l10 -52q-171 -61 -271 -61q-101 0 -161 47t-60 127q0 162 234 284l-2 5q-223 4 -348.5 113t-125.5 325q0 81 18 173l101 531q10 51 17 92t13 74q5 26 -18 34l-131 39z" />
    <glyph glyph-name="uogonek" unicode="&#x173;" horiz-adv-x="1266" 
d="M92 850l6 46q175 46 291 46q67 0 103.5 -23t36.5 -74q0 -24 -4 -41l-100 -454q-9 -44 -9 -81q0 -68 29.5 -105.5t80.5 -37.5q90 0 215 114l140 672l281 10l-153 -742q-6 -29 -6 -47q0 -20 7.5 -32t25.5 -18.5t47.5 -8.5t73.5 -3l-6 -47q-101 -24 -173 -34
q-62 -36 -106.5 -105.5t-44.5 -140.5q0 -64 38.5 -99.5t108.5 -35.5q33 0 77 9l10 -52q-171 -61 -271 -61q-101 0 -161 47t-60 127q0 171 255 311q-97 29 -97 125q0 9 1 19q-166 -162 -327 -162q-118 0 -189.5 70.5t-71.5 192.5q0 27 3.5 56t9.5 60l82 398q8 39 8 52
q0 27 -24 38t-127 11z" />
    <glyph glyph-name="Wcircumflex" unicode="&#x174;" horiz-adv-x="1975" 
d="M1729 1399q69 -2 127 -2.5t115 -0.5t113.5 0.5t107.5 2.5l-6 -51l-111 -31q-25 -7 -43 -19t-31.5 -27t-24 -32t-19.5 -34l-636 -1206l-122 -11l-108 813l-12 117l-60 -117l-432 -802l-117 -11l-159 1202q-4 28 -7.5 49.5t-11 37.5t-21 26.5t-37.5 16.5l-106 28l7 51
q82 -2 161 -2.5t152 -0.5q138 0 312 3l-5 -51l-97 -28q-21 -7 -34.5 -18t-13.5 -43q0 -16 3 -46t8 -74l70 -568l12 -127l65 127l444 830l102 9l104 -838l13 -128l62 128l288 563q30 59 48.5 97.5t18.5 55.5q0 21 -34 31l-94 27zM1267 1622l-341 -147l-27 52l302 249h168
l242 -254l-37 -47zM640 1400z" />
    <glyph glyph-name="wcircumflex" unicode="&#x175;" horiz-adv-x="1554" 
d="M968 -9l-137 -14q-17 112 -33.5 216.5t-35.5 209.5q-170 -259 -312 -412l-137 -14q-9 64 -18.5 124.5t-19.5 119.5t-20.5 118t-20.5 121q-5 30 -14 74t-19.5 90t-22 89t-21.5 71q-6 16 -13.5 28.5t-24.5 20.5t-46.5 12.5t-79.5 4.5l6 46q175 46 265 46q60 0 95 -15
t52 -53q9 -21 19.5 -57.5t21 -81.5t20.5 -95.5t19 -98.5t16 -91t11 -74l15 -116q116 152 198 304q-15 78 -32.5 157.5t-38.5 164.5q133 27 240 52l17 -6q61 -217 117 -556l16 -116q91 137 143 288.5t52 325.5q75 17 142.5 35.5t130.5 37.5l18 -11q-1 -68 -31.5 -152
t-79 -174t-109.5 -181t-124 -173.5t-121.5 -151t-102.5 -113.5zM1124 1044h-88l-179 224l-249 -224h-92l264 378h200zM290 944z" />
    <glyph glyph-name="Ycircumflex" unicode="&#x176;" horiz-adv-x="1261" 
d="M1055 1141q35 48 60.5 86.5t25.5 59.5q0 25 -37 35l-88 24l7 54q121 -4 239 -4q113 0 227 4l-5 -51l-118 -32q-39 -11 -62.5 -35t-50.5 -59l-428 -583l-63 -325q-12 -60 -20.5 -109t-15.5 -89q-3 -25 28 -34l122 -35l-9 -51q-170 3 -312 3q-143 0 -302 -3l5 51l135 37
q27 7 34 31q8 40 18 89.5t22 109.5l59 313l-222 567q-26 61 -44 88t-55 38l-101 28l5 51q123 -4 306 -4q146 0 320 4l-2 -51l-100 -26q-23 -5 -35 -17t-12 -33q0 -27 33 -110l157 -410zM877 1622l-341 -147l-27 52l302 249h168l242 -254l-37 -47zM250 1400z" />
    <glyph glyph-name="ycircumflex" unicode="&#x177;" horiz-adv-x="1065" 
d="M772 874q148 41 269 77l22 -15q-39 -108 -80.5 -203t-84 -179t-85 -158.5t-82.5 -140.5q-42 -69 -78.5 -129.5t-68.5 -116.5q-26 -44 -53.5 -99.5t-54 -113t-48.5 -112t-37 -94.5q-12 -33 -29.5 -51.5t-42.5 -27.5t-59.5 -11t-80.5 -2q-125 0 -218 10l-5 51
q60 7 109.5 22t84.5 43q21 16 46.5 40.5t60 66.5t81 106.5t109.5 160.5l-56 13q-7 54 -22 126t-35 150t-43 157.5t-46 147.5t-44 119.5t-36 74.5q-16 24 -35 36.5t-41.5 18t-49 7t-56.5 2.5l6 46q171 46 266 46q54 0 96 -16t62 -52q15 -27 37 -79t45 -120.5t46.5 -148.5
t41.5 -163l19 -108q78 152 121.5 305.5t48.5 313.5zM914 1044h-88l-179 224l-249 -224h-92l264 378h200zM80 944z" />
    <glyph glyph-name="Ydieresis" unicode="&#x178;" horiz-adv-x="1261" 
d="M1055 1141q35 48 60.5 86.5t25.5 59.5q0 25 -37 35l-88 24l7 54q121 -4 239 -4q113 0 227 4l-5 -51l-118 -32q-39 -11 -62.5 -35t-50.5 -59l-428 -583l-63 -325q-12 -60 -20.5 -109t-15.5 -89q-3 -25 28 -34l122 -35l-9 -51q-170 3 -312 3q-143 0 -302 -3l5 51l135 37
q27 7 34 31q8 40 18 89.5t22 109.5l59 313l-222 567q-26 61 -44 88t-55 38l-101 28l5 51q123 -4 306 -4q146 0 320 4l-2 -51l-100 -26q-23 -5 -35 -17t-12 -33q0 -27 33 -110l157 -410zM806 1655q0 -61 -36 -97.5t-94 -36.5q-56 0 -90.5 34.5t-34.5 90.5q0 61 36.5 95.5
t95.5 34.5q55 0 89 -31.5t34 -89.5zM1215 1655q0 -61 -36.5 -97.5t-94.5 -36.5q-55 0 -89.5 34.5t-34.5 90.5q0 61 36 95.5t95 34.5q56 0 90 -31.5t34 -89.5zM250 1400z" />
    <glyph glyph-name="Zacute" unicode="&#x179;" horiz-adv-x="1228" 
d="M-22 -3l4 50l949 1248h-501l-109 -243l-57 -8l6 348l8 8q254 -4 476 -4h253q163 0 308 4l-5 -51l-948 -1246h534l187 292l60 9l-94 -400l-7 -7q-303 3 -523 3h-278q-140 0 -263 -3zM1078 1647l-485 -174l-31 52l360 275l156 -138v-15zM190 1400z" />
    <glyph glyph-name="zacute" unicode="&#x17a;" horiz-adv-x="1041" 
d="M0 30q192 234 319.5 398t304.5 399h-326l-83 -209l-51 -7l-19 301l6 10q203 -4 420 -4q226 0 437 4l3 -32q-166 -203 -315 -398.5t-301 -397.5h329l145 215l55 7l-58 -312l-9 -7q-181 3 -429 3q-252 0 -423 -3zM683 1422h257l-328 -378h-84zM60 944z" />
    <glyph glyph-name="Zdotaccent" unicode="&#x17b;" horiz-adv-x="1228" 
d="M-22 -3l4 50l949 1248h-501l-109 -243l-57 -8l6 348l8 8q254 -4 476 -4h253q163 0 308 4l-5 -51l-948 -1246h534l187 292l60 9l-94 -400l-7 -7q-303 3 -523 3h-278q-140 0 -263 -3zM969 1661q0 -63 -41 -102.5t-103 -39.5q-61 0 -100 37t-39 95q0 65 41 102.5t104 37.5
q61 0 99.5 -34.5t38.5 -95.5zM190 1400z" />
    <glyph glyph-name="zdotaccent" unicode="&#x17c;" horiz-adv-x="1041" 
d="M0 30q192 234 319.5 398t304.5 399h-326l-83 -209l-51 -7l-19 301l6 10q203 -4 420 -4q226 0 437 4l3 -32q-166 -203 -315 -398.5t-301 -397.5h329l145 215l55 7l-58 -312l-9 -7q-181 3 -429 3q-252 0 -423 -3zM775 1304q0 -67 -41.5 -109t-103.5 -42q-61 0 -100.5 39.5
t-39.5 101.5q0 69 41.5 109t104.5 40q61 0 100 -37t39 -102zM61 950z" />
    <glyph glyph-name="Zcaron" unicode="&#x17d;" horiz-adv-x="1228" 
d="M-22 -3l4 50l949 1248h-501l-109 -243l-57 -8l6 348l8 8q254 -4 476 -4h253q163 0 308 4l-5 -51l-948 -1246h534l187 292l60 9l-94 -400l-7 -7q-303 3 -523 3h-278q-140 0 -263 -3zM816 1652l341 147l27 -52l-299 -249h-168l-245 254l37 47zM190 1400z" />
    <glyph glyph-name="zcaron" unicode="&#x17e;" horiz-adv-x="1041" 
d="M0 30q192 234 319.5 398t304.5 399h-326l-83 -209l-51 -7l-19 301l6 10q203 -4 420 -4q226 0 437 4l3 -32q-166 -203 -315 -398.5t-301 -397.5h329l145 215l55 7l-58 -312l-9 -7q-181 3 -429 3q-252 0 -423 -3zM346 1422h88l179 -224l249 224h92l-264 -378h-200zM60 944z
" />
    <glyph glyph-name="longs" unicode="&#x17f;" horiz-adv-x="650" 
d="M254 810l-148 39l3 43l162 15q62 290 224.5 445t381.5 155q102 0 199 -29q-41 -137 -72 -287l-56 -9l-53 225q-20 5 -52 5q-91 0 -158 -85.5t-116 -337.5l-189 -924q-62 -293 -177 -427t-317 -134q-78 0 -181 21q23 110 50 210l14 4q114 -131 169 -131q56 0 94 80
q19 40 36.5 110t36.5 176z" />
    <glyph glyph-name="florin" unicode="&#x192;" 
d="M142 678l21 105h198l5 27q24 133 71.5 237.5t120 176.5t170 110t220.5 38q127 0 261 -40l4 -10l-114 -312l-47 -9l-9 250q-51 26 -105 26q-66 0 -110.5 -29t-75.5 -83.5t-53 -133t-43 -177.5l-15 -71h296l-21 -105h-297l-124 -599q-31 -147 -75 -256.5t-102 -176.5
t-136.5 -98t-180.5 -31q-78 0 -181 21l50 210l14 4q57 -66 99 -100.5t70 -34.5t50.5 17.5t42 60.5t37.5 114.5t37 178.5l122 690h-200z" />
    <glyph glyph-name="Aringacute" unicode="&#x1fa;" horiz-adv-x="1367" 
d="M324 50l-9 -53q-136 3 -248 3t-213 -3l6 51l111 31q48 17 74.5 48t46.5 64l718 1213l110 17l209 -1215q6 -34 12.5 -57.5t14.5 -36.5q16 -26 51 -36l106 -28l-7 -51q-163 3 -308 3q-141 0 -315 -3l5 51l97 28q21 7 34.5 18t13.5 43q0 31 -15 120l-30 186h-415l-105 -183
q-32 -57 -52 -96t-20 -56q0 -20 34 -31zM431 546h340l-59 368l-13 106l-57 -105zM873 1457q-90 0 -142.5 40.5t-52.5 109.5q0 91 73.5 148t172.5 57q80 0 137 -42.5t57 -110.5q0 -91 -70.5 -146.5t-174.5 -55.5zM884 1522q51 0 82 36.5t31 95.5q0 42 -21.5 68.5t-62.5 26.5
q-53 0 -84 -38t-31 -97q0 -39 22 -65.5t64 -26.5zM1206 1975l-441 -158l-28 47l327 250l142 -125v-14z" />
    <glyph glyph-name="aringacute" unicode="&#x1fb;" horiz-adv-x="1185" 
d="M1093 931q-37 -122 -75 -312l-90 -445q-5 -23 -5 -38q0 -21 8.5 -33.5t27 -20t48 -9.5t72.5 -2l-7 -47q-175 -42 -264 -42q-75 0 -117.5 33.5t-42.5 96.5v20q-181 -159 -261 -159q-136 0 -226 104.5t-90 265.5q0 253 172.5 427t435.5 174q116 0 250 -37q74 13 147 35z
M784 827q-54 25 -123 25q-131 0 -216 -150t-85 -322q0 -101 31.5 -177.5t72.5 -76.5q56 0 198 107zM715 1025q-96 0 -151.5 45t-55.5 121q0 99 80.5 162.5t186.5 63.5q86 0 145.5 -47t59.5 -122q0 -100 -77 -161.5t-188 -61.5zM729 1095q55 0 87.5 40.5t32.5 106.5
q0 46 -22.5 75.5t-65.5 29.5q-57 0 -89.5 -42t-32.5 -107q0 -44 23.5 -73.5t66.5 -29.5zM180 925zM886 1852h257l-328 -378h-84zM263 1374z" />
    <glyph glyph-name="AEacute" unicode="&#x1fc;" horiz-adv-x="1900" 
d="M1027 1396h413q120 0 246.5 1t261.5 3l5 -8l-115 -333l-56 -8l-28 244h-375l-105 -552h129q50 0 114 1q28 1 39 27l62 136l62 2q-25 -110 -45.5 -216t-37.5 -211l-62 -4l-11 137q-1 25 -25 27q-45 1 -95 1.5t-108 0.5h-42l-61 -320q-11 -56 -20.5 -111t-19.5 -110h408
l168 266l63 9l-86 -374l-8 -7q-269 3 -503 3h-223q-150 0 -292 -3l6 51l135 37q27 7 34 31q8 40 18 89.5t22 109.5l63 329h-410l-263 -384q-38 -55 -59 -95t-21 -57q0 -21 34 -31l94 -27l-9 -53q-137 3 -251 3q-62 0 -122 -0.5t-111 -2.5l6 51l111 31q25 7 45.5 20t40 32
t38.5 44t41 56l738 1045q5 7 5 15q0 13 -22 19l-143 39l8 51q81 -2 160.5 -3t158.5 -1zM1082 1295h-86l-380 -552h361zM1688 1647l-485 -174l-31 52l360 275l156 -138v-15zM800 1400z" />
    <glyph glyph-name="aeacute" unicode="&#x1fd;" horiz-adv-x="1663" 
d="M1477 192l34 -50q-191 -167 -424 -167q-267 0 -375 207q-235 -209 -325 -209q-136 0 -226 104.5t-90 265.5q0 253 172.5 427t435.5 174q155 0 335 -65q131 65 290 65q144 0 222 -52.5t78 -152.5q0 -125 -160 -208.5t-472 -98.5q-2 -24 -2 -45q0 -135 55 -205.5t165 -70.5
q142 0 287 81zM661 852q-131 0 -216 -150t-85 -322q0 -101 31.5 -177.5t72.5 -76.5q63 0 225 130q-8 42 -8 89q0 260 191 435q-114 72 -211 72zM980 512q346 32 346 223q0 53 -24.5 79.5t-62.5 26.5q-82 0 -156 -91.5t-103 -237.5zM1053 1422h257l-328 -378h-84zM430 944z
" />
    <glyph glyph-name="Oslashacute" unicode="&#x1fe;" horiz-adv-x="1679" 
d="M764 -35q-237 0 -399 102l-150 -162l-79 68l146 158q-166 154 -166 422q0 368 248.5 621.5t615.5 253.5q242 0 405 -105l149 161l85 -63l-151 -163q162 -153 162 -418q0 -371 -248.5 -623t-617.5 -252zM1243 1170q-98 165 -291 165q-239 0 -379 -232t-140 -582
q0 -112 26 -199zM1288 1063l-783 -845q99 -160 288 -160q239 0 379 230.5t140 584.5q0 107 -24 190zM1273 1647l-485 -174l-31 52l360 275l156 -138v-15zM385 1400z" />
    <glyph glyph-name="oslashacute" unicode="&#x1ff;" horiz-adv-x="1201" 
d="M639 944q144 0 249 -50l78 97l70 -54l-72 -89q10 -8 20 -17q129 -112 129 -302q0 -240 -156.5 -398t-404.5 -158q-147 0 -252 50l-83 -103l-71 53l78 97q-10 7 -19 15q-127 113 -127 298q0 243 154 402t407 159zM413 163q53 -89 151 -89q116 0 187.5 141t71.5 325
q0 66 -11 118zM377 260l398 495q-52 88 -148 88q-113 0 -187.5 -137t-73.5 -328q0 -66 11 -118zM763 1422h257l-328 -378h-84zM140 944z" />
    <glyph glyph-name="uni0218" unicode="&#x218;" horiz-adv-x="1118" 
d="M941 1306q-66 21 -142 21q-141 0 -235 -66.5t-92 -181.5q1 -53 24.5 -92.5t60 -71t82 -57.5t92.5 -53q59 -34 114 -70.5t97 -82.5t67.5 -104.5t25.5 -136.5q0 -210 -183 -327t-452 -117q-173 0 -359 54l-4 9l106 363l64 10l27 -309q79 -28 168 -28q148 0 247 69t99 185
q0 55 -23 96t-60 73t-83 57.5t-92 51.5q-51 28 -104.5 61.5t-97 79.5t-71 106.5t-27.5 143.5q0 205 166.5 319.5t444.5 114.5q172 0 337 -45l4 -9l-112 -324l-57 -9zM274 -461q109 83 109 165q0 68 -73 107q0 50 30.5 79.5t77.5 29.5q50 0 81 -36.5t31 -93.5
q0 -157 -220 -291z" />
    <glyph glyph-name="uni0219" unicode="&#x219;" horiz-adv-x="932" 
d="M702 830q-60 16 -110 16q-100 0 -154 -34.5t-54 -102.5q0 -29 15.5 -51t42 -40.5t60.5 -35t71 -33.5q43 -21 86.5 -45t77.5 -55.5t55.5 -73t21.5 -97.5q0 -146 -116 -225.5t-319 -79.5q-96 0 -190 18t-172 48q17 60 33 126t30 135l50 8l65 -216q72 -21 142 -21
q91 0 144 38t53 110q0 31 -16 54t-42 42t-60 35.5t-70 33.5q-41 19 -80.5 42t-71 54t-51 72t-19.5 96q0 140 123 217.5t329 77.5q158 0 304 -47q-15 -51 -30.5 -115t-29.5 -137l-49 -9zM178 -461q109 83 109 165q0 68 -73 107q0 50 30.5 79.5t77.5 29.5q50 0 81 -36.5
t31 -93.5q0 -157 -220 -291z" />
    <glyph glyph-name="circumflex" unicode="&#x2c6;" horiz-adv-x="840" 
d="M834 1044h-88l-179 224l-249 -224h-92l264 378h200zM0 944z" />
    <glyph glyph-name="caron" unicode="&#x2c7;" horiz-adv-x="840" 
d="M286 1422h88l179 -224l249 224h92l-264 -378h-200zM0 944z" />
    <glyph glyph-name="breve" unicode="&#x2d8;" horiz-adv-x="840" 
d="M381 1399q0 -93 45 -143t131 -50q84 0 141 49t89 137l76 7q-21 -153 -106.5 -251.5t-222.5 -98.5q-113 0 -174 67.5t-61 196.5q0 36 6 79zM0 944z" />
    <glyph glyph-name="dotaccent" unicode="&#x2d9;" horiz-adv-x="840" 
d="M715 1304q0 -67 -41.5 -109t-103.5 -42q-61 0 -100.5 39.5t-39.5 101.5q0 69 41.5 109t104.5 40q61 0 100 -37t39 -102zM1 950z" />
    <glyph glyph-name="ring" unicode="&#x2da;" horiz-adv-x="840" 
d="M535 1044q-96 0 -151.5 45t-55.5 121q0 99 80.5 162.5t186.5 63.5q86 0 145.5 -47t59.5 -122q0 -100 -77 -161.5t-188 -61.5zM549 1114q55 0 87.5 40.5t32.5 106.5q0 46 -22.5 75.5t-65.5 29.5q-57 0 -89.5 -42t-32.5 -107q0 -44 23.5 -73.5t66.5 -29.5zM0 944z" />
    <glyph glyph-name="ogonek" unicode="&#x2db;" horiz-adv-x="840" 
d="M609 3q-79 -37 -128.5 -112.5t-49.5 -146.5q0 -64 38.5 -99.5t108.5 -35.5q33 0 77 9l10 -52q-171 -61 -271 -61q-101 0 -161 47t-60 127q0 174 265 317v5l85 22z" />
    <glyph glyph-name="tilde" unicode="&#x2dc;" horiz-adv-x="840" 
d="M918 1327q-124 -220 -240 -220q-39 0 -72 15.5t-73 39.5q-19 11 -33 19.5t-27.5 14.5t-25.5 9t-25 3q-31 0 -56.5 -17t-87.5 -83l-52 44q75 118 127.5 166t108.5 48q31 0 59 -10q28 -11 78 -40q23 -13 39.5 -22.5t30.5 -16t26 -9.5t26 -3q33 0 56.5 16.5t85.5 83.5z
M0 944z" />
    <glyph glyph-name="hungarumlaut" unicode="&#x2dd;" horiz-adv-x="840" 
d="M465 1422h236l-307 -378h-79zM774 1422h236l-307 -378h-79zM0 944z" />
    <glyph glyph-name="gravecomb" unicode="&#x300;" horiz-adv-x="0" 
d="M-262 1044h-84l-198 378h232zM-839 944z" />
    <glyph glyph-name="acutecomb" unicode="&#x301;" horiz-adv-x="0" 
d="M-216 1422h257l-328 -378h-84zM-839 944z" />
    <glyph glyph-name="uni0302" unicode="&#x302;" horiz-adv-x="0" 
d="M-5 1044h-88l-179 224l-249 -224h-92l264 378h200zM-839 944z" />
    <glyph glyph-name="tildecomb" unicode="&#x303;" horiz-adv-x="0" 
d="M79 1327q-124 -220 -240 -220q-39 0 -72 15.5t-73 39.5q-19 11 -33 19.5t-27.5 14.5t-25.5 9t-25 3q-31 0 -56.5 -17t-87.5 -83l-52 44q75 118 127.5 166t108.5 48q31 0 59 -10q28 -11 78 -40q23 -13 39.5 -22.5t30.5 -16t26 -9.5t26 -3q33 0 56.5 16.5t85.5 83.5z
M-839 944z" />
    <glyph glyph-name="uni0304" unicode="&#x304;" horiz-adv-x="0" 
d="M-562 1184l24 122h570l-24 -122h-570zM-839 944z" />
    <glyph glyph-name="uni0306" unicode="&#x306;" horiz-adv-x="0" 
d="M-458 1399q0 -93 45 -143t131 -50q84 0 141 49t89 137l76 7q-21 -153 -106.5 -251.5t-222.5 -98.5q-113 0 -174 67.5t-61 196.5q0 36 6 79zM-839 944z" />
    <glyph glyph-name="uni0307" unicode="&#x307;" horiz-adv-x="0" 
d="M-124 1304q0 -67 -41.5 -109t-103.5 -42q-61 0 -100.5 39.5t-39.5 101.5q0 69 41.5 109t104.5 40q61 0 100 -37t39 -102zM-838 950z" />
    <glyph glyph-name="uni0308" unicode="&#x308;" horiz-adv-x="0" 
d="M-342 1294q0 -64 -39 -102.5t-101 -38.5q-58 0 -95 36.5t-37 95.5q0 64 39 101.5t102 37.5q58 0 94.5 -34.5t36.5 -95.5zM74 1294q0 -64 -39 -102.5t-101 -38.5q-58 0 -95 36.5t-37 95.5q0 64 39 101.5t102 37.5q58 0 94.5 -34.5t36.5 -95.5zM-839 944z" />
    <glyph glyph-name="uni030A" unicode="&#x30a;" horiz-adv-x="0" 
d="M-304 1044q-96 0 -151.5 45t-55.5 121q0 99 80.5 162.5t186.5 63.5q86 0 145.5 -47t59.5 -122q0 -100 -77 -161.5t-188 -61.5zM-290 1114q55 0 87.5 40.5t32.5 106.5q0 46 -22.5 75.5t-65.5 29.5q-57 0 -89.5 -42t-32.5 -107q0 -44 23.5 -73.5t66.5 -29.5zM-839 944z" />
    <glyph glyph-name="uni030B" unicode="&#x30b;" horiz-adv-x="0" 
d="M-374 1422h236l-307 -378h-79zM-65 1422h236l-307 -378h-79zM-839 944z" />
    <glyph glyph-name="uni030C" unicode="&#x30c;" horiz-adv-x="0" 
d="M-553 1422h88l179 -224l249 224h92l-264 -378h-200zM-839 944z" />
    <glyph glyph-name="uni0312" unicode="&#x312;" horiz-adv-x="0" 
d="M-170 1421q-109 -83 -109 -165q0 -68 73 -107q0 -50 -30.5 -79.5t-77.5 -29.5q-50 0 -81 36.5t-31 93.5q0 157 220 291zM0 950z" />
    <glyph glyph-name="uni0315" unicode="&#x315;" horiz-adv-x="176" 
d="M62 1008q114 111 114 219q0 88 -93 138q3 55 37 86.5t90 31.5t91 -39.5t35 -104.5q0 -192 -237 -372zM0 944z" />
    <glyph glyph-name="uni0326" unicode="&#x326;" horiz-adv-x="0" 
d="M-662 -461q109 83 109 165q0 68 -73 107q0 50 30.5 79.5t77.5 29.5q50 0 81 -36.5t31 -93.5q0 -157 -220 -291z" />
    <glyph glyph-name="uni0327" unicode="&#x327;" horiz-adv-x="0" 
d="M-691 -189l147 189h91l-79 -106q101 -50 101 -134q0 -112 -210 -254l-38 41q98 80 98 148q0 72 -106 108z" />
    <glyph glyph-name="uni0328" unicode="&#x328;" horiz-adv-x="0" 
d="M-230 3q-79 -37 -128.5 -112.5t-49.5 -146.5q0 -64 38.5 -99.5t108.5 -35.5q33 0 77 9l10 -52q-171 -61 -271 -61q-101 0 -161 47t-60 127q0 174 265 317v5l85 22z" />
    <glyph glyph-name="uni0344" unicode="&#x344;" horiz-adv-x="0" 
d="M-306 1449h259l-280 -421h-75zM167 1221q0 -62 -37.5 -100t-97.5 -38q-56 0 -91 36t-35 94q0 63 37.5 99.5t98.5 36.5q55 0 90 -33.5t35 -94.5zM-445 1221q0 -62 -37 -100t-97 -38q-56 0 -91.5 36t-35.5 94q0 63 37.5 99.5t98.5 36.5q56 0 90.5 -33.5t34.5 -94.5z
M-836 945z" />
    <glyph glyph-name="uni0374" unicode="&#x374;" horiz-adv-x="584" 
d="M549 1436l-340 -448l-79 22l144 439h266z" />
    <glyph glyph-name="uni0375" unicode="&#x375;" horiz-adv-x="494" 
d="M0 -470l340 448l79 -22l-144 -439h-266z" />
    <glyph glyph-name="uni037E" unicode="&#x37e;" horiz-adv-x="524" 
d="M377 938q66 0 109 -42.5t43 -112.5q0 -69 -43 -113t-109 -44q-69 0 -111.5 44t-42.5 113q0 70 42.5 112.5t111.5 42.5zM17 -270q203 141 203 288q0 103 -111 163q5 69 52 110.5t109 41.5q69 0 110.5 -47t41.5 -128q0 -258 -361 -487z" />
    <glyph glyph-name="tonos" unicode="&#x384;" horiz-adv-x="840" 
d="M595 1449h269l-315 -421h-85zM0 950z" />
    <glyph glyph-name="dieresistonos" unicode="&#x385;" horiz-adv-x="840" 
d="M533 1449h259l-280 -421h-75zM1006 1221q0 -62 -37.5 -100t-97.5 -38q-56 0 -91 36t-35 94q0 63 37.5 99.5t98.5 36.5q55 0 90 -33.5t35 -94.5zM394 1221q0 -62 -37 -100t-97 -38q-56 0 -91.5 36t-35.5 94q0 63 37.5 99.5t98.5 36.5q56 0 90.5 -33.5t34.5 -94.5zM3 945z
" />
    <glyph glyph-name="Alphatonos" unicode="&#x386;" horiz-adv-x="1367" 
d="M324 50l-9 -53q-136 3 -248 3t-213 -3l6 51l111 31q48 17 74.5 48t46.5 64l718 1213l110 17l209 -1215q6 -34 12.5 -57.5t14.5 -36.5q16 -26 51 -36l106 -28l-7 -51q-163 3 -308 3q-141 0 -315 -3l5 51l97 28q21 7 34.5 18t13.5 43q0 31 -15 120l-30 186h-415l-105 -183
q-32 -57 -52 -96t-20 -56q0 -20 34 -31zM431 546h340l-59 368l-13 106l-57 -105zM370 1449h269l-315 -421h-85z" />
    <glyph glyph-name="anoteleia" unicode="&#x387;" horiz-adv-x="586" 
d="M360 1007q66 0 109 -42.5t43 -112.5q0 -69 -43 -113t-109 -44q-69 0 -111.5 44t-42.5 113q0 70 42.5 112.5t111.5 42.5z" />
    <glyph glyph-name="Epsilontonos" unicode="&#x388;" horiz-adv-x="1399" 
d="M743 1396h196q239 0 508 4l5 -8l-115 -333l-56 -8l-28 244h-375l-101 -533h43q72 0 200 1q28 1 39 27l62 137l62 2q-50 -218 -83 -426l-62 -4l-11 138q-2 26 -25 27q-88 2 -203 2h-42l-65 -342q-21 -111 -40 -221h408l168 266l63 9l-86 -374l-8 -7q-268 3 -503 3h-223
q-150 0 -292 -3l6 51l135 37q27 7 34 31q8 40 18 89.5t22 109.5l152 795q10 51 17 92t12 74q5 26 -17 34l-132 39l8 51q152 -4 309 -4zM155 1449h269l-315 -421h-85z" />
    <glyph glyph-name="Etatonos" unicode="&#x389;" horiz-adv-x="1871" 
d="M761 686l-71 -371q-22 -118 -34 -198q-4 -27 20 -34l117 -35l-9 -51q-160 3 -291 3q-148 0 -313 -3l6 51l135 37q29 8 34 31q18 80 40 198l151 795q19 100 29 167q5 26 -17 34l-131 39l9 51q175 -4 318 -4q136 0 292 4l-6 -52l-130 -35q-26 -6 -32 -31q-16 -72 -35 -169
l-61 -321h602l61 322q19 97 31 169q4 25 -20 31l-117 35l9 51q163 -4 297 -4q146 0 316 4l-6 -51l-150 -39q-24 -8 -30 -34q-15 -66 -34 -166l-151 -795q-21 -118 -35 -199q-3 -23 20 -31l129 -37l-9 -51q-178 3 -321 3q-137 0 -286 -3l6 51l127 35q27 7 33 34q18 80 40 198
l70 371h-603zM155 1449h269l-315 -421h-85z" />
    <glyph glyph-name="Iotatonos" unicode="&#x38a;" horiz-adv-x="972" 
d="M690 315q-12 -60 -21 -109t-15 -89q-3 -25 28 -34l122 -35l-8 -51q-170 3 -308 3q-148 0 -307 -3l4 51l135 37q28 8 34 31q9 39 18.5 89t21.5 110l153 795q10 51 17 92t12 74q5 27 -17 34l-131 39l9 51q85 -2 163 -3t150 -1t147 1t156 3l-7 -51l-137 -37q-25 -6 -31 -31
q-9 -35 -17 -76.5t-18 -90.5zM155 1449h269l-315 -421h-85z" />
    <glyph glyph-name="Omicrontonos" unicode="&#x38c;" horiz-adv-x="1749" 
d="M834 -35q-293 0 -470.5 156t-177.5 432q0 368 248.5 621.5t615.5 253.5q294 0 472 -155t178 -433q0 -371 -248.5 -623t-617.5 -252zM1377 873q0 216 -96 338t-259 122q-237 0 -375.5 -231.5t-138.5 -580.5q0 -214 95 -337.5t260 -123.5q237 0 375.5 230t138.5 583z
M181 1449h269l-315 -421h-85z" />
    <glyph glyph-name="Upsilontonos" unicode="&#x38e;" horiz-adv-x="1510" 
d="M1304 1141q35 48 60.5 86.5t25.5 59.5q0 25 -37 35l-88 24l7 54q121 -4 239 -4q113 0 227 4l-5 -51l-118 -32q-39 -11 -62.5 -35t-50.5 -59l-428 -583l-63 -325q-12 -60 -20.5 -109t-15.5 -89q-3 -25 28 -34l122 -35l-9 -51q-170 3 -312 3q-143 0 -302 -3l5 51l135 37
q27 7 34 31q8 40 18 89.5t22 109.5l59 313l-222 567q-26 61 -44 88t-55 38l-101 28l5 51q123 -4 306 -4q146 0 320 4l-2 -51l-100 -26q-23 -5 -35 -17t-12 -33q0 -27 33 -110l157 -410zM83 1449h269l-315 -421h-85z" />
    <glyph glyph-name="Omegatonos" unicode="&#x38f;" horiz-adv-x="1764" 
d="M739 0q-298 0 -554 -3l-6 10l6 422l60 9l82 -236h294l1 6q-338 321 -338 589q0 279 218.5 455t548.5 176q287 0 459.5 -135t172.5 -355q0 -373 -525 -729l-1 -7h310l150 227l63 9l-90 -431l-8 -10q-299 3 -595 3l4 186q370 348 370 733q0 207 -83 310.5t-235 103.5
q-209 0 -321.5 -170t-112.5 -456q0 -268 164 -521zM169 1449h269l-315 -421h-85z" />
    <glyph glyph-name="iotadieresistonos" unicode="&#x390;" horiz-adv-x="675" 
d="M248 898q163 22 300 52l8 -7q-34 -138 -65 -291l-95 -464q-6 -26 -6 -44q0 -25 10.5 -38.5t31.5 -20t52 -8.5t84 -2l-6 -47q-163 -52 -274 -52q-180 0 -180 132q0 31 6 62l96 466q30 145 38 262zM454 1449h259l-280 -421h-75zM927 1221q0 -62 -37.5 -100t-97.5 -38
q-56 0 -91 36t-35 94q0 63 37.5 99.5t98.5 36.5q55 0 90 -33.5t35 -94.5zM315 1221q0 -62 -37 -100t-97 -38q-56 0 -91.5 36t-35.5 94q0 63 37.5 99.5t98.5 36.5q56 0 90.5 -33.5t34.5 -94.5zM-76 945z" />
    <glyph glyph-name="Alpha" unicode="&#x391;" horiz-adv-x="1367" 
d="M324 50l-9 -53q-136 3 -248 3t-213 -3l6 51l111 31q48 17 74.5 48t46.5 64l718 1213l110 17l209 -1215q6 -34 12.5 -57.5t14.5 -36.5q16 -26 51 -36l106 -28l-7 -51q-163 3 -308 3q-141 0 -315 -3l5 51l97 28q21 7 34.5 18t13.5 43q0 31 -15 120l-30 186h-415l-105 -183
q-32 -57 -52 -96t-20 -56q0 -20 34 -31zM431 546h340l-59 368l-13 106l-57 -105z" />
    <glyph glyph-name="Beta" unicode="&#x392;" horiz-adv-x="1300" 
d="M259 1400q171 -4 309 -4q42 0 128.5 5t121.5 5q224 0 338.5 -77t114.5 -209q0 -293 -355 -363q298 -82 298 -311q0 -217 -175.5 -334.5t-465.5 -117.5q-52 0 -117.5 3t-161.5 3q-128 0 -290 -3l5 51l135 37q27 8 34 31q8 40 18 89.5t22 109.5l152 795q10 51 17 92t12 74
q5 25 -17 34l-131 39zM586 695l-114 -596q44 -14 117 -14q146 0 226 87.5t80 255.5q0 131 -58 201t-168 70q-47 0 -83 -4zM604 787q34 -2 75 -2q142 0 214.5 76.5t72.5 231.5q0 105 -50.5 161.5t-149.5 56.5q-31 0 -64 -5z" />
    <glyph glyph-name="Gamma" unicode="&#x393;" horiz-adv-x="1157" 
d="M514 315q-12 -60 -21 -109t-15 -89q-3 -25 28 -34l132 -35l-8 -51q-180 3 -326 3q-159 0 -301 -3l6 51l135 37q27 7 34 31q8 40 18 89.5t22 109.5l152 795q10 51 17 92t12 74q5 26 -17 34l-132 39l8 51q152 -4 309 -4h188q239 0 508 4l5 -8l-132 -383l-56 -8l-34 294
h-344z" />
    <glyph glyph-name="uni0394" unicode="&#x394;" horiz-adv-x="1327" 
d="M900 1421l237 -1374l-6 -50q-131 3 -268 3h-616q-136 0 -254 -3l-6 50l803 1357zM809 204l-117 710l-13 106l-57 -105l-409 -711h596z" />
    <glyph glyph-name="Epsilon" unicode="&#x395;" horiz-adv-x="1223" 
d="M567 1396h196q239 0 508 4l5 -8l-115 -333l-56 -8l-28 244h-375l-101 -533h43q72 0 200 1q28 1 39 27l62 137l62 2q-50 -218 -83 -426l-62 -4l-11 138q-2 26 -25 27q-88 2 -203 2h-42l-65 -342q-21 -111 -40 -221h408l168 266l63 9l-86 -374l-8 -7q-268 3 -503 3h-223
q-150 0 -292 -3l6 51l135 37q27 7 34 31q8 40 18 89.5t22 109.5l152 795q10 51 17 92t12 74q5 26 -17 34l-132 39l8 51q152 -4 309 -4z" />
    <glyph glyph-name="Zeta" unicode="&#x396;" horiz-adv-x="1228" 
d="M-22 -3l4 50l949 1248h-501l-109 -243l-57 -8l6 348l8 8q254 -4 476 -4h253q163 0 308 4l-5 -51l-948 -1246h534l187 292l60 9l-94 -400l-7 -7q-303 3 -523 3h-278q-140 0 -263 -3z" />
    <glyph glyph-name="Eta" unicode="&#x397;" horiz-adv-x="1695" 
d="M585 686l-71 -371q-22 -118 -34 -198q-4 -27 20 -34l117 -35l-9 -51q-160 3 -291 3q-148 0 -313 -3l6 51l135 37q29 8 34 31q18 80 40 198l151 795q19 100 29 167q5 26 -17 34l-131 39l9 51q175 -4 318 -4q136 0 292 4l-6 -52l-130 -35q-26 -6 -32 -31q-16 -72 -35 -169
l-61 -321h602l61 322q19 97 31 169q4 25 -20 31l-117 35l9 51q163 -4 297 -4q146 0 316 4l-6 -51l-150 -39q-24 -8 -30 -34q-15 -66 -34 -166l-151 -795q-21 -118 -35 -199q-3 -23 20 -31l129 -37l-9 -51q-178 3 -321 3q-137 0 -286 -3l6 51l127 35q27 7 33 34q18 80 40 198
l70 371h-603z" />
    <glyph glyph-name="Theta" unicode="&#x398;" horiz-adv-x="1694" 
d="M771 -35q-296 0 -475.5 156t-179.5 432q0 368 251 621.5t622 253.5q297 0 477 -155t180 -433q0 -371 -251 -623t-624 -252zM1333 874q0 216 -100 338.5t-270 122.5q-247 0 -391 -232t-144 -583q0 -214 98.5 -338t271.5 -124q247 0 391 230.5t144 585.5zM861 609
q-75 0 -177 -2q-26 -1 -38 -26l-37 -88l-64 -2q49 226 84 442l61 5l6 -83q2 -26 25 -28q103 -2 180 -2q74 0 177 2q27 2 39 27l36 80l62 3q-48 -220 -84 -442l-60 -5l-5 89q-3 27 -26 28q-104 2 -179 2z" />
    <glyph glyph-name="Iota" unicode="&#x399;" horiz-adv-x="796" 
d="M514 315q-12 -60 -21 -109t-15 -89q-3 -25 28 -34l122 -35l-8 -51q-170 3 -308 3q-148 0 -307 -3l4 51l135 37q28 8 34 31q9 39 18.5 89t21.5 110l153 795q10 51 17 92t12 74q5 27 -17 34l-131 39l9 51q85 -2 163 -3t150 -1t147 1t156 3l-7 -51l-137 -37q-25 -6 -31 -31
q-9 -35 -17 -76.5t-18 -90.5z" />
    <glyph glyph-name="Kappa" unicode="&#x39a;" horiz-adv-x="1522" 
d="M608 701l484 448q67 62 99 98.5t32 55.5q0 15 -21 21l-79 22l8 54q104 -4 228 -4q127 0 233 4l-6 -51l-103 -32q-42 -13 -80.5 -37.5t-99.5 -81.5l-427 -401l338 -606q31 -55 56.5 -81.5t71.5 -39.5l78 -22l-7 -51q-118 3 -243 3q-93 0 -189 -2q-11 36 -44 103t-89 168z
M514 315q-12 -60 -21 -109t-15 -89q-3 -25 28 -34l112 -35l-8 -51q-161 3 -298 3q-148 0 -307 -3l4 51l135 37q28 7 34 31q9 39 18.5 89t21.5 110l153 795q10 51 17 92t12 74q4 27 -17 34l-131 39l9 51q161 -4 313 -4t293 4l-7 -51l-127 -37q-25 -6 -31 -31
q-9 -35 -17 -76.5t-18 -90.5z" />
    <glyph glyph-name="Lambda" unicode="&#x39b;" horiz-adv-x="1359" 
d="M710 914l-13 106l-57 -105l-371 -655q-32 -57 -52 -96t-20 -56q0 -21 34 -31l94 -27l-9 -53q-137 3 -248 3q-113 0 -213 -3l6 51l98 27q30 8 51 21t36 28.5t26 32.5t21 34l715 1213l110 17l202 -1215q6 -34 12.5 -57.5t14.5 -36.5q18 -27 51 -36l106 -28l-7 -51
q-164 3 -308 3q-141 0 -315 -3l5 51l97 28q21 6 34.5 17.5t13.5 43.5q0 31 -15 120z" />
    <glyph glyph-name="Mu" unicode="&#x39c;" horiz-adv-x="1906" 
d="M1511 1400q115 -4 210 -4q98 0 269 4l-6 -51l-143 -39q-25 -8 -31 -34q-15 -66 -34 -166l-151 -795q-22 -118 -36 -199q-3 -23 21 -31l125 -37l-9 -51q-170 3 -314 3t-283 -3l6 51l120 35q26 7 33 35q17 79 39 197l158 805l-676 -1120l-94 -8l-242 1120l-151 -797
q-22 -118 -35 -197q-5 -28 19 -35l115 -35l-8 -51q-134 3 -217 3q-75 0 -221 -3l6 51l139 37q29 8 34 31q18 81 40 199l151 795q19 100 29 166q5 26 -17 34l-127 39l8 51q173 -4 267 -4q102 0 199 4l189 -873q12 -60 22 -116q31 54 62 106z" />
    <glyph glyph-name="Nu" unicode="&#x39d;" horiz-adv-x="1474" 
d="M230 1349l7 51q70 -2 123 -3t90 -1q25 0 49 1t49 3l520 -851q28 -53 60 -111l27 147l100 530q10 49 17.5 90.5t12.5 76.5q3 22 -20 30l-122 35l8 53q69 -2 124.5 -3t98.5 -1q45 0 100 1t124 3l-5 -51l-144 -39q-24 -8 -30 -33q-8 -33 -16.5 -74t-18.5 -92l-211 -1111
l-108 -11l-553 904q-26 46 -60 111q-7 -39 -13 -74t-12 -66l-101 -550q-11 -60 -19.5 -108.5t-15.5 -86.5q-5 -29 19 -35l121 -35l-7 -52q-134 3 -219 3q-87 0 -226 -3l4 50l142 37q27 8 32 31q9 41 19 90t21 109l148 797q9 51 16.5 92t12.5 74q4 25 -18 33z" />
    <glyph glyph-name="Xi" unicode="&#x39e;" horiz-adv-x="1317" 
d="M223 988l50 404l10 8q258 -4 483 -4h89q225 0 488 4l4 -8l-130 -395l-58 -8l-4 193h-782l-92 -187zM1196 417l-43 -413l-8 -7q-279 3 -483 3h-173q-223 0 -486 -3l-6 7l126 403l59 8l1 -184h869l86 177zM664 609q-81 0 -182 -2q-26 -1 -38 -26l-37 -88l-64 -2
q49 226 84 442l61 5l6 -83q2 -26 25 -28q102 -2 186 -2q80 0 182 2q27 2 39 27l36 80l62 3q-48 -220 -84 -442l-60 -5l-5 89q-3 27 -26 28q-103 2 -185 2z" />
    <glyph glyph-name="Omicron" unicode="&#x39f;" horiz-adv-x="1679" 
d="M764 -35q-293 0 -470.5 156t-177.5 432q0 368 248.5 621.5t615.5 253.5q294 0 472 -155t178 -433q0 -371 -248.5 -623t-617.5 -252zM1307 873q0 216 -96 338t-259 122q-237 0 -375.5 -231.5t-138.5 -580.5q0 -214 95 -337.5t260 -123.5q237 0 375.5 230t138.5 583z" />
    <glyph glyph-name="Pi" unicode="&#x3a0;" horiz-adv-x="1685" 
d="M712 1291l-183 -976q-22 -118 -34 -198q-4 -27 20 -34l117 -35l-9 -51q-160 3 -306 3q-148 0 -313 -3l6 51l135 37q29 8 34 31q18 80 40 198l151 796q19 100 29 167q5 26 -17 34l-131 39l9 51q175 -4 315 -5h875q155 0 325 4l-6 -51l-150 -39q-24 -8 -30 -34
q-15 -66 -34 -166l-151 -795q-21 -118 -35 -199q-3 -23 20 -31l129 -37l-9 -51q-178 3 -321 3q-149 0 -298 -3l6 51l127 35q27 7 33 34q18 80 40 198l180 976h-564z" />
    <glyph glyph-name="Rho" unicode="&#x3a1;" horiz-adv-x="1262" 
d="M585 682q36 -12 92 -12q147 0 233.5 96t86.5 273q0 126 -62 197t-162 71q-36 0 -70 -8zM10 48l135 37q29 8 34 31q8 40 18 89.5t22 109.5l151 795q10 51 17 92t12 74q4 25 -17 34l-131 39l9 51q75 -2 150 -3t151 -1q60 0 130 4t112 4q239 0 373.5 -90.5t134.5 -267.5
q0 -216 -172 -343t-428 -127q-75 0 -144 12l-52 -273q-11 -60 -19.5 -109t-15.5 -87q-3 -23 20 -31l144 -40l-9 -51q-188 3 -329 3q-143 0 -302 -3z" />
    <glyph glyph-name="Sigma" unicode="&#x3a3;" horiz-adv-x="1284" 
d="M-2 42l613 622l-389 687l7 49q160 -4 322 -4h268q241 0 490 4l5 -8l-121 -353l-56 -8l-29 264h-541l300 -531l-539 -547h625l151 252l63 9l-99 -474l-8 -7q-197 3 -416 3h-261q-231 0 -388 -3z" />
    <glyph glyph-name="Tau" unicode="&#x3a4;" horiz-adv-x="1266" 
d="M352 1294l-143 -268l-57 -9l41 375l9 8q125 -2 240.5 -3t226.5 -1h276q115 0 234.5 1t245.5 3l4 -8l-131 -366l-57 -9l-13 277h-292l-186 -975q-11 -60 -20.5 -109t-15.5 -89q-3 -25 28 -34l136 -39l-8 -51q-185 3 -323 3q-148 0 -322 -3l4 51l151 41q28 7 34 31
q9 39 19 89t21 110l187 975h-289z" />
    <glyph glyph-name="Upsilon" unicode="&#x3a5;" horiz-adv-x="1261" 
d="M1055 1141q35 48 60.5 86.5t25.5 59.5q0 25 -37 35l-88 24l7 54q121 -4 239 -4q113 0 227 4l-5 -51l-118 -32q-39 -11 -62.5 -35t-50.5 -59l-428 -583l-63 -325q-12 -60 -20.5 -109t-15.5 -89q-3 -25 28 -34l122 -35l-9 -51q-170 3 -312 3q-143 0 -302 -3l5 51l135 37
q27 7 34 31q8 40 18 89.5t22 109.5l59 313l-222 567q-26 61 -44 88t-55 38l-101 28l5 51q123 -4 306 -4q146 0 320 4l-2 -51l-100 -26q-23 -5 -35 -17t-12 -33q0 -27 33 -110l157 -410z" />
    <glyph glyph-name="Phi" unicode="&#x3a6;" horiz-adv-x="1566" 
d="M1007 43l-8 -46q-81 2 -157 2.5t-143 0.5q-72 0 -147.5 -0.5t-150.5 -2.5l5 46l131 36q14 4 23.5 12.5t12.5 26.5l21 110q-242 31 -375.5 143t-133.5 294q0 228 185.5 363t507.5 163l16 80q4 21 -1.5 30.5t-17.5 13.5l-127 39l9 46q81 -2 158 -3t147 -1q69 0 143.5 1
t149.5 3l-5 -46l-133 -37q-13 -4 -22.5 -12.5t-12.5 -26.5l-17 -88q222 -26 365 -140t143 -302q0 -232 -192 -366t-502 -157l-20 -106q-6 -32 28 -41zM761 1103q-182 -30 -276.5 -142.5t-94.5 -312.5q0 -274 221 -330zM1047 1098l-151 -785q182 29 277 142.5t95 313.5
q0 271 -221 329z" />
    <glyph glyph-name="Chi" unicode="&#x3a7;" horiz-adv-x="1371" 
d="M-87 48l107 31q41 12 72.5 39t66.5 68l433 497l-252 541q-9 20 -17.5 36t-19 28t-23.5 20.5t-31 13.5l-94 27l8 51q68 -2 144 -3t163 -1q78 0 155 1t161 3l-5 -51l-86 -25q-49 -13 -49 -52q0 -33 36 -109l132 -282l258 302q21 25 34 42t20 29t9 20t2 16q0 23 -33 32
l-83 24l7 54q58 -2 117.5 -3t122.5 -1q61 0 117 1t107 3l-5 -51l-108 -32q-47 -14 -79.5 -45t-69.5 -74l-367 -421l274 -588q12 -26 21.5 -45t19.5 -32.5t23.5 -22t33.5 -14.5l95 -27l-8 -51q-134 3 -285 3q-156 0 -339 -3l6 51l90 25q43 12 43 55q0 29 -36 106l-161 346
l-314 -368q-20 -23 -32 -39t-19.5 -28t-10 -20.5t-2.5 -16.5q0 -24 38 -35l77 -23l-8 -53q-116 3 -240 3q-110 0 -221 -3z" />
    <glyph glyph-name="Psi" unicode="&#x3a8;" horiz-adv-x="1856" 
d="M192 1400q70 -2 148.5 -3t178.5 -1q66 0 128 2q-93 -403 -93 -545q0 -129 53 -190.5t194 -73.5l100 526q9 51 16.5 92t12.5 74q5 26 -18 34l-115 35l8 50q153 -4 295 -4q138 0 284 4l-6 -50l-121 -33q-25 -6 -32 -30q-8 -36 -16.5 -77.5t-17.5 -89.5l-100 -531
q110 9 178 37t110 81.5t66.5 136t47.5 199.5q45 228 63 355q56 -2 133 -2q75 0 154.5 1t176.5 3l-9 -51l-152 -39q-26 -7 -32 -34l-39 -202q-59 -296 -214 -431t-500 -145l-34 -180q-11 -60 -20 -109t-15 -89q-4 -25 28 -34l134 -38l-9 -51q-187 3 -320 3q-144 0 -311 -3
l6 51l144 40q27 8 33 31q9 40 19 89.5t21 109.5l34 182q-268 11 -386.5 101.5t-118.5 287.5q0 118 54 387q4 24 -18 34l-132 39z" />
    <glyph glyph-name="uni03A9" unicode="&#x3a9;" horiz-adv-x="1659" 
d="M634 0q-298 0 -554 -3l-6 10l6 422l60 9l82 -236h294l1 6q-338 321 -338 589q0 279 218.5 455t548.5 176q287 0 459.5 -135t172.5 -355q0 -373 -525 -729l-1 -7h310l150 227l63 9l-90 -431l-8 -10q-299 3 -595 3l4 186q370 348 370 733q0 207 -83 310.5t-235 103.5
q-209 0 -321.5 -170t-112.5 -456q0 -268 164 -521z" />
    <glyph glyph-name="Iotadieresis" unicode="&#x3aa;" horiz-adv-x="796" 
d="M514 315q-12 -60 -21 -109t-15 -89q-3 -25 28 -34l122 -35l-8 -51q-170 3 -308 3q-148 0 -307 -3l4 51l135 37q28 8 34 31q9 39 18.5 89t21.5 110l153 795q10 51 17 92t12 74q5 27 -17 34l-131 39l9 51q85 -2 163 -3t150 -1t147 1t156 3l-7 -51l-137 -37q-25 -6 -31 -31
q-9 -35 -17 -76.5t-18 -90.5zM539 1655q0 -61 -36 -97.5t-94 -36.5q-56 0 -90.5 34.5t-34.5 90.5q0 61 36.5 95.5t95.5 34.5q55 0 89 -31.5t34 -89.5zM948 1655q0 -61 -36.5 -97.5t-94.5 -36.5q-55 0 -89.5 34.5t-34.5 90.5q0 61 36 95.5t95 34.5q56 0 90 -31.5t34 -89.5z
M-17 1400z" />
    <glyph glyph-name="Upsilondieresis" unicode="&#x3ab;" horiz-adv-x="1261" 
d="M1055 1141q35 48 60.5 86.5t25.5 59.5q0 25 -37 35l-88 24l7 54q121 -4 239 -4q113 0 227 4l-5 -51l-118 -32q-39 -11 -62.5 -35t-50.5 -59l-428 -583l-63 -325q-12 -60 -20.5 -109t-15.5 -89q-3 -25 28 -34l122 -35l-9 -51q-170 3 -312 3q-143 0 -302 -3l5 51l135 37
q27 7 34 31q8 40 18 89.5t22 109.5l59 313l-222 567q-26 61 -44 88t-55 38l-101 28l5 51q123 -4 306 -4q146 0 320 4l-2 -51l-100 -26q-23 -5 -35 -17t-12 -33q0 -27 33 -110l157 -410zM806 1655q0 -61 -36 -97.5t-94 -36.5q-56 0 -90.5 34.5t-34.5 90.5q0 61 36.5 95.5
t95.5 34.5q55 0 89 -31.5t34 -89.5zM1215 1655q0 -61 -36.5 -97.5t-94.5 -36.5q-55 0 -89.5 34.5t-34.5 90.5q0 61 36 95.5t95 34.5q56 0 90 -31.5t34 -89.5zM250 1400z" />
    <glyph glyph-name="alphatonos" unicode="&#x3ac;" horiz-adv-x="1290" 
d="M869 297q34 -120 106.5 -167.5t203.5 -47.5l-5 -58q-175 -40 -280 -40q-106 0 -143 190q-192 -201 -371 -201q-149 0 -233 100t-84 258q0 70 16 143t46.5 141t75 127.5t100.5 104t123 70t143 25.5q140 0 207 -99.5t71 -285.5l2 -1q70 156 108 334q148 21 305 52l11 -11
q-143 -320 -402 -634zM737 376q0 445 -148 445q-42 0 -75.5 -24.5t-60 -64t-46 -90t-32.5 -101.5t-19 -98t-6 -81q0 -107 27.5 -173.5t80.5 -66.5q59 0 137.5 74.5t141.5 179.5zM800 1449h269l-315 -421h-85zM205 950z" />
    <glyph glyph-name="epsilontonos" unicode="&#x3ad;" horiz-adv-x="929" 
d="M706 424q-47 9 -103 9q-123 0 -196 -45t-73 -128q0 -80 60 -117.5t175 -37.5q123 0 266 39l-3 -52q-174 -119 -432 -119q-167 0 -265.5 60.5t-98.5 174.5q0 176 246 264q-151 63 -151 196q0 131 148 203.5t362 72.5q156 0 296 -45q-34 -121 -58 -248l-55 -8l-63 198
q-50 12 -99 12q-110 0 -180.5 -45t-70.5 -123q0 -73 59 -112.5t161 -39.5q45 0 92 8zM720 1449h269l-315 -421h-85zM125 950z" />
    <glyph glyph-name="etatonos" unicode="&#x3ae;" horiz-adv-x="1191" 
d="M509 736l-90 -446q-12 -59 -24 -127.5t-26 -149.5q-153 -10 -282 -30l-8 8q17 78 31.5 146.5t27.5 132.5l37 185q22 107 34 169.5t16 81.5q8 40 8 62q0 20 -6.5 32.5t-21.5 19.5t-40 9.5t-63 2.5l6 46q171 49 278 49q66 0 102 -30.5t35 -72.5q190 117 344 117
q101 0 158.5 -58.5t57.5 -167.5q0 -40 -10 -89l-128 -625q-50 -245 -78 -463q-160 -12 -289 -32l-9 7l218 1082q9 45 9 81q0 121 -104 121q-72 0 -183 -61zM795 1449h269l-315 -421h-85zM200 950z" />
    <glyph glyph-name="iotatonos" unicode="&#x3af;" horiz-adv-x="621" 
d="M232 898q163 22 300 52l8 -7q-34 -138 -65 -291l-95 -464q-6 -26 -6 -44q0 -25 10.5 -38.5t31.5 -20t52 -8.5t84 -2l-6 -47q-163 -52 -274 -52q-180 0 -180 132q0 31 6 62l96 466q30 145 38 262zM500 1449h269l-315 -421h-85zM-95 950z" />
    <glyph glyph-name="upsilondieresistonos" unicode="&#x3b0;" 
d="M223 765q0 20 -6 33t-21.5 20.5t-41.5 10.5t-66 3l6 46q175 49 270 49q69 0 109.5 -25t40.5 -86q0 -39 -13 -89t-30 -110q-21 -73 -39.5 -156t-18.5 -174q0 -90 29.5 -137t89.5 -47q119 0 192.5 150t73.5 382q0 148 -32 265q130 19 273 50l8 -7q19 -98 19 -195
q0 -326 -158 -549.5t-426 -223.5q-158 0 -252.5 81.5t-94.5 228.5q0 81 17 159t35 147q14 54 25 99t11 75zM633 1449h259l-280 -421h-75zM1106 1221q0 -62 -37.5 -100t-97.5 -38q-56 0 -91 36t-35 94q0 63 37.5 99.5t98.5 36.5q55 0 90 -33.5t35 -94.5zM494 1221
q0 -62 -37 -100t-97 -38q-56 0 -91.5 36t-35.5 94q0 63 37.5 99.5t98.5 36.5q56 0 90.5 -33.5t34.5 -94.5zM103 945z" />
    <glyph glyph-name="alpha" unicode="&#x3b1;" horiz-adv-x="1255" 
d="M869 297q34 -120 106.5 -167.5t203.5 -47.5l-5 -58q-175 -40 -280 -40q-106 0 -143 190q-192 -201 -371 -201q-149 0 -233 100t-84 258q0 70 16 143t46.5 141t75 127.5t100.5 104t123 70t143 25.5q140 0 207 -99.5t71 -285.5l2 -1q70 156 108 334q148 21 305 52l11 -11
q-143 -320 -402 -634zM737 376q0 445 -148 445q-42 0 -75.5 -24.5t-60 -64t-46 -90t-32.5 -101.5t-19 -98t-6 -81q0 -107 27.5 -173.5t80.5 -66.5q59 0 137.5 74.5t141.5 179.5z" />
    <glyph glyph-name="beta" unicode="&#x3b2;" horiz-adv-x="1253" 
d="M259 -463q-156 -11 -282 -31l-9 7l286 1423q58 287 194.5 427t375.5 140q194 0 302.5 -86.5t108.5 -225.5q0 -249 -349 -377v-7q131 -42 207.5 -138t76.5 -219q0 -205 -170 -341t-400 -136q-138 0 -259 64q-50 -236 -82 -500zM358 130q97 -52 188 -52q138 0 229 112
t91 274q0 129 -69 201.5t-191 72.5q-22 0 -44 -1l4 79q176 7 277.5 99.5t101.5 256.5q0 109 -40 167.5t-118 58.5q-87 0 -143.5 -79.5t-94.5 -262.5z" />
    <glyph glyph-name="gamma" unicode="&#x3b3;" horiz-adv-x="1033" 
d="M836 890q158 22 296 50l9 -8q-68 -104 -143 -217.5t-163 -246.5q-86 -129 -159.5 -244t-134.5 -220q-41 -230 -112 -467q-154 -10 -285 -31l-9 7q158 376 158 534q0 182 -40 414.5t-83 303.5q-13 21 -27.5 34.5t-34 20.5t-45 9.5t-61.5 2.5l6 46q172 49 272 49
q112 0 145 -69q40 -84 80 -292t40 -323q0 -22 -2 -67q163 346 293 714z" />
    <glyph glyph-name="delta" unicode="&#x3b4;" horiz-adv-x="1140" 
d="M1078 1113q-243 261 -397 261q-29 0 -44 -16.5t-15 -40.5q0 -19 13 -44t35 -55.5t51 -65.5t62 -75q47 -57 96 -122.5t89.5 -137.5t66.5 -150t26 -160q0 -218 -165.5 -374.5t-389.5 -156.5q-195 0 -322 103t-127 272q0 377 537 550q-38 45 -74 86.5t-65 82.5t-46.5 82.5
t-17.5 87.5q0 120 89.5 188t244.5 68q268 0 533 -185v-11q-96 -96 -180 -187zM650 828q-299 -116 -299 -462q0 -135 45 -213.5t130 -78.5q110 0 179 118t69 273q0 193 -124 363z" />
    <glyph glyph-name="epsilon" unicode="&#x3b5;" horiz-adv-x="929" 
d="M706 424q-47 9 -103 9q-123 0 -196 -45t-73 -128q0 -80 60 -117.5t175 -37.5q123 0 266 39l-3 -52q-174 -119 -432 -119q-167 0 -265.5 60.5t-98.5 174.5q0 176 246 264q-151 63 -151 196q0 131 148 203.5t362 72.5q156 0 296 -45q-34 -121 -58 -248l-55 -8l-63 198
q-50 12 -99 12q-110 0 -180.5 -45t-70.5 -123q0 -73 59 -112.5t161 -39.5q45 0 92 8z" />
    <glyph glyph-name="zeta" unicode="&#x3b6;" horiz-adv-x="903" 
d="M1093 1361q-335 -223 -538 -502.5t-203 -475.5q0 -51 11.5 -84t36 -55.5t62 -38.5t90.5 -34q63 -21 110.5 -40t79.5 -42t48 -52.5t16 -71.5q0 -162 -257 -460l-62 37q97 176 97 255q0 27 -8 48t-29 39.5t-57.5 35.5t-92.5 35q-86 27 -148.5 58t-104 72.5t-61.5 97
t-20 131.5q0 419 713 943q-121 -30 -171 -34l-224 -18q-11 119 -35 223l9 7q188 -7 337 -7h117q131 0 276 5z" />
    <glyph glyph-name="eta" unicode="&#x3b7;" horiz-adv-x="1191" 
d="M509 736l-90 -446q-12 -59 -24 -127.5t-26 -149.5q-153 -10 -282 -30l-8 8q17 78 31.5 146.5t27.5 132.5l37 185q22 107 34 169.5t16 81.5q8 40 8 62q0 20 -6.5 32.5t-21.5 19.5t-40 9.5t-63 2.5l6 46q171 49 278 49q66 0 102 -30.5t35 -72.5q190 117 344 117
q101 0 158.5 -58.5t57.5 -167.5q0 -40 -10 -89l-128 -625q-50 -245 -78 -463q-160 -12 -289 -32l-9 7l218 1082q9 45 9 81q0 121 -104 121q-72 0 -183 -61z" />
    <glyph glyph-name="theta" unicode="&#x3b8;" horiz-adv-x="1148" 
d="M754 1441q179 0 273.5 -120.5t94.5 -352.5q0 -67 -8.5 -145.5t-26.5 -161t-45.5 -165.5t-65.5 -159.5t-86.5 -143t-108.5 -115.5t-132 -77t-157 -28q-187 0 -286 133.5t-99 361.5q0 91 18 199t55 216t90.5 208.5t125.5 178.5t161.5 124.5t196.5 46.5zM809 676h-401
q-14 -126 -14 -244q0 -357 136 -357q92 0 166 160t113 441zM425 791h398q8 96 8 189q0 177 -32.5 267t-101.5 90q-81 0 -153.5 -138t-118.5 -408z" />
    <glyph glyph-name="iota" unicode="&#x3b9;" horiz-adv-x="621" 
d="M232 898q163 22 300 52l8 -7q-34 -138 -65 -291l-95 -464q-6 -26 -6 -44q0 -25 10.5 -38.5t31.5 -20t52 -8.5t84 -2l-6 -47q-163 -52 -274 -52q-180 0 -180 132q0 31 6 62l96 466q30 145 38 262z" />
    <glyph glyph-name="kappa" unicode="&#x3ba;" horiz-adv-x="1152" 
d="M369 13q-153 -11 -282 -30l-8 8q17 78 31.5 146.5t27.5 132.5l37 185q22 108 34 170t16 81q4 20 6 35.5t2 26.5q0 20 -6.5 32.5t-21.5 19.5t-40.5 9.5t-62.5 2.5l6 46q169 49 278 49q62 0 99.5 -28t37.5 -81q0 -18 -4 -35l-63 -312l216 227q113 119 204 175.5t214 56.5
q44 0 102 -13q-32 -114 -71 -232l-7 -2q-96 27 -159 27q-74 0 -139 -34.5t-154 -121.5q100 -192 184 -330q53 -87 99.5 -117t139.5 -35l-5 -49q-177 -44 -280 -44q-36 0 -61.5 5t-46 19t-39.5 37.5t-41 61.5q-50 84 -83 146.5t-58 109.5l-49 -51z" />
    <glyph glyph-name="lambda" unicode="&#x3bb;" horiz-adv-x="1097" 
d="M270 1466q132 28 216 28q133 0 197 -59t81 -186q6 -42 10.5 -91t8.5 -109t7.5 -133t7.5 -163q2 -46 4.5 -98.5t5.5 -106.5t6.5 -107t5.5 -76q8 -93 29.5 -149t57.5 -87t87 -41t113 -10l-5 -57q-167 -37 -245 -37q-47 0 -75.5 15t-44.5 42.5t-23 67.5t-11 90
q-8 101 -12 200q-4 91 -7 172q-25 -41 -58 -86l-350 -476q-154 -5 -318 -26l-7 9l721 950q-2 66 -10 134q-11 98 -48 142t-116 44q-67 0 -169 -26l-10 5z" />
    <glyph glyph-name="uni03BC" unicode="&#x3bc;" horiz-adv-x="1229" 
d="M232 898q163 22 300 52l8 -7q-34 -138 -65 -291l-62 -308q-6 -30 -6 -55q0 -58 33.5 -96.5t95.5 -38.5q98 0 186 90l80 392q30 145 38 262q163 22 300 52l8 -7q-34 -138 -65 -291l-95 -464q-6 -26 -6 -44q0 -25 10.5 -38.5t31.5 -20t52 -8.5t84 -2l-6 -47
q-163 -52 -274 -52q-179 0 -179 152q-128 -158 -215 -158q-98 0 -148 121l-10 -82q-36 -233 -58 -472q-160 -9 -294 -31l-9 7l227 1123q30 145 38 262z" />
    <glyph glyph-name="nu" unicode="&#x3bd;" horiz-adv-x="1021" 
d="M466 -9l-137 -14q-18 149 -37.5 283t-42.5 253q-22 122 -41.5 192t-44.5 93q-14 13 -28.5 20t-31.5 10t-36 3.5t-43 0.5l4 39q163 56 265 56q117 0 148 -73q31 -68 62.5 -239.5t40.5 -261.5q5 -53 10 -109q101 144 150 288t49 366q159 21 294 52l8 -7q0 -141 -161.5 -410
t-427.5 -542z" />
    <glyph glyph-name="xi" unicode="&#x3be;" horiz-adv-x="948" 
d="M934 801q-297 -63 -442 -173.5t-145 -266.5q0 -46 14.5 -75t44 -50t72.5 -37t99 -34q43 -14 84.5 -29.5t75 -37t54.5 -53.5t21 -78q0 -89 -66.5 -203t-190.5 -259l-60 40q95 165 95 252q0 38 -16 64t-47 45.5t-75 35.5t-99 35q-54 19 -108 42t-96.5 57.5t-69.5 84.5
t-27 123q0 143 107.5 262.5t374.5 236.5q-126 19 -196.5 69.5t-71.5 124.5q-1 86 64 152t229 148q48 22 162 70l-1 5q-106 -30 -136 -37l-248 -37q-7 112 -22 211l8 7q203 -6 390 -6h158q121 0 231 5l9 -78q-289 -89 -426 -179t-137 -209q0 -73 70 -112t203 -39q47 0 117 7z
" />
    <glyph glyph-name="omicron" unicode="&#x3bf;" horiz-adv-x="1189" 
d="M632 944q214 0 341.5 -112.5t127.5 -302.5q0 -240 -154.5 -398t-399.5 -158q-217 0 -343 112.5t-126 297.5q0 243 152 402t402 159zM620 841q-108 0 -179 -136.5t-70 -326.5q1 -142 49.5 -222t138.5 -80q111 0 179 140.5t68 323.5q0 142 -49.5 221.5t-136.5 79.5z" />
    <glyph glyph-name="pi" unicode="&#x3c0;" horiz-adv-x="1231" 
d="M58 690l-6 37q128 66 315 191h548q264 0 372 3l4 -9q-48 -113 -82 -231q-91 6 -244 8q-69 -317 -69 -482q0 -47 19 -72.5t49.5 -37t68.5 -15t76 -3.5l-4 -49q-80 -26 -160.5 -40.5t-125.5 -14.5q-99 0 -152 39t-53 117q0 90 61 283t87 276h-215l-113 -355
q-64 -204 -99 -331q-151 -13 -278 -31l-11 7q55 138 132 312l173 398h-293z" />
    <glyph glyph-name="rho" unicode="&#x3c1;" horiz-adv-x="1179" 
d="M325 33q-53 -256 -82 -496q-149 -10 -282 -31l-9 7l187 953q47 239 179.5 357.5t344.5 118.5q192 0 313.5 -108.5t121.5 -290.5q0 -225 -166 -397.5t-380 -172.5q-119 0 -227 60zM343 124q84 -52 158 -52q130 0 218 142.5t88 318.5q0 148 -47 222t-128 74
q-77 0 -123.5 -62t-77.5 -215z" />
    <glyph glyph-name="sigma1" unicode="&#x3c2;" horiz-adv-x="919" 
d="M766 839q-21 5 -43 5q-155 0 -255 -125.5t-100 -299.5q0 -55 12 -92.5t37 -67t62.5 -54.5t87.5 -55q43 -26 74.5 -48t52.5 -46t31.5 -53t10.5 -68q0 -59 -59.5 -169t-186.5 -261l-62 37q93 164 93 254q0 36 -11 60.5t-33 45t-55 40t-77 43.5q-65 36 -115 75t-84 86
t-52 104.5t-18 130.5q0 236 186 399.5t442 163.5q135 0 259 -47q-35 -134 -63 -288l-59 -10z" />
    <glyph glyph-name="sigma" unicode="&#x3c3;" horiz-adv-x="1266" 
d="M1264 681q-171 16 -335 23q154 -114 154 -254q0 -191 -166.5 -334t-370.5 -143q-216 0 -341 116t-125 316q0 239 181.5 376t490.5 137q426 0 587 5l6 -12q-44 -110 -81 -230zM760 705q-219 -2 -311 -86t-92 -262q0 -134 52.5 -211t154.5 -77q103 0 167.5 113.5
t64.5 295.5q0 129 -36 227z" />
    <glyph glyph-name="tau" unicode="&#x3c4;" horiz-adv-x="989" 
d="M511 212q0 -59 32.5 -83t100.5 -24q56 0 149 15l-3 -52q-183 -93 -350 -93q-103 0 -164 42t-61 121q0 143 185 552h-354l-6 37q128 66 315 191h318q264 0 372 3l4 -9q-48 -113 -82 -231q-133 9 -358 9q-98 -351 -98 -478z" />
    <glyph glyph-name="upsilon" unicode="&#x3c5;" 
d="M223 765q0 20 -6 33t-21.5 20.5t-41.5 10.5t-66 3l6 46q175 49 270 49q69 0 109.5 -25t40.5 -86q0 -39 -13 -89t-30 -110q-21 -73 -39.5 -156t-18.5 -174q0 -90 29.5 -137t89.5 -47q119 0 192.5 150t73.5 382q0 148 -32 265q130 19 273 50l8 -7q19 -98 19 -195
q0 -326 -158 -549.5t-426 -223.5q-158 0 -252.5 81.5t-94.5 228.5q0 81 17 159t35 147q14 54 25 99t11 75z" />
    <glyph glyph-name="phi" unicode="&#x3c6;" horiz-adv-x="1480" 
d="M694 -463q-139 -9 -282 -31l-9 7l95 470q-194 30 -314.5 133t-120.5 267q0 204 171 351.5t443 210.5l21 -58q-346 -147 -346 -481q0 -247 166 -324l84 417q45 220 145.5 324.5t287.5 104.5q162 0 268.5 -100t106.5 -256q0 -235 -182 -400t-467 -195q-22 -109 -39 -216.5
t-28 -223.5zM780 69q155 40 249 170t94 319q0 98 -32 183t-83 85q-44 0 -68 -44t-39 -118z" />
    <glyph glyph-name="chi" unicode="&#x3c7;" horiz-adv-x="1110" 
d="M845 896q190 23 349 54l7 -9q-297 -358 -612 -775q15 -74 30.5 -142t30.5 -122q24 -95 48 -151.5t56.5 -87.5t81 -43t124.5 -16l-6 -47q-144 -43 -237 -43q-36 0 -63 10t-46 35t-32 68t-25 108q-10 45 -24.5 125.5t-36.5 187.5q-169 -237 -356 -511q-204 -13 -330 -31
l-7 10q327 466 623 846q-8 40 -20 85.5t-24 89.5q-27 94 -58.5 152t-72 90.5t-94 43t-123.5 9.5l6 46q171 49 269 49q35 0 58 -15.5t38.5 -41t26.5 -57t22 -64.5q14 -48 32 -119.5t38 -152.5q157 215 327 419z" />
    <glyph glyph-name="psi" unicode="&#x3c8;" horiz-adv-x="1514" 
d="M515 -488l-8 7q51 254 90 460q-212 19 -327 127t-115 292q0 43 6.5 91t20.5 102t25 99t11 75q0 20 -6 33t-21.5 20.5t-41.5 10.5t-66 3l6 46q174 49 270 49q69 0 109.5 -25t40.5 -86q0 -39 -13 -89t-30 -110q-17 -57 -29 -121.5t-12 -127.5q0 -229 194 -266
q183 1002 207 1248q143 19 276 44l11 -7q-65 -205 -313 -1284q178 31 284 171.5t106 360.5q0 155 -30 265q143 21 273 50l8 -7q17 -76 17 -195q0 -318 -181 -526t-505 -242q-43 -199 -96 -448z" />
    <glyph glyph-name="omega" unicode="&#x3c9;" horiz-adv-x="1524" 
d="M1169 943q276 -176 276 -427q0 -210 -143.5 -375.5t-341.5 -165.5q-213 0 -254 195h-5q-93 -195 -323 -195q-146 0 -241.5 93.5t-95.5 238.5q0 378 502 640l77 -34q-282 -260 -282 -568q0 -114 32 -175t89 -61q84 0 134.5 144.5t53.5 365.5q139 20 288 58l7 -8
q-93 -255 -93 -396q0 -76 29 -119.5t81 -43.5q95 0 150.5 131.5t55.5 315.5q0 173 -81 352z" />
    <glyph glyph-name="iotadieresis" unicode="&#x3ca;" horiz-adv-x="621" 
d="M232 898q163 22 300 52l8 -7q-34 -138 -65 -291l-95 -464q-6 -26 -6 -44q0 -25 10.5 -38.5t31.5 -20t52 -8.5t84 -2l-6 -47q-163 -52 -274 -52q-180 0 -180 132q0 31 6 62l96 466q30 145 38 262zM385 1225q0 -64 -39 -102.5t-101 -38.5q-58 0 -95 36.5t-37 95.5
q0 64 39 101.5t102 37.5q58 0 94.5 -34.5t36.5 -95.5zM801 1225q0 -64 -39 -102.5t-101 -38.5q-58 0 -95 36.5t-37 95.5q0 64 39 101.5t102 37.5q58 0 94.5 -34.5t36.5 -95.5zM-112 875z" />
    <glyph glyph-name="upsilondieresis" unicode="&#x3cb;" 
d="M223 765q0 20 -6 33t-21.5 20.5t-41.5 10.5t-66 3l6 46q175 49 270 49q69 0 109.5 -25t40.5 -86q0 -39 -13 -89t-30 -110q-21 -73 -39.5 -156t-18.5 -174q0 -90 29.5 -137t89.5 -47q119 0 192.5 150t73.5 382q0 148 -32 265q130 19 273 50l8 -7q19 -98 19 -195
q0 -326 -158 -549.5t-426 -223.5q-158 0 -252.5 81.5t-94.5 228.5q0 81 17 159t35 147q14 54 25 99t11 75zM597 1225q0 -64 -39 -102.5t-101 -38.5q-58 0 -95 36.5t-37 95.5q0 64 39 101.5t102 37.5q58 0 94.5 -34.5t36.5 -95.5zM1013 1225q0 -64 -39 -102.5t-101 -38.5
q-58 0 -95 36.5t-37 95.5q0 64 39 101.5t102 37.5q58 0 94.5 -34.5t36.5 -95.5zM100 875z" />
    <glyph glyph-name="omicrontonos" unicode="&#x3cc;" horiz-adv-x="1189" 
d="M632 944q214 0 341.5 -112.5t127.5 -302.5q0 -240 -154.5 -398t-399.5 -158q-217 0 -343 112.5t-126 297.5q0 243 152 402t402 159zM620 841q-108 0 -179 -136.5t-70 -326.5q1 -142 49.5 -222t138.5 -80q111 0 179 140.5t68 323.5q0 142 -49.5 221.5t-136.5 79.5z
M745 1449h269l-315 -421h-85zM150 950z" />
    <glyph glyph-name="upsilontonos" unicode="&#x3cd;" 
d="M223 765q0 20 -6 33t-21.5 20.5t-41.5 10.5t-66 3l6 46q175 49 270 49q69 0 109.5 -25t40.5 -86q0 -39 -13 -89t-30 -110q-21 -73 -39.5 -156t-18.5 -174q0 -90 29.5 -137t89.5 -47q119 0 192.5 150t73.5 382q0 148 -32 265q130 19 273 50l8 -7q19 -98 19 -195
q0 -326 -158 -549.5t-426 -223.5q-158 0 -252.5 81.5t-94.5 228.5q0 81 17 159t35 147q14 54 25 99t11 75zM745 1449h269l-315 -421h-85zM150 950z" />
    <glyph glyph-name="omegatonos" unicode="&#x3ce;" horiz-adv-x="1524" 
d="M1169 943q276 -176 276 -427q0 -210 -143.5 -375.5t-341.5 -165.5q-213 0 -254 195h-5q-93 -195 -323 -195q-146 0 -241.5 93.5t-95.5 238.5q0 378 502 640l77 -34q-282 -260 -282 -568q0 -114 32 -175t89 -61q84 0 134.5 144.5t53.5 365.5q139 20 288 58l7 -8
q-93 -255 -93 -396q0 -76 29 -119.5t81 -43.5q95 0 150.5 131.5t55.5 315.5q0 173 -81 352zM940 1449h269l-315 -421h-85zM345 950z" />
    <glyph glyph-name="uni0400" unicode="&#x400;" horiz-adv-x="1223" 
d="M567 1396h196q239 0 508 4l5 -8l-115 -333l-56 -8l-28 244h-375l-101 -533h43q72 0 200 1q28 1 39 27l62 137l62 2q-50 -218 -83 -426l-62 -4l-11 138q-2 26 -25 27q-88 2 -203 2h-42l-65 -342q-21 -111 -40 -221h408l168 266l63 9l-86 -374l-8 -7q-268 3 -503 3h-223
q-150 0 -292 -3l6 51l135 37q27 7 34 31q8 40 18 89.5t22 109.5l152 795q10 51 17 92t12 74q5 26 -17 34l-132 39l8 51q152 -4 309 -4zM528 1662l156 138l330 -275l-31 -52l-455 174v15zM200 1400z" />
    </font>
</defs>
</svg>
